<svg width="421.088" height="282.279" xml:space="preserve" xmlns="http://www.w3.org/2000/svg"><pattern width="72" height="72" patternUnits="userSpaceOnUse" id="a" viewBox="0 -72 72 72" overflow="visible"><path fill="none" d="M0-72h72V0H0z"/><path fill="#231F20" d="M20.997-69c-.06 0-.12-.02-.17-.07-.05-.05-.08-.109-.08-.18s.03-.131.08-.18c.09-.09.25-.09.351 0 .05.049.069.109.069.18 0 .061-.02.119-.069.17a.22.22 0 0 1-.181.08zM19.997-63.75c-.06 0-.13-.03-.18-.07-.04-.05-.07-.109-.07-.18s.03-.131.07-.18c.1-.09.26-.09.36 0 .04.049.069.109.069.18s-.029.13-.069.18c-.05.05-.11.07-.18.07zM20.247-61.5a.26.26 0 0 1-.17-.07c-.05-.05-.08-.109-.08-.18s.03-.131.07-.18c.1-.09.27-.09.36 0 .04.049.069.109.069.18s-.029.14-.08.18a.237.237 0 0 1-.169.07zM17.997-59.25c-.06 0-.12-.03-.17-.07-.05-.05-.08-.109-.08-.18s.03-.131.07-.18c.11-.09.26-.09.36 0 .05.049.069.109.069.18s-.02.13-.069.18c-.05.04-.11.07-.18.07zM15.247-61.5c-.06 0-.12-.02-.17-.07a.267.267 0 0 1-.08-.18c0-.07.03-.131.07-.18.12-.101.26-.09.36 0 .05.049.069.109.069.18 0 .061-.02.13-.069.17-.05.06-.11.08-.18.08zM22.747-52c-.06 0-.12-.02-.17-.07a.249.249 0 0 1-.08-.18.254.254 0 0 1 .43-.18.271.271 0 0 1 0 .36c-.05.04-.11.07-.18.07zM15.247-49c-.06 0-.12-.02-.17-.07a.249.249 0 0 1-.08-.18c0-.061.03-.12.07-.17.12-.11.26-.1.36-.01.05.049.069.119.069.18 0 .07-.02.13-.069.18-.05.05-.11.07-.18.07zM13.997-48a.252.252 0 0 1-.18-.08c-.04-.04-.07-.1-.07-.17s.03-.131.07-.18c.11-.101.26-.09.36 0 .05.049.069.119.069.18 0 .07-.02.13-.069.18-.05.04-.11.07-.18.07zM23.997-45c-.06 0-.12-.02-.17-.07-.05-.05-.08-.109-.08-.18s.03-.131.07-.17c.11-.11.26-.1.36-.01.05.06.069.119.069.18 0 .07-.02.13-.069.18-.05.05-.11.07-.18.07zM30.747-46.25c-.06 0-.12-.02-.17-.07-.05-.05-.08-.109-.08-.18s.03-.131.08-.18c.101-.09.25-.09.351 0 .05.049.069.119.069.18s-.02.13-.069.18a.245.245 0 0 1-.181.07zM31.247-48.75c-.06 0-.12-.03-.17-.07a.249.249 0 0 1-.08-.18.254.254 0 0 1 .43-.18c.05.06.069.119.069.18 0 .07-.02.13-.069.18-.05.04-.11.07-.18.07zM29.247-53.75c-.06 0-.12-.02-.17-.07-.05-.05-.08-.109-.08-.18s.03-.131.08-.18c.101-.09.25-.09.351 0 .05.049.069.109.069.18s-.029.13-.069.18a.259.259 0 0 1-.181.07zM32.247-53.75c-.06 0-.12-.02-.17-.07-.05-.05-.08-.109-.08-.18s.03-.131.07-.18c.11-.09.26-.09.36 0 .04.049.069.109.069.18s-.029.13-.069.18c-.05.05-.11.07-.18.07zM32.497-58.25a.26.26 0 0 1-.17-.07c-.05-.05-.08-.109-.08-.18s.03-.131.08-.18c.09-.09.26-.09.351 0 .05.049.069.119.069.18s-.02.119-.069.17a.254.254 0 0 1-.181.08zM31.747-60.25c-.06 0-.12-.02-.17-.07-.05-.05-.08-.109-.08-.18s.03-.131.08-.18c.101-.09.25-.09.351 0 .05.049.069.109.069.18s-.029.13-.069.18a.245.245 0 0 1-.181.07zM29.247-61.25a.29.29 0 0 1-.18-.07c-.04-.05-.07-.109-.07-.18s.03-.131.08-.18c.101-.09.25-.09.351 0 .05.049.069.109.069.18s-.02.13-.069.18a.293.293 0 0 1-.181.07zM32.247-65c-.06 0-.12-.02-.17-.07-.05-.05-.08-.109-.08-.18s.03-.131.07-.18c.11-.09.26-.09.36 0 .05.049.069.109.069.18s-.029.13-.069.18c-.05.05-.11.07-.18.07zM31.997-69c-.06 0-.12-.03-.17-.07-.05-.05-.08-.109-.08-.18s.03-.131.08-.18c.101-.09.25-.09.351 0 .05.049.069.119.069.18s-.02.13-.069.18a.293.293 0 0 1-.181.07zM29.247-68.75c-.06 0-.12-.02-.17-.07-.05-.05-.08-.109-.08-.18s.03-.131.08-.18c.09-.09.25-.09.351 0 .05.049.069.109.069.18 0 .061-.02.13-.069.17a.22.22 0 0 1-.181.08zM33.997-70.75a.26.26 0 0 1-.17-.07c-.05-.05-.08-.109-.08-.18s.03-.141.08-.18c.09-.09.26-.09.351 0 .05.049.069.109.069.18 0 .061-.02.119-.069.17a.254.254 0 0 1-.181.08zM41.497-65a.26.26 0 0 1-.17-.07c-.05-.05-.08-.109-.08-.18s.03-.131.08-.18c.09-.09.24-.09.34 0 .061.06.08.119.08.18s-.02.119-.069.17a.22.22 0 0 1-.181.08zM45.497-65.25c-.06 0-.12-.02-.17-.07-.05-.05-.08-.109-.08-.18s.03-.131.08-.18c.09-.09.25-.09.351 0 .05.049.069.119.069.18s-.02.13-.069.18a.259.259 0 0 1-.181.07zM40.247-61.75c-.06 0-.12-.02-.17-.07a.267.267 0 0 1-.08-.18c0-.07.03-.131.07-.18.11-.09.26-.09.36 0 .05.049.069.109.069.18 0 .061-.02.13-.069.17-.05.06-.11.08-.18.08zM44.997-60.25c-.06 0-.12-.02-.17-.07-.05-.05-.08-.109-.08-.18s.03-.131.08-.18c.101-.09.25-.09.351 0 .04.049.069.109.069.18s-.02.13-.069.18a.245.245 0 0 1-.181.07zM44.997-58.5c-.06 0-.12-.02-.17-.07-.05-.05-.08-.109-.08-.18s.03-.131.08-.18c.08-.09.26-.09.351.01.05.039.069.1.069.17s-.02.13-.069.18a.245.245 0 0 1-.181.07zM46.997-57.75c-.06 0-.12-.02-.17-.07-.05-.05-.08-.109-.08-.18s.03-.131.08-.18c.09-.09.25-.09.351 0 .05.049.069.119.069.18s-.02.13-.069.18a.245.245 0 0 1-.181.07zM46.997-55.75a.26.26 0 0 1-.17-.07c-.05-.05-.08-.109-.08-.18s.03-.131.08-.18c.08-.08.26-.09.351.01.05.039.069.109.069.17s-.02.13-.069.18a.293.293 0 0 1-.181.07zM47.247-49.25a.26.26 0 0 1-.17-.07c-.05-.04-.08-.109-.08-.18s.03-.131.08-.18c.08-.08.25-.09.351 0 .05.049.069.109.069.18s-.029.13-.069.18a.245.245 0 0 1-.181.07zM38.997-51.25c-.06 0-.12-.02-.17-.07-.05-.05-.08-.109-.08-.18s.03-.131.08-.18c.101-.09.25-.09.351 0 .04.049.069.109.069.18s-.029.13-.069.18a.245.245 0 0 1-.181.07zM50.247-58.5a.26.26 0 0 1-.17-.07c-.05-.05-.08-.109-.08-.18s.03-.131.08-.18c.101-.09.26-.09.351 0 .05.049.069.119.069.18s-.02.13-.069.18a.293.293 0 0 1-.181.07zM52.247-60c-.06 0-.12-.02-.17-.07-.05-.05-.08-.109-.08-.18s.03-.131.08-.18c.09-.09.25-.09.351 0 .05.049.069.119.069.18s-.02.13-.069.18a.245.245 0 0 1-.181.07zM54.747-61a.26.26 0 0 1-.17-.07.267.267 0 0 1-.08-.18c0-.07.03-.131.08-.18.09-.09.25-.09.351 0 .05.049.069.109.069.18 0 .061-.02.13-.069.18a.293.293 0 0 1-.181.07zM54.747-65.25a.243.243 0 0 1-.17-.07c-.05-.061-.08-.119-.08-.18s.03-.12.07-.17c.1-.1.26-.1.36-.01.05.06.069.119.069.18s-.02.119-.069.17a.25.25 0 0 1-.18.08zM56.497-71.25a.26.26 0 0 1-.17-.07c-.05-.05-.08-.119-.08-.18s.03-.131.07-.18c.1-.09.26-.09.36 0 .05.06.069.119.069.18s-.02.119-.069.17a.25.25 0 0 1-.18.08zM63.997-65.5a.26.26 0 0 1-.17-.07c-.05-.05-.08-.119-.08-.18s.03-.131.07-.17c.1-.1.26-.1.36-.01.05.06.069.119.069.18s-.02.119-.069.17a.25.25 0 0 1-.18.08zM64.997-69.5a.26.26 0 0 1-.17-.07c-.05-.05-.08-.109-.08-.18s.03-.131.08-.18c.09-.09.25-.09.351 0 .05.049.069.109.069.18s-.02.13-.069.17a.22.22 0 0 1-.181.08zM67.997-69a.26.26 0 0 1-.17-.07c-.05-.05-.08-.109-.08-.18s.03-.131.07-.18c.1-.09.27-.09.36 0 .05.049.069.119.069.18s-.02.13-.069.18c-.05.04-.11.07-.18.07zM67.997-61.75a.26.26 0 0 1-.17-.07c-.05-.05-.08-.109-.08-.18s.03-.131.07-.18c.1-.09.26-.09.36 0 .05.049.069.119.069.18s-.02.13-.069.18c-.05.04-.11.07-.18.07zM64.247-59.75a.26.26 0 0 1-.17-.07c-.05-.05-.08-.119-.08-.18s.03-.131.07-.17c.09-.1.25-.1.35-.01.061.049.08.119.08.18s-.02.13-.069.17a.22.22 0 0 1-.181.08zM65.247-56.25a.243.243 0 0 1-.17-.07c-.05-.05-.08-.109-.08-.18s.03-.131.08-.18c.07-.08.26-.09.351.01.05.039.069.109.069.17s-.02.119-.069.17a.236.236 0 0 1-.181.08zM63.997-52.25a.26.26 0 0 1-.17-.07c-.05-.05-.08-.109-.08-.18s.03-.131.08-.18c.08-.09.25-.09.351 0 .05.049.069.119.069.18s-.02.13-.069.18a.293.293 0 0 1-.181.07zM66.247-52.25a.252.252 0 0 1-.18-.08.241.241 0 0 1 0-.34c.09-.1.26-.1.36-.01.05.049.069.119.069.18 0 .07-.02.13-.069.18-.05.04-.11.07-.18.07zM67.997-50.75a.26.26 0 0 1-.17-.07c-.05-.05-.08-.119-.08-.18s.03-.12.07-.17c.1-.1.27-.1.36-.01.05.06.069.119.069.18s-.02.119-.069.17a.25.25 0 0 1-.18.08zM69.247-51.75c-.06 0-.12-.02-.17-.07-.05-.05-.08-.109-.08-.18s.03-.131.08-.18c.09-.09.25-.09.351 0 .05.049.069.109.069.18s-.02.13-.069.18a.245.245 0 0 1-.181.07zM69.497-54c-.06 0-.12-.02-.17-.07-.05-.05-.08-.109-.08-.18s.03-.131.08-.18c.09-.09.25-.09.351 0 .05.049.069.109.069.18s-.02.13-.069.18a.245.245 0 0 1-.181.07zM71.247-54.5a.26.26 0 0 1-.17-.07c-.05-.05-.08-.119-.08-.18s.03-.12.07-.17c.11-.1.26-.1.36-.01.05.06.069.119.069.18s-.02.119-.069.17a.25.25 0 0 1-.18.08zM7.997-25c-.06 0-.13-.03-.18-.07a.34.34 0 0 1-.07-.18c0-.07.03-.131.07-.18.09-.09.26-.09.36 0 .05.049.069.109.069.18 0 .061-.02.13-.069.17-.05.06-.11.08-.18.08zM6.997-19.75c-.06 0-.12-.02-.17-.07-.05-.05-.08-.109-.08-.18s.03-.131.07-.18c.11-.09.26-.09.36 0 .05.049.069.119.069.18 0 .07-.02.13-.069.18-.05.05-.11.07-.18.07zM7.247-17.5a.26.26 0 0 1-.17-.07.249.249 0 0 1-.08-.18c0-.061.03-.131.07-.18.1-.09.26-.09.36 0 .04.049.069.109.069.18s-.029.13-.069.18c-.05.04-.11.07-.18.07zM4.997-15.25a.26.26 0 0 1-.17-.07c-.05-.05-.08-.109-.08-.18s.03-.131.07-.17c.1-.1.26-.1.36-.01.05.049.069.109.069.18s-.029.13-.069.18a.255.255 0 0 1-.18.07zM2.247-17.5c-.06 0-.12-.02-.17-.07a.249.249 0 0 1-.08-.18c0-.061.03-.131.07-.17.11-.11.26-.1.35-.01.061.06.08.119.08.18s-.02.13-.069.18a.277.277 0 0 1-.181.07zM9.747-8c-.06 0-.12-.02-.17-.07-.05-.05-.08-.109-.08-.18s.03-.131.07-.18c.11-.09.26-.09.36 0 .05.049.069.109.069.18s-.02.13-.069.18c-.05.05-.11.07-.18.07zM2.247-5c-.06 0-.12-.03-.17-.07-.05-.05-.08-.109-.08-.18s.03-.131.07-.18c.1-.09.26-.09.36 0 .05.049.069.109.069.18 0 .061-.02.13-.069.18a.272.272 0 0 1-.18.07zM.997-4c-.06 0-.13-.03-.18-.07a.285.285 0 0 1-.07-.18c0-.061.03-.131.07-.18.1-.09.27-.09.36 0 .05.049.069.119.069.18s-.02.13-.069.18c-.05.04-.11.07-.18.07zM10.997-1c-.06 0-.12-.02-.17-.07-.05-.05-.08-.109-.08-.18s.03-.131.07-.18c.11-.09.26-.09.36 0 .05.049.069.119.069.18s-.02.13-.069.18a.255.255 0 0 1-.18.07zM17.747-2.25c-.06 0-.12-.02-.17-.07-.05-.05-.08-.109-.08-.18s.03-.131.07-.18c.11-.09.26-.09.36 0 .05.049.069.109.069.18s-.029.13-.069.18a.255.255 0 0 1-.18.07zM18.247-4.75c-.06 0-.12-.03-.17-.07-.05-.061-.08-.119-.08-.18 0-.07.03-.131.07-.18.11-.09.26-.09.36 0 .05.049.069.109.069.18 0 .061-.02.13-.069.17a.25.25 0 0 1-.18.08zM16.247-9.75a.252.252 0 0 1-.18-.08c-.04-.04-.07-.1-.07-.17s.03-.131.07-.18c.1-.09.26-.09.36 0 .05.049.069.109.069.18s-.02.13-.069.18c-.05.04-.11.07-.18.07zM19.247-9.75a.26.26 0 0 1-.17-.07c-.05-.05-.08-.109-.08-.18s.03-.131.07-.18c.1-.09.27-.09.36 0 .04.039.069.109.069.18s-.029.14-.08.18a.237.237 0 0 1-.169.07zM19.497-14.25c-.06 0-.12-.02-.17-.07a.249.249 0 0 1-.08-.18.254.254 0 0 1 .43-.18.271.271 0 0 1 0 .36c-.05.05-.11.07-.18.07zM18.747-16.25c-.06 0-.12-.02-.17-.07-.05-.05-.08-.109-.08-.18s.03-.131.08-.18c.101-.09.26-.09.351 0 .05.049.069.119.069.18s-.02.119-.069.17a.254.254 0 0 1-.181.08zM16.247-17.25c-.06 0-.13-.03-.18-.07a.285.285 0 0 1-.07-.18c0-.061.03-.12.07-.17.1-.1.26-.1.36-.01.05.049.069.119.069.18 0 .07-.02.13-.069.18-.05.05-.11.07-.18.07zM19.247-21a.26.26 0 0 1-.17-.07.267.267 0 0 1-.08-.18c0-.07.03-.131.07-.18.1-.09.27-.09.36 0 .04.039.069.109.069.18s-.02.13-.069.18c-.05.04-.11.07-.18.07zM18.997-25a.26.26 0 0 1-.17-.07.267.267 0 0 1-.08-.18c0-.07.03-.131.07-.18.1-.09.26-.09.36 0 .04.049.069.109.069.18 0 .061-.02.13-.069.17-.05.06-.11.08-.18.08zM16.247-24.75a.29.29 0 0 1-.18-.07.309.309 0 0 1-.07-.18c0-.07.03-.131.07-.18.09-.09.26-.09.36 0 .05.049.069.109.069.18 0 .061-.02.13-.069.18-.05.05-.11.07-.18.07zM20.997-26.75c-.06 0-.12-.02-.17-.07-.05-.05-.08-.109-.08-.18s.03-.131.08-.18c.101-.09.25-.09.351 0 .05.049.069.119.069.18s-.02.119-.069.17a.22.22 0 0 1-.181.08zM28.497-21a.26.26 0 0 1-.17-.07c-.05-.05-.08-.109-.08-.18s.03-.131.08-.18c.09-.09.26-.09.351 0a.271.271 0 0 1 0 .36.293.293 0 0 1-.181.07zM32.497-21.25a.26.26 0 0 1-.17-.07c-.05-.05-.08-.109-.08-.18s.03-.131.08-.18c.09-.09.25-.09.351 0 .05.049.069.119.069.18s-.02.13-.069.18a.293.293 0 0 1-.181.07zM27.247-17.75a.252.252 0 0 1-.18-.08c-.04-.04-.07-.1-.07-.17s.03-.141.08-.18c.09-.09.26-.09.351 0 .05.049.069.109.069.18 0 .061-.02.13-.069.18a.27.27 0 0 1-.181.07zM31.997-16.25c-.06 0-.12-.03-.17-.07a.249.249 0 0 1-.08-.18.254.254 0 0 1 .43-.18c.05.06.069.119.069.18 0 .07-.02.13-.069.18-.05.04-.11.07-.18.07zM31.997-14.5c-.06 0-.12-.02-.17-.07a.249.249 0 0 1-.08-.18.254.254 0 0 1 .43-.18.271.271 0 0 1 0 .36c-.05.05-.11.07-.18.07zM33.997-13.75a.252.252 0 0 1-.18-.08c-.04-.04-.07-.1-.07-.17s.03-.141.08-.18c.09-.09.26-.09.351 0 .05.049.069.109.069.18 0 .061-.02.13-.069.18a.27.27 0 0 1-.181.07zM33.997-11.75c-.06 0-.12-.02-.17-.07-.05-.05-.08-.109-.08-.18s.03-.131.08-.18c.09-.09.26-.09.351 0a.271.271 0 0 1 0 .36.293.293 0 0 1-.181.07zM34.247-5.25a.26.26 0 0 1-.17-.07c-.05-.05-.08-.109-.08-.18s.03-.131.08-.18c.09-.09.25-.09.351 0 .05.049.069.119.069.18s-.02.13-.069.18a.293.293 0 0 1-.181.07zM25.997-7.25c-.06 0-.12-.02-.17-.07-.05-.05-.08-.109-.08-.18s.03-.131.08-.18c.09-.09.26-.09.351.01.05.039.069.109.069.17 0 .07-.02.13-.069.18a.245.245 0 0 1-.181.07zM37.247-14.5a.26.26 0 0 1-.17-.07c-.05-.05-.08-.109-.08-.18s.03-.131.08-.18c.09-.09.25-.09.34 0 .061.049.08.119.08.18s-.02.119-.069.17a.22.22 0 0 1-.181.08zM39.247-16a.26.26 0 0 1-.17-.07c-.05-.05-.08-.109-.08-.18s.03-.131.08-.18c.09-.09.25-.09.351 0 .05.049.069.119.069.18s-.02.119-.069.17a.22.22 0 0 1-.181.08zM41.747-17a.26.26 0 0 1-.17-.07c-.05-.05-.08-.109-.08-.18s.03-.141.08-.18c.09-.09.26-.09.351 0 .05.049.069.109.069.18 0 .061-.02.119-.069.17a.254.254 0 0 1-.181.08zM41.747-21.25c-.06 0-.12-.02-.17-.07-.05-.05-.08-.109-.08-.18s.03-.131.08-.18c.09-.09.26-.09.351 0 .05.049.069.109.069.18 0 .061-.02.13-.069.18a.293.293 0 0 1-.181.07zM43.497-27.25c-.06 0-.12-.03-.17-.07-.05-.05-.08-.109-.08-.18s.03-.131.08-.18c.09-.09.25-.09.351 0 .05.049.069.119.069.18s-.02.13-.069.18a.259.259 0 0 1-.181.07zM50.997-21.5c-.06 0-.12-.03-.17-.07-.05-.05-.08-.109-.08-.18s.03-.131.08-.18c.09-.09.25-.09.351 0 .05.049.069.109.069.18s-.02.13-.069.18a.245.245 0 0 1-.181.07zM51.997-25.5a.26.26 0 0 1-.17-.07c-.05-.05-.08-.109-.08-.18s.03-.131.08-.18c.09-.09.25-.09.351 0 .05.06.069.119.069.18s-.02.119-.069.17a.22.22 0 0 1-.181.08zM54.997-25c-.06 0-.12-.02-.17-.07-.05-.05-.08-.109-.08-.18s.03-.131.08-.18c.09-.09.25-.09.351 0 .05.049.069.119.069.18s-.02.13-.069.18a.245.245 0 0 1-.181.07zM54.997-17.75c-.06 0-.12-.03-.17-.07-.05-.05-.08-.109-.08-.18s.03-.131.08-.18c.09-.09.25-.09.351 0 .05.049.069.119.069.18s-.02.13-.069.18a.245.245 0 0 1-.181.07zM51.247-15.75a.26.26 0 0 1-.17-.07c-.05-.05-.08-.109-.08-.18s.03-.131.08-.18c.09-.09.25-.09.351 0 .05.049.069.109.069.18s-.02.13-.069.18a.293.293 0 0 1-.181.07zM52.247-12.25c-.06 0-.12-.02-.17-.07-.05-.05-.08-.109-.08-.18s.03-.131.08-.18c.09-.09.25-.09.351 0 .05.06.069.119.069.18s-.02.119-.069.17a.22.22 0 0 1-.181.08zM50.997-8.25a.26.26 0 0 1-.17-.07c-.05-.05-.08-.109-.08-.18s.03-.131.08-.18c.09-.09.25-.09.351 0 .05.049.069.119.069.18s-.02.13-.069.17a.22.22 0 0 1-.181.08zM53.247-8.25a.26.26 0 0 1-.17-.07c-.05-.05-.08-.119-.08-.18s.03-.131.07-.17c.1-.1.26-.1.36-.01.05.06.069.119.069.18s-.02.119-.069.17a.25.25 0 0 1-.18.08zM54.997-6.75c-.06 0-.12-.03-.17-.07-.05-.05-.08-.109-.08-.18s.03-.131.08-.18c.09-.09.25-.09.351 0 .05.049.069.119.069.18s-.02.13-.069.18a.245.245 0 0 1-.181.07zM56.247-7.75c-.06 0-.12-.03-.17-.07-.05-.05-.08-.109-.08-.18s.03-.131.08-.18c.09-.09.25-.09.351 0 .05.049.069.119.069.18 0 .07-.02.13-.069.18a.245.245 0 0 1-.181.07zM56.497-10a.26.26 0 0 1-.17-.07c-.05-.061-.08-.119-.08-.18 0-.07.03-.131.08-.18.07-.08.26-.09.351.01.05.039.069.109.069.17s-.02.119-.069.17a.254.254 0 0 1-.181.08zM58.247-10.5a.26.26 0 0 1-.17-.07c-.05-.05-.08-.119-.08-.18s.03-.131.07-.17c.1-.1.27-.1.36-.01.05.06.069.119.069.18s-.02.119-.069.17a.233.233 0 0 1-.18.08zM20.997-45c-.06 0-.12-.02-.17-.07-.05-.05-.08-.109-.08-.18s.03-.131.08-.18c.101-.09.25-.09.351 0 .05.049.069.119.069.18s-.02.13-.069.18a.259.259 0 0 1-.181.07zM22.747-48a.29.29 0 0 1-.18-.07c-.04-.05-.07-.109-.07-.18s.03-.131.08-.18c.101-.09.26-.09.351 0 .05.049.069.119.069.18s-.02.13-.069.18a.27.27 0 0 1-.181.07zM25.247-47.5c-.06 0-.12-.03-.17-.07-.05-.05-.08-.109-.08-.18s.03-.131.08-.18c.101-.09.25-.09.351 0 .05.049.069.119.069.18s-.02.13-.069.18a.293.293 0 0 1-.181.07zM35.247-48.75c-.06 0-.12-.02-.17-.07-.05-.05-.08-.109-.08-.18s.03-.131.08-.18c.101-.09.25-.09.351 0 .05.049.069.109.069.18s-.029.13-.069.18a.245.245 0 0 1-.181.07zM38.997-47.25c-.06 0-.12-.02-.17-.07-.05-.05-.08-.109-.08-.18s.03-.131.08-.18c.101-.09.25-.09.351 0 .05.049.069.109.069.18s-.029.13-.069.18a.259.259 0 0 1-.181.07zM44.997-42.5c-.06 0-.12-.02-.17-.07-.05-.05-.08-.109-.08-.18s.03-.131.08-.18c.101-.09.25-.09.351 0 .05.049.069.109.069.18s-.02.13-.069.18a.259.259 0 0 1-.181.07zM46.247-43a.26.26 0 0 1-.17-.07c-.05-.05-.08-.109-.08-.18s.03-.131.08-.18c.09-.09.25-.09.34 0 .061.06.08.119.08.18s-.02.119-.069.17a.22.22 0 0 1-.181.08zM55.247-44a.26.26 0 0 1-.17-.07c-.05-.05-.08-.109-.08-.18s.03-.131.08-.18c.09-.09.25-.09.351 0 .05.049.069.119.069.18s-.02.13-.069.18a.293.293 0 0 1-.181.07zM51.247-46.75c-.06 0-.12-.02-.17-.07-.05-.05-.08-.109-.08-.18s.03-.131.08-.18c.09-.09.25-.09.351 0 .05.049.069.109.069.18s-.029.13-.069.18a.245.245 0 0 1-.181.07zM51.997-42.5a.26.26 0 0 1-.17-.07c-.05-.05-.08-.109-.08-.18s.03-.131.08-.18c.09-.09.25-.09.351 0 .05.06.069.119.069.18s-.02.119-.069.17a.22.22 0 0 1-.181.08zM62.497-36.5a.26.26 0 0 1-.17-.07c-.05-.05-.08-.109-.08-.18s.03-.131.08-.18c.08-.08.24-.09.34 0 .061.049.08.119.08.18s-.02.13-.069.18a.259.259 0 0 1-.181.07zM58.247-33.75a.243.243 0 0 1-.17-.07c-.05-.05-.08-.119-.08-.18s.03-.131.07-.17c.1-.1.27-.1.36-.01.05.06.069.119.069.18s-.02.119-.069.17a.233.233 0 0 1-.18.08zM48.997-33a.243.243 0 0 1-.17-.07c-.05-.05-.08-.119-.08-.18s.03-.131.07-.17c.1-.1.26-.1.36-.01.05.06.069.119.069.18s-.02.119-.069.17a.25.25 0 0 1-.18.08zM47.997-30.75c-.06 0-.12-.02-.17-.07-.05-.05-.08-.109-.08-.18s.03-.131.08-.18c.09-.09.24-.09.34 0 .061.049.08.119.08.18s-.02.119-.069.17c-.061.06-.111.08-.181.08zM51.997-29a.252.252 0 0 1-.18-.08.241.241 0 0 1 .01-.35c.09-.09.25-.09.351 0 .05.049.069.119.069.18s-.02.13-.069.18a.293.293 0 0 1-.181.07zM53.497-27a.26.26 0 0 1-.17-.07c-.05-.05-.08-.109-.08-.18s.03-.131.08-.18c.08-.09.25-.09.351 0 .05.049.069.119.069.18s-.02.13-.069.18a.293.293 0 0 1-.181.07zM62.247-24a.26.26 0 0 1-.17-.07c-.05-.05-.08-.119-.08-.18s.03-.131.07-.17c.1-.1.26-.1.36-.01.05.06.069.119.069.18s-.02.119-.069.17a.25.25 0 0 1-.18.08zM64.997-20.25c-.06 0-.12-.03-.17-.07-.05-.05-.08-.109-.08-.18s.03-.141.08-.18c.09-.08.25-.09.351 0 .04.049.069.109.069.18s-.02.13-.069.18a.245.245 0 0 1-.181.07zM66.997-20.25a.26.26 0 0 1-.17-.07c-.05-.05-.08-.109-.08-.18s.03-.131.08-.18c.08-.08.25-.09.351 0 .05.049.069.109.069.18s-.02.13-.069.18a.245.245 0 0 1-.181.07zM69.497-27c-.06 0-.12-.03-.17-.07-.05-.05-.08-.109-.08-.18s.03-.131.08-.18c.09-.09.25-.09.351 0 .05.049.069.109.069.18s-.02.13-.069.18a.245.245 0 0 1-.181.07zM59.997-33c-.06 0-.12-.02-.17-.07-.05-.05-.08-.109-.08-.18s.03-.131.08-.18c.09-.09.25-.09.351 0 .04.049.069.109.069.18s-.029.13-.069.18a.245.245 0 0 1-.181.07zM47.247-24.25a.26.26 0 0 1-.17-.07c-.05-.05-.08-.109-.08-.18s.03-.141.08-.18c.08-.08.25-.09.351 0 .04.049.069.109.069.18s-.02.13-.069.18a.245.245 0 0 1-.181.07zM32.497-25c-.06 0-.12-.03-.17-.07-.05-.05-.08-.109-.08-.18s.03-.131.08-.18c.09-.09.26-.09.351 0 .05.049.069.119.069.18s-.02.13-.069.18a.293.293 0 0 1-.181.07zM36.997-27.5c-.06 0-.12-.03-.17-.07a.267.267 0 0 1-.08-.18c0-.07.03-.131.07-.17.11-.11.26-.1.36-.01.05.049.069.119.069.18s-.02.13-.069.17a.25.25 0 0 1-.18.08zM26.247-34.25c-.06 0-.12-.03-.17-.07-.05-.05-.08-.109-.08-.18s.03-.131.08-.18c.101-.09.25-.09.351 0 .05.049.069.119.069.18s-.02.13-.069.18a.293.293 0 0 1-.181.07zM29.747-36.5c-.06 0-.12-.02-.17-.07-.05-.05-.08-.109-.08-.18s.03-.131.08-.18c.101-.09.25-.09.351 0 .05.049.069.119.069.18s-.02.119-.069.17a.22.22 0 0 1-.181.08zM16.997-43.5c-.06 0-.12-.02-.17-.07a.249.249 0 0 1-.08-.18c0-.061.03-.12.07-.17.11-.11.26-.1.36-.01.05.049.069.119.069.18 0 .07-.02.13-.069.18-.05.05-.11.07-.18.07zM10.497-42.5c-.06 0-.12-.02-.17-.07a.249.249 0 0 1-.08-.18c0-.061.03-.12.07-.17.11-.11.26-.1.36-.01a.271.271 0 0 1 0 .36c-.05.05-.11.07-.18.07zM5.997-40.5c-.06 0-.12-.02-.17-.07a.249.249 0 0 1-.08-.18c0-.061.03-.12.07-.17.12-.11.26-.1.36-.01.05.06.069.119.069.18 0 .07-.02.13-.069.18-.05.05-.11.07-.18.07zM2.497-36.75a.243.243 0 0 1-.17-.07.267.267 0 0 1-.08-.18c0-.07.03-.131.08-.18.08-.09.24-.09.34 0 .061.049.08.109.08.18 0 .061-.02.13-.069.17a.22.22 0 0 1-.181.08zM11.247-35.25a.29.29 0 0 1-.18-.07.309.309 0 0 1-.07-.18c0-.07.03-.131.07-.18.1-.09.25-.09.36 0 .05.049.069.109.069.18s-.02.13-.069.18c-.05.05-.11.07-.18.07zM16.997-30c-.06 0-.12-.02-.17-.07a.249.249 0 0 1-.08-.18c0-.061.03-.131.07-.18.11-.09.26-.09.36 0 .05.049.069.109.069.18s-.029.13-.069.18c-.05.05-.11.07-.18.07zM12.747-36a.26.26 0 0 1-.17-.07.249.249 0 0 1-.08-.18c0-.061.03-.131.07-.17.1-.1.26-.1.36-.01.05.049.069.109.069.18s-.02.13-.069.18a.255.255 0 0 1-.18.07zM26.497-41.75c-.06 0-.12-.02-.17-.07-.05-.05-.08-.109-.08-.18s.03-.131.08-.18c.101-.09.25-.09.351 0 .05.049.069.119.069.18s-.02.13-.069.18a.245.245 0 0 1-.181.07zM37.747-41c-.06 0-.12-.02-.17-.07-.05-.05-.08-.109-.08-.18s.03-.131.08-.18c.101-.09.25-.09.351 0 .05.049.069.109.069.18s-.02.13-.069.18a.259.259 0 0 1-.181.07zM39.497-39.5c-.06 0-.12-.02-.17-.07-.05-.05-.08-.109-.08-.18s.03-.131.08-.18c.08-.09.26-.09.351.01.05.039.069.109.069.17s-.02.13-.069.18a.293.293 0 0 1-.181.07zM27.997-30c-.06 0-.12-.03-.17-.07-.05-.05-.08-.119-.08-.18s.03-.12.07-.17c.11-.1.26-.1.35-.01.061.06.08.119.08.18s-.02.13-.069.17a.22.22 0 0 1-.181.08zM6.497-51.5a.26.26 0 0 1-.17-.07.267.267 0 0 1-.08-.18c0-.07.03-.131.07-.18.1-.09.26-.09.36 0 .05.049.069.109.069.18 0 .061-.02.13-.069.17-.05.06-.11.08-.18.08zM10.247-51.75a.26.26 0 0 1-.17-.07c-.05-.05-.08-.109-.08-.18s.03-.131.07-.18c.1-.09.26-.09.36 0 .05.049.069.109.069.18s-.02.13-.069.18c-.05.05-.11.07-.18.07zM11.747-48.5c-.06 0-.12-.02-.17-.07a.249.249 0 0 1-.08-.18c0-.061.03-.12.07-.17.11-.11.26-.1.36-.01a.271.271 0 0 1 0 .36.255.255 0 0 1-.18.07zM2.997-46.25a.26.26 0 0 1-.17-.07c-.05-.05-.08-.109-.08-.18s.03-.131.07-.18c.1-.09.26-.09.36 0 .05.049.069.109.069.18s-.02.13-.069.18a.255.255 0 0 1-.18.07zM64.247-42.5a.26.26 0 0 1-.17-.07c-.05-.05-.08-.119-.08-.18s.03-.131.07-.17c.1-.1.25-.1.35-.01.061.049.08.119.08.18s-.02.13-.069.17a.22.22 0 0 1-.181.08zM67.497-41.25a.26.26 0 0 1-.17-.07.249.249 0 0 1-.08-.18c0-.061.03-.131.07-.17.1-.1.26-.1.36-.01a.271.271 0 0 1 0 .36c-.05.04-.11.07-.18.07zM69.497-42.25a.26.26 0 0 1-.17-.07c-.05-.05-.08-.109-.08-.18s.03-.131.08-.18c.09-.09.25-.09.351 0 .05.049.069.109.069.18s-.02.13-.069.18a.293.293 0 0 1-.181.07zM7.247-56.25a.252.252 0 0 1-.18-.08c-.04-.04-.07-.1-.07-.17s.03-.131.07-.18c.1-.09.26-.09.36 0 .04.049.069.109.069.18s-.029.13-.069.18c-.05.04-.11.07-.18.07zM1.497-63c-.06 0-.13-.03-.18-.07-.04-.05-.07-.109-.07-.18s.03-.131.07-.18c.09-.09.26-.09.36 0 .05.049.069.119.069.18s-.02.13-.069.18c-.05.04-.11.07-.18.07zM14.497-65.5c-.06 0-.12-.02-.17-.07a.249.249 0 0 1-.08-.18.254.254 0 0 1 .43-.18c.05.049.069.109.069.18s-.02.13-.069.18c-.05.05-.11.07-.18.07zM8.497-66.75c-.06 0-.12-.02-.17-.07-.05-.05-.08-.109-.08-.18s.03-.131.07-.18c.1-.09.27-.09.36.01.05.039.069.1.069.17 0 .061-.02.13-.069.18-.05.05-.11.07-.18.07zM3.497-69.5a.252.252 0 0 1-.18-.08.241.241 0 0 1 .01-.35c.08-.09.25-.09.351 0 .04.049.069.109.069.18s-.029.13-.069.18a.293.293 0 0 1-.181.07zM3.747-66a.26.26 0 0 1-.17-.07.249.249 0 0 1-.08-.18c0-.061.03-.131.07-.18.09-.09.26-.09.36 0 .05.049.069.109.069.18s-.02.13-.069.18a.255.255 0 0 1-.18.07zM12.747-57.75a.26.26 0 0 1-.17-.07.267.267 0 0 1-.08-.18c0-.07.03-.131.07-.18.1-.09.26-.09.36 0 .05.049.069.109.069.18 0 .061-.02.13-.069.17-.05.06-.11.08-.18.08zM18.497-52.75c-.06 0-.12-.02-.17-.07a.249.249 0 0 1-.08-.18.254.254 0 0 1 .43-.18c.05.06.069.119.069.18 0 .07-.02.13-.069.18-.05.04-.11.07-.18.07zM21.247-35c-.06 0-.12-.02-.17-.07a.267.267 0 0 1-.08-.18c0-.07.03-.131.07-.18.11-.09.26-.09.36 0 .05.049.069.109.069.18 0 .061-.02.13-.069.17-.05.06-.11.08-.18.08zM.747-27.75a.26.26 0 0 1-.17-.07c-.05-.05-.08-.109-.08-.18s.03-.131.08-.18c.07-.08.25-.09.351.01.04.039.069.1.069.17s-.029.13-.069.18a.293.293 0 0 1-.181.07zM66.497-34.75a.26.26 0 0 1-.17-.07c-.05-.05-.08-.109-.08-.18s.03-.131.08-.18c.09-.09.25-.09.351 0 .05.049.069.119.069.18s-.02.13-.069.18a.293.293 0 0 1-.181.07zM67.997-6a.26.26 0 0 1-.17-.07.267.267 0 0 1-.08-.18c0-.07.03-.131.07-.18.1-.09.26-.09.36 0 .05.049.069.119.069.18s-.02.119-.069.17a.25.25 0 0 1-.18.08zM59.747-2.25a.252.252 0 0 1-.18-.08.241.241 0 0 1 .01-.35c.09-.09.25-.09.351 0 .05.049.069.119.069.18 0 .07-.02.13-.069.18a.293.293 0 0 1-.181.07zM40.497-4c-.06 0-.12-.02-.17-.07-.05-.05-.08-.109-.08-.18s.03-.131.08-.18c.09-.09.25-.09.351 0 .05.049.069.119.069.18s-.02.13-.069.18a.259.259 0 0 1-.181.07zM43.997-9c-.06 0-.12-.02-.17-.07-.05-.04-.08-.109-.08-.18s.03-.131.08-.18c.09-.09.25-.09.351 0 .05.049.069.119.069.18 0 .07-.02.13-.069.18a.245.245 0 0 1-.181.07zM25.747-2c-.06 0-.12-.02-.17-.07-.05-.05-.08-.109-.08-.18s.03-.131.08-.18c.09-.09.25-.09.351 0 .05.049.069.109.069.18 0 .061-.02.119-.069.17a.22.22 0 0 1-.181.08zM4.497-12c-.06 0-.12-.02-.17-.07a.249.249 0 0 1-.08-.18.254.254 0 0 1 .43-.18.271.271 0 0 1 0 .36.255.255 0 0 1-.18.07zM26.497-12.5c-.06 0-.12-.02-.17-.07-.05-.05-.08-.109-.08-.18s.03-.131.08-.18c.101-.09.25-.09.351 0 .05.049.069.109.069.18 0 .061-.02.13-.069.18a.245.245 0 0 1-.181.07zM37.247-23.5c-.06 0-.12-.03-.17-.07-.05-.05-.08-.109-.08-.18s.03-.131.08-.18c.09-.09.24-.09.34 0 .061.049.08.119.08.18s-.02.13-.069.18a.277.277 0 0 1-.181.07zM21.997-30.25c-.06 0-.12-.02-.17-.07-.05-.05-.08-.109-.08-.18s.03-.131.08-.18c.101-.09.25-.09.351 0 .05.049.069.119.069.18s-.02.13-.069.18a.259.259 0 0 1-.181.07zM8.747-31.75a.26.26 0 0 1-.17-.07.267.267 0 0 1-.08-.18c0-.07.03-.131.08-.18.09-.09.25-.09.351 0 .04.049.069.109.069.18s-.02.13-.069.18a.245.245 0 0 1-.181.07zM23.997-43c-.06 0-.12-.02-.17-.07-.05-.05-.08-.109-.08-.18s.03-.131.08-.18c.101-.09.25-.09.351 0 .05.049.069.119.069.18s-.02.119-.069.17a.22.22 0 0 1-.181.08zM41.497-37.5a.26.26 0 0 1-.17-.07c-.05-.05-.08-.109-.08-.18s.03-.131.08-.18c.09-.09.25-.09.34 0 .061.06.08.119.08.18s-.02.119-.069.17a.22.22 0 0 1-.181.08zM51.497-34.5a.26.26 0 0 1-.17-.07c-.05-.05-.08-.109-.08-.18s.03-.131.08-.18c.09-.09.25-.09.351 0 .05.049.069.119.069.18s-.02.13-.069.17a.22.22 0 0 1-.181.08zM60.747-26c-.06 0-.12-.03-.17-.07-.05-.05-.08-.109-.08-.18s.03-.141.08-.18c.09-.09.25-.09.351 0 .05.049.069.109.069.18s-.02.13-.069.18a.293.293 0 0 1-.181.07zM67.497-28.25a.26.26 0 0 1-.17-.07c-.05-.05-.08-.109-.08-.18s.03-.131.08-.18c.08-.08.25-.09.351 0 .05.049.069.119.069.18s-.02.13-.069.18a.293.293 0 0 1-.181.07zM51.247-5.75c-.06 0-.12-.02-.17-.07-.05-.05-.08-.109-.08-.18s.03-.131.08-.18c.09-.09.25-.09.351 0 .05.049.069.109.069.18s-.029.13-.069.18a.245.245 0 0 1-.181.07zM39.997-34.25a.26.26 0 0 1-.17-.07c-.05-.05-.08-.109-.08-.18s.03-.131.08-.18c.09-.09.26-.09.351 0 .05.049.069.119.069.18s-.02.119-.069.17a.254.254 0 0 1-.181.08zM53.247-57a.26.26 0 0 1-.17-.07c-.05-.05-.08-.109-.08-.18s.03-.131.08-.18c.07-.08.26-.09.351.01.05.039.069.109.069.17s-.02.13-.069.18a.293.293 0 0 1-.181.07zM33.997-56a.252.252 0 0 1-.18-.08c-.04-.04-.07-.1-.07-.17s.03-.141.08-.18c.09-.09.26-.09.351 0 .05.049.069.109.069.18 0 .061-.02.13-.069.18a.293.293 0 0 1-.181.07zM27.497-58.5c-.06 0-.12-.02-.17-.07-.05-.05-.08-.109-.08-.18s.03-.131.07-.17c.11-.11.26-.1.36-.01.05.049.069.119.069.18 0 .07-.02.13-.069.18-.05.05-.11.07-.18.07zM12.747-52.75a.26.26 0 0 1-.17-.07.249.249 0 0 1-.08-.18c0-.061.03-.12.07-.17.1-.1.26-.1.36-.01.05.049.069.119.069.18 0 .07-.02.13-.069.18-.05.05-.11.07-.18.07zM19.747-45.5c-.06 0-.12-.02-.17-.07a.249.249 0 0 1-.08-.18c0-.061.03-.12.07-.17.11-.11.26-.1.36-.01.05.049.069.119.069.18 0 .07-.02.13-.069.18a.255.255 0 0 1-.18.07zM49.497-67.5a.26.26 0 0 1-.17-.07c-.05-.04-.08-.109-.08-.18s.03-.141.08-.18c.08-.08.25-.09.351 0 .05.049.069.119.069.18s-.02.13-.069.18a.293.293 0 0 1-.181.07zM11.747-70.25c-.06 0-.12-.02-.17-.07a.249.249 0 0 1-.08-.18c0-.061.03-.131.07-.18.1-.09.27-.09.36 0 .05.049.069.119.069.18s-.02.13-.069.18c-.05.05-.11.07-.18.07zM55.247-68.25a.26.26 0 0 1-.17-.07c-.05-.05-.08-.109-.08-.18s.03-.131.08-.18c.08-.09.25-.09.351 0 .05.049.069.119.069.18s-.02.13-.069.18a.293.293 0 0 1-.181.07zM58.997-51.25a.26.26 0 0 1-.17-.07c-.05-.05-.08-.109-.08-.18s.03-.131.08-.18c.08-.09.25-.09.351 0 .05.06.069.119.069.18s-.02.119-.069.17a.22.22 0 0 1-.181.08zM67.497-14.75a.26.26 0 0 1-.17-.07.267.267 0 0 1-.08-.18c0-.07.03-.131.08-.18.09-.09.25-.09.351 0 .05.049.069.119.069.18s-.02.119-.069.17a.254.254 0 0 1-.181.08zM47.247-2.25a.26.26 0 0 1-.17-.07c-.05-.04-.08-.109-.08-.18s.03-.141.08-.18c.08-.08.25-.09.351 0 .04.049.069.109.069.18s-.029.13-.069.18a.245.245 0 0 1-.181.07zM5.247-2.25a.26.26 0 0 1-.17-.07.249.249 0 0 1-.08-.18c0-.061.03-.12.07-.17.1-.1.26-.1.36-.01.05.049.069.119.069.18 0 .07-.02.13-.069.18a.255.255 0 0 1-.18.07zM4.747-31.75c-.06 0-.13-.03-.18-.07-.04-.05-.07-.109-.07-.18s.03-.131.07-.18c.09-.09.26-.09.36 0 .05.049.069.119.069.18s-.02.13-.069.18c-.05.04-.11.07-.18.07zM69.747-59.25a.243.243 0 0 1-.17-.07c-.05-.05-.08-.109-.08-.18s.03-.131.08-.18c.09-.09.25-.09.351 0 .05.049.069.119.069.18s-.02.13-.069.18a.293.293 0 0 1-.181.07zM23.247-58c-.06 0-.12-.02-.17-.07-.05-.05-.08-.109-.08-.18s.03-.131.07-.17c.11-.11.26-.1.36-.01a.271.271 0 0 1 0 .36c-.05.05-.11.07-.18.07zM20.497-54.75a.26.26 0 0 1-.17-.07c-.05-.04-.08-.109-.08-.18s.03-.141.08-.18c.07-.08.26-.09.351.01.05.039.069.109.069.17s-.02.13-.069.18a.293.293 0 0 1-.181.07zM14.747-54.75c-.06 0-.12-.02-.17-.07a.249.249 0 0 1-.08-.18c0-.061.03-.131.07-.18.11-.09.26-.09.36 0 .05.049.069.119.069.18s-.02.13-.069.18c-.05.05-.11.07-.18.07zM2.747-58.75a.243.243 0 0 1-.17-.07.267.267 0 0 1-.08-.18c0-.07.03-.131.08-.18.09-.09.25-.09.351 0 .04.049.069.109.069.18s-.02.13-.069.18a.293.293 0 0 1-.181.07zM5.997-60.25c-.06 0-.12-.02-.17-.07a.267.267 0 0 1-.08-.18c0-.07.03-.131.07-.18.12-.101.26-.09.36 0 .05.049.069.109.069.18 0 .061-.02.119-.069.17-.05.06-.11.08-.18.08zM6.997-69.25c-.06 0-.12-.02-.17-.07a.267.267 0 0 1-.08-.18c0-.07.03-.131.07-.18.11-.09.26-.09.36 0 .05.049.069.119.069.18s-.02.119-.069.17c-.05.06-.11.08-.18.08zM9.997-63.75a.29.29 0 0 1-.18-.07.309.309 0 0 1-.07-.18c0-.07.03-.131.07-.18.09-.09.26-.09.36 0 .05.049.069.109.069.18 0 .061-.02.13-.069.17-.05.06-.11.08-.18.08zM15.997-63.75c-.06 0-.13-.03-.18-.07-.04-.05-.07-.109-.07-.18s.03-.131.08-.18c.101-.09.25-.09.351 0 .05.049.069.119.069.18s-.02.13-.069.18a.293.293 0 0 1-.181.07zM16.497-68.75c-.06 0-.12-.02-.17-.07-.05-.05-.08-.109-.08-.18s.03-.131.07-.18c.11-.101.26-.09.36 0 .05.049.069.109.069.18s-.02.13-.069.18a.255.255 0 0 1-.18.07zM25.747-65c-.06 0-.12-.02-.17-.07-.05-.05-.08-.109-.08-.18s.03-.131.08-.18c.101-.09.25-.09.351 0 .05.049.069.119.069.18s-.02.13-.069.18a.245.245 0 0 1-.181.07zM36.997-64.5c-.06 0-.12-.02-.17-.07-.05-.05-.08-.109-.08-.18s.03-.131.08-.18c.09-.09.26-.09.351 0 .05.049.069.109.069.18s-.02.13-.069.18a.259.259 0 0 1-.181.07zM40.497-67.5a.26.26 0 0 1-.17-.07c-.05-.04-.08-.109-.08-.18s.03-.131.08-.18c.09-.09.25-.09.351 0 .05.06.069.119.069.18 0 .07-.02.13-.069.18a.293.293 0 0 1-.181.07zM37.497-67.75a.26.26 0 0 1-.17-.07c-.05-.04-.08-.109-.08-.18s.03-.131.08-.18c.08-.09.25-.09.351 0a.271.271 0 0 1 0 .36.245.245 0 0 1-.181.07zM43.247-69.75a.252.252 0 0 1-.18-.08.241.241 0 0 1 .01-.35c.09-.09.25-.09.351 0 .05.049.069.119.069.18s-.02.13-.069.18a.293.293 0 0 1-.181.07zM49.497-63.75a.26.26 0 0 1-.17-.07c-.05-.04-.08-.109-.08-.18s.03-.141.08-.18c.08-.09.25-.09.351 0 .05.049.069.119.069.18s-.02.13-.069.18a.293.293 0 0 1-.181.07zM45.997-62.75a.26.26 0 0 1-.17-.07c-.05-.05-.08-.109-.08-.18s.03-.131.08-.18c.08-.08.25-.09.351 0 .05.049.069.119.069.18s-.02.13-.069.18a.293.293 0 0 1-.181.07zM35.747-61a.26.26 0 0 1-.17-.07c-.05-.05-.08-.109-.08-.18s.03-.131.08-.18c.09-.09.25-.09.351 0 .05.049.069.119.069.18s-.02.13-.069.18a.293.293 0 0 1-.181.07zM39.247-57c-.06 0-.12-.02-.17-.07-.05-.05-.08-.109-.08-.18s.03-.131.08-.18c.09-.09.25-.09.351 0a.271.271 0 0 1 0 .36.245.245 0 0 1-.181.07zM24.747-54c-.06 0-.12-.02-.17-.07-.05-.05-.08-.109-.08-.18s.03-.131.07-.18c.1-.09.27-.09.36 0 .05.049.069.109.069.18s-.02.13-.069.18c-.05.05-.11.07-.18.07zM8.247-44.75c-.06 0-.12-.02-.17-.07-.05-.05-.08-.109-.08-.18s.03-.131.07-.18c.12-.101.26-.09.36 0 .05.049.069.119.069.18 0 .07-.02.13-.069.18-.05.04-.11.07-.18.07zM15.997-40.25c-.06 0-.13-.03-.18-.07-.04-.05-.07-.109-.07-.18s.03-.131.08-.18c.101-.09.25-.09.351 0 .05.049.069.119.069.18s-.02.13-.069.18a.293.293 0 0 1-.181.07zM10.497-38.5c-.06 0-.12-.02-.17-.07a.267.267 0 0 1-.08-.18c0-.07.03-.131.07-.18.11-.101.26-.09.36 0 .05.049.069.119.069.18s-.02.119-.069.17c-.05.06-.11.08-.18.08zM5.247-35a.26.26 0 0 1-.17-.07.249.249 0 0 1-.08-.18c0-.061.03-.12.07-.17.1-.1.26-.1.36-.01.05.049.069.119.069.18 0 .07-.02.13-.069.18a.255.255 0 0 1-.18.07zM2.747-40a.26.26 0 0 1-.17-.07.267.267 0 0 1-.08-.18c0-.07.03-.131.08-.18.09-.09.25-.09.351 0 .04.049.069.109.069.18s-.02.13-.069.18a.293.293 0 0 1-.181.07zM7.497-47a.29.29 0 0 1-.18-.07c-.04-.05-.07-.109-.07-.18s.03-.131.07-.18c.11-.09.25-.09.35 0 .061.049.08.119.08.18s-.02.13-.069.18a.293.293 0 0 1-.181.07zM3.247-51.5a.26.26 0 0 1-.17-.07.249.249 0 0 1-.08-.18c0-.061.03-.131.07-.17.1-.1.26-.1.36-.01.05.049.069.119.069.18 0 .07-.02.13-.069.18a.255.255 0 0 1-.18.07zM20.497-41.25a.26.26 0 0 1-.17-.07c-.05-.05-.08-.109-.08-.18s.03-.131.08-.18c.09-.09.25-.09.351 0 .05.06.069.119.069.18s-.02.119-.069.17a.254.254 0 0 1-.181.08zM17.497-36.5c-.06 0-.12-.03-.17-.07-.05-.061-.08-.119-.08-.18 0-.07.03-.131.07-.18.11-.09.26-.09.36 0 .05.049.069.109.069.18 0 .061-.02.13-.069.17a.25.25 0 0 1-.18.08zM15.997-33c-.06 0-.12-.02-.17-.07-.05-.05-.08-.109-.08-.18s.03-.131.08-.18c.09-.09.25-.09.351 0 .05.049.069.119.069.18s-.02.13-.069.18a.259.259 0 0 1-.181.07zM12.747-30.75a.26.26 0 0 1-.17-.07.249.249 0 0 1-.08-.18c0-.061.03-.131.07-.18.1-.09.26-.09.36 0 .05.049.069.109.069.18s-.02.13-.069.18c-.05.04-.11.07-.18.07zM12.747-25.5a.243.243 0 0 1-.17-.07.267.267 0 0 1-.08-.18c0-.07.03-.131.07-.18.1-.09.26-.09.36 0 .05.049.069.109.069.18s-.02.13-.069.18c-.05.05-.11.07-.18.07zM3.997-25.25a.26.26 0 0 1-.17-.07.249.249 0 0 1-.08-.18c0-.061.03-.131.07-.18.1-.09.26-.09.35 0 .061.049.08.119.08.18 0 .07-.02.13-.069.18a.259.259 0 0 1-.181.07zM5.747-23.5a.252.252 0 0 1-.18-.08c-.04-.04-.07-.1-.07-.17s.03-.131.07-.18c.1-.09.26-.09.36 0 .05.049.069.109.069.18s-.02.13-.069.18c-.05.04-.11.07-.18.07zM10.997-21.5c-.06 0-.12-.02-.17-.07a.249.249 0 0 1-.08-.18.254.254 0 0 1 .43-.18.271.271 0 0 1 0 .36.255.255 0 0 1-.18.07zM10.997-17.5c-.06 0-.13-.03-.18-.07-.04-.05-.07-.109-.07-.18s.03-.131.07-.18c.11-.09.26-.09.36 0 .05.049.069.119.069.18s-.02.13-.069.18c-.05.04-.11.07-.18.07zM15.497-13.5c-.06 0-.12-.03-.17-.07-.05-.05-.08-.109-.08-.18s.03-.131.07-.18c.11-.09.26-.09.36 0 .05.049.069.119.069.18s-.02.13-.069.18c-.05.04-.11.07-.18.07zM9.997-12.25a.29.29 0 0 1-.18-.07.309.309 0 0 1-.07-.18c0-.07.03-.131.07-.18.1-.09.25-.09.36 0 .05.049.069.109.069.18 0 .061-.02.13-.069.18-.05.05-.11.07-.18.07zM5.997-8.5c-.06 0-.12-.02-.17-.07a.267.267 0 0 1-.08-.18c0-.07.03-.131.07-.18.12-.101.26-.09.36 0 .05.049.069.109.069.18 0 .061-.02.119-.069.17-.05.06-.11.08-.18.08zM2.247-10c-.06 0-.12-.02-.17-.07-.05-.05-.08-.109-.08-.18s.03-.131.07-.18c.11-.09.25-.09.35 0 .061.049.08.119.08.18s-.02.13-.069.18a.277.277 0 0 1-.181.07zM7.247-4.25a.26.26 0 0 1-.17-.07.267.267 0 0 1-.08-.18c0-.07.03-.131.07-.18.1-.09.26-.09.36 0 .041.049.07.11.07.18s-.02.13-.069.17a.22.22 0 0 1-.181.08zM13.497-2.5c-.06 0-.12-.02-.17-.07a.267.267 0 0 1-.08-.18c0-.07.03-.131.07-.18.11-.09.26-.09.36 0 .05.049.069.119.069.18s-.02.119-.069.17c-.05.06-.11.08-.18.08zM13.497-6.25c-.06 0-.12-.02-.17-.07a.249.249 0 0 1-.08-.18.254.254 0 0 1 .43-.18.271.271 0 0 1 0 .36c-.05.05-.11.07-.18.07zM21.497-3.5c-.06 0-.12-.02-.17-.07-.05-.05-.08-.109-.08-.18s.03-.131.08-.18c.09-.09.25-.09.351 0 .05.049.069.119.069.18s-.02.119-.069.17a.22.22 0 0 1-.181.08zM22.997-6.25c-.06 0-.12-.02-.17-.07a.249.249 0 0 1-.08-.18c0-.061.03-.12.07-.17.11-.11.26-.1.36-.01.05.049.069.119.069.18 0 .07-.02.13-.069.18-.05.05-.11.07-.18.07zM22.247-12c-.06 0-.12-.02-.17-.07a.249.249 0 0 1-.08-.18c0-.061.03-.12.07-.17.11-.11.26-.1.36-.01.05.049.069.119.069.18 0 .07-.02.13-.069.18a.255.255 0 0 1-.18.07zM24.247-14.5c-.06 0-.12-.02-.17-.07-.05-.05-.08-.109-.08-.18s.03-.131.08-.18c.101-.09.25-.09.351 0 .05.049.069.119.069.18s-.02.13-.069.18a.245.245 0 0 1-.181.07zM21.997-18.75c-.06 0-.12-.02-.17-.07-.05-.05-.08-.109-.08-.18s.03-.131.07-.17c.11-.11.26-.1.36-.01a.271.271 0 0 1 0 .36c-.05.05-.11.07-.18.07zM26.247-24.25c-.06 0-.12-.02-.17-.07-.05-.05-.08-.109-.08-.18s.03-.131.08-.18c.09-.09.25-.09.351 0 .05.049.069.119.069.18s-.02.13-.069.18a.245.245 0 0 1-.181.07zM25.747-28.5c-.06 0-.12-.02-.17-.07-.05-.05-.08-.109-.08-.18s.03-.131.07-.18c.11-.09.26-.09.36 0 .05.06.069.119.069.18 0 .07-.02.13-.069.18-.05.05-.11.07-.18.07zM31.247-34.5c-.06 0-.12-.03-.17-.07-.05-.05-.08-.119-.08-.18s.03-.131.07-.17c.11-.11.26-.1.36-.01.05.06.069.119.069.18s-.02.119-.069.17a.25.25 0 0 1-.18.08zM32.247-41c-.06 0-.12-.02-.17-.07a.249.249 0 0 1-.08-.18c0-.061.03-.12.07-.17.11-.11.26-.1.36-.01.05.049.069.119.069.18 0 .07-.029.13-.069.18-.05.05-.11.07-.18.07zM25.997-38c-.06 0-.12-.02-.17-.07-.05-.05-.08-.109-.08-.18s.03-.131.08-.18c.101-.09.25-.09.351 0 .05.049.069.119.069.18s-.02.13-.069.18a.245.245 0 0 1-.181.07zM34.247-44.25a.26.26 0 0 1-.17-.07c-.05-.05-.08-.109-.08-.18s.03-.131.08-.18c.09-.09.25-.09.351 0a.271.271 0 0 1 0 .36.293.293 0 0 1-.181.07zM37.247-43.5a.26.26 0 0 1-.17-.07c-.05-.05-.08-.109-.08-.18s.03-.131.08-.18c.09-.09.25-.09.34 0 .061.049.08.119.08.18s-.02.119-.069.17a.22.22 0 0 1-.181.08zM41.747-46.25c-.06 0-.12-.03-.17-.07-.05-.05-.08-.109-.08-.18s.03-.131.08-.18c.09-.09.26-.09.351 0 .05.06.069.119.069.18s-.02.119-.069.17a.254.254 0 0 1-.181.08zM42.997-51.25c-.06 0-.12-.02-.17-.07-.05-.05-.08-.109-.08-.18s.03-.131.08-.18c.09-.09.25-.09.351 0 .05.049.069.119.069.18s-.02.13-.069.18a.259.259 0 0 1-.181.07zM36.497-52.75a.26.26 0 0 1-.17-.07c-.05-.04-.08-.109-.08-.18s.03-.141.08-.18c.08-.08.25-.09.351 0 .05.049.069.119.069.18s-.02.13-.069.18a.245.245 0 0 1-.181.07zM27.747-49.75c-.06 0-.12-.03-.17-.07-.05-.05-.08-.119-.08-.18s.03-.131.07-.17c.11-.11.26-.1.36-.01.05.049.069.109.069.18s-.02.13-.069.18c-.05.04-.11.07-.18.07zM51.997-50a.26.26 0 0 1-.17-.07c-.05-.05-.08-.109-.08-.18s.03-.131.08-.18c.09-.09.25-.09.351 0 .05.06.069.119.069.18s-.02.119-.069.17a.254.254 0 0 1-.181.08zM43.247-54.25a.26.26 0 0 1-.17-.07.249.249 0 0 1-.08-.18c0-.061.03-.131.07-.18.11-.09.26-.09.36 0 .05.06.069.119.069.18s-.02.119-.069.17c-.05.06-.11.08-.18.08zM50.497-54a.26.26 0 0 1-.17-.07c-.05-.05-.08-.109-.08-.18s.03-.131.08-.18c.08-.09.25-.09.351 0 .05.06.069.119.069.18s-.02.119-.069.17a.254.254 0 0 1-.181.08zM59.497-54.75a.26.26 0 0 1-.17-.07c-.05-.05-.08-.109-.08-.18s.03-.131.08-.18c.08-.09.25-.09.351 0 .05.049.069.119.069.18s-.02.13-.069.18a.293.293 0 0 1-.181.07zM58.247-58a.26.26 0 0 1-.17-.07c-.05-.05-.08-.109-.08-.18s.03-.131.08-.18c.08-.09.26-.09.351 0 .05.049.069.109.069.18 0 .061-.02.13-.069.18a.293.293 0 0 1-.181.07zM61.497-61c-.06 0-.12-.02-.17-.07-.05-.05-.08-.109-.08-.18s.03-.141.08-.18c.09-.09.25-.09.351 0 .04.049.069.109.069.18s-.029.13-.069.18a.245.245 0 0 1-.181.07zM58.747-64.5c-.06 0-.12-.02-.17-.07-.05-.05-.08-.109-.08-.18s.03-.131.08-.18c.09-.09.25-.09.351 0 .05.049.069.109.069.18s-.02.13-.069.18a.245.245 0 0 1-.181.07zM59.997-67.25a.26.26 0 0 1-.17-.07c-.05-.05-.08-.109-.08-.18s.03-.131.07-.18c.11-.09.26-.09.36 0 .05.049.069.109.069.18s-.02.13-.069.17c-.05.06-.11.08-.18.08zM67.497-66a.26.26 0 0 1-.17-.07c-.05-.05-.08-.119-.08-.18s.03-.131.07-.17c.1-.1.26-.1.36-.01.05.06.069.119.069.18s-.02.119-.069.17a.25.25 0 0 1-.18.08zM69.497-64c-.06 0-.12-.03-.17-.07a.249.249 0 0 1-.08-.18c0-.061.03-.131.07-.18.11-.09.26-.09.36 0 .05.049.069.119.069.18 0 .07-.02.13-.069.18-.05.05-.11.07-.18.07zM65.747-62.25a.26.26 0 0 1-.17-.07c-.05-.05-.08-.109-.08-.18s.03-.131.08-.18c.08-.09.26-.09.351 0 .05.049.069.119.069.18s-.02.13-.069.18a.293.293 0 0 1-.181.07zM61.747-55.5a.26.26 0 0 1-.17-.07c-.05-.05-.08-.109-.08-.18s.03-.131.08-.18c.09-.09.25-.09.351 0 .05.049.069.119.069.18s-.02.13-.069.17a.22.22 0 0 1-.181.08zM60.247-48.25c-.06 0-.12-.03-.17-.07-.05-.05-.08-.109-.08-.18s.03-.131.08-.18c.09-.09.25-.09.351 0 .04.049.069.109.069.18s-.02.13-.069.18a.245.245 0 0 1-.181.07zM55.497-48.25a.26.26 0 0 1-.17-.07c-.05-.05-.08-.119-.08-.18s.03-.131.08-.18c.09-.09.25-.09.351 0 .05.049.069.119.069.18s-.02.13-.069.18a.293.293 0 0 1-.181.07zM55.497-53.25a.26.26 0 0 1-.17-.07c-.05-.05-.08-.119-.08-.18s.03-.131.08-.18c.09-.09.25-.09.351 0 .05.049.069.119.069.18s-.02.13-.069.18a.293.293 0 0 1-.181.07zM64.997-46.25c-.06 0-.12-.03-.17-.07-.05-.05-.08-.109-.08-.18s.03-.131.08-.18c.09-.09.25-.09.351 0 .05.049.069.119.069.18 0 .07-.02.13-.069.18a.245.245 0 0 1-.181.07zM61.247-45a.26.26 0 0 1-.17-.07c-.05-.05-.08-.109-.08-.18s.03-.131.08-.18c.09-.09.25-.09.351 0 .05.049.069.109.069.18s-.029.13-.069.18a.293.293 0 0 1-.181.07zM57.747-41.25c-.06 0-.12-.02-.17-.07-.05-.05-.08-.109-.08-.18s.03-.131.08-.18c.09-.09.25-.09.351 0 .05.049.069.109.069.18s-.02.13-.069.17a.22.22 0 0 1-.181.08zM52.747-39.25a.26.26 0 0 1-.17-.07c-.05-.05-.08-.109-.08-.18s.03-.131.08-.18c.09-.09.25-.09.351 0 .05.049.069.119.069.18s-.02.13-.069.17a.22.22 0 0 1-.181.08zM47.497-38.25c-.06 0-.12-.03-.17-.07-.05-.05-.08-.109-.08-.18s.03-.131.08-.18c.09-.09.25-.09.34 0 .061.06.08.119.08.18s-.02.119-.069.17c-.061.06-.111.08-.181.08zM44.247-32.75c-.06 0-.12-.03-.17-.07-.05-.05-.08-.109-.08-.18s.03-.131.08-.18c.09-.09.25-.09.351 0 .05.049.069.109.069.18s-.02.13-.069.18a.259.259 0 0 1-.181.07zM33.997-30.5c-.06 0-.12-.02-.17-.07-.05-.05-.08-.109-.08-.18s.03-.131.08-.18c.09-.09.25-.09.351 0 .05.049.069.119.069.18s-.02.13-.069.18a.293.293 0 0 1-.181.07zM40.747-24c-.06 0-.12-.02-.17-.07-.05-.05-.08-.109-.08-.18s.03-.131.08-.18c.101-.09.25-.09.351 0 .04.049.069.109.069.18s-.029.13-.069.18a.245.245 0 0 1-.181.07zM45.747-19.75c-.06 0-.12-.02-.17-.07-.05-.05-.08-.109-.08-.18s.03-.131.08-.18c.09-.09.25-.09.351 0 .05.049.069.109.069.18s-.029.13-.069.18a.245.245 0 0 1-.181.07zM46.497-15.25c-.06 0-.12-.03-.17-.07-.05-.05-.08-.109-.08-.18s.03-.131.08-.18c.09-.09.25-.09.351 0 .05.049.069.119.069.18s-.02.13-.069.17a.22.22 0 0 1-.181.08zM41.997-12.5c-.06 0-.12-.02-.17-.07-.05-.05-.08-.109-.08-.18s.03-.131.08-.18c.101-.09.25-.09.351 0 .04.049.069.109.069.18s-.02.13-.069.18a.259.259 0 0 1-.181.07zM39.997-9.25c-.06 0-.12-.03-.17-.07-.05-.05-.08-.109-.08-.18s.03-.141.08-.18c.09-.09.26-.09.351 0 .05.049.069.109.069.18 0 .061-.02.13-.069.18a.293.293 0 0 1-.181.07zM35.997-9.25c-.06 0-.12-.02-.17-.07-.05-.05-.08-.109-.08-.18s.03-.131.08-.18c.101-.09.26-.09.351 0a.271.271 0 0 1 0 .36.293.293 0 0 1-.181.07zM36.497-19.25a.243.243 0 0 1-.17-.07c-.05-.05-.08-.109-.08-.18s.03-.131.08-.18c.09-.09.25-.09.351 0 .05.06.069.119.069.18s-.02.119-.069.17a.254.254 0 0 1-.181.08zM29.997-8.5a.26.26 0 0 1-.17-.07c-.05-.05-.08-.109-.08-.18s.03-.131.08-.18c.09-.09.25-.09.351 0 .05.049.069.119.069.18s-.02.13-.069.17a.254.254 0 0 1-.181.08zM31.497-3.5a.252.252 0 0 1-.18-.08c-.04-.04-.07-.1-.07-.17s.03-.141.08-.18c.09-.08.25-.09.34 0 .061.049.08.109.08.18 0 .061-.02.13-.069.18a.293.293 0 0 1-.181.07zM36.997-1c-.06 0-.12-.02-.17-.07-.05-.05-.08-.109-.08-.18s.03-.131.08-.18c.101-.09.25-.09.351 0 .05.049.069.109.069.18s-.02.13-.069.18a.245.245 0 0 1-.181.07zM58.747-15c-.06 0-.12-.02-.17-.07-.05-.05-.08-.109-.08-.18s.03-.131.08-.18c.09-.09.25-.09.351 0 .05.049.069.109.069.18s-.02.13-.069.18a.245.245 0 0 1-.181.07zM62.997-15c-.06 0-.12-.03-.17-.07-.05-.05-.08-.109-.08-.18s.03-.131.08-.18c.09-.09.25-.09.351 0 .05.049.069.109.069.18s-.02.13-.069.17a.22.22 0 0 1-.181.08zM59.997-21.25c-.06 0-.12-.03-.17-.07-.05-.05-.08-.109-.08-.18s.03-.141.08-.18c.09-.09.25-.09.351 0 .04.049.069.109.069.18s-.02.13-.069.18a.293.293 0 0 1-.181.07zM54.497-21.5a.243.243 0 0 1-.17-.07c-.05-.05-.08-.119-.08-.18s.03-.131.07-.17c.1-.1.26-.1.36-.01.05.06.069.119.069.18s-.02.119-.069.17a.25.25 0 0 1-.18.08zM59.247-27.75a.26.26 0 0 1-.17-.07c-.05-.05-.08-.119-.08-.18s.03-.131.07-.17c.1-.1.27-.1.36-.01.05.06.069.119.069.18s-.02.119-.069.17a.233.233 0 0 1-.18.08zM54.747-30.25a.26.26 0 0 1-.17-.07c-.05-.05-.08-.119-.08-.18s.03-.131.08-.18c.08-.09.25-.09.351 0 .05.049.069.119.069.18s-.02.13-.069.18a.293.293 0 0 1-.181.07zM55.747-36.5c-.06 0-.12-.02-.17-.07-.05-.05-.08-.109-.08-.18s.03-.131.08-.18c.09-.09.25-.09.351 0 .05.049.069.109.069.18s-.02.13-.069.18a.245.245 0 0 1-.181.07zM62.497-29.75a.26.26 0 0 1-.17-.07c-.05-.05-.08-.109-.08-.18s.03-.131.08-.18c.08-.08.24-.09.34 0 .061.049.08.119.08.18s-.02.13-.069.18a.259.259 0 0 1-.181.07zM66.997-24.5a.26.26 0 0 1-.17-.07c-.05-.05-.08-.109-.08-.18s.03-.131.08-.18c.08-.08.25-.09.351 0 .05.049.069.109.069.18s-.029.13-.069.18a.245.245 0 0 1-.181.07zM69.497-17.75a.26.26 0 0 1-.17-.07c-.05-.05-.08-.109-.08-.18s.03-.131.08-.18c.09-.09.25-.09.351 0 .05.049.069.109.069.18s-.02.13-.069.18a.293.293 0 0 1-.181.07zM63.497-10.25a.26.26 0 0 1-.17-.07.267.267 0 0 1-.08-.18c0-.07.03-.131.08-.18.07-.08.25-.101.351 0 .05.049.069.119.069.18s-.02.119-.069.17a.22.22 0 0 1-.181.08zM69.247-8.5c-.06 0-.12-.02-.17-.07-.05-.05-.08-.109-.08-.18s.03-.131.08-.18c.09-.09.25-.09.351 0 .05.049.069.119.069.18s-.02.13-.069.17a.22.22 0 0 1-.181.08zM64.747-6.5a.243.243 0 0 1-.17-.07c-.05-.05-.08-.119-.08-.18s.03-.12.07-.17c.1-.1.27-.1.36-.01.05.06.069.119.069.18s-.02.119-.069.17a.233.233 0 0 1-.18.08zM65.747-3.75a.26.26 0 0 1-.17-.07c-.05-.05-.08-.109-.08-.18s.03-.131.08-.18c.08-.09.26-.09.351 0 .05.049.069.119.069.18 0 .07-.02.13-.069.18a.293.293 0 0 1-.181.07zM69.247-1.5a.26.26 0 0 1-.17-.07.267.267 0 0 1-.08-.18c0-.07.03-.131.08-.18.09-.09.25-.09.351 0 .05.049.069.109.069.18 0 .061-.02.13-.069.17a.22.22 0 0 1-.181.08zM62.497-1.75a.26.26 0 0 1-.17-.07c-.05-.05-.08-.109-.08-.18s.03-.131.08-.18c.08-.08.24-.101.34 0 .061.049.08.119.08.18s-.02.13-.069.18a.277.277 0 0 1-.181.07zM60.747-6.25a.26.26 0 0 1-.17-.07c-.05-.05-.08-.109-.08-.18s.03-.131.08-.18c.09-.09.25-.09.351 0 .05.049.069.119.069.18s-.02.13-.069.17a.22.22 0 0 1-.181.08zM52.747-2.25a.26.26 0 0 1-.17-.07c-.05-.05-.08-.109-.08-.18s.03-.131.08-.18c.09-.09.25-.09.351 0 .05.049.069.119.069.18s-.02.13-.069.17a.22.22 0 0 1-.181.08zM44.747-5.5a.243.243 0 0 1-.17-.07c-.05-.05-.08-.109-.08-.18s.03-.131.08-.18c.09-.09.25-.09.351 0 .05.049.069.109.069.18 0 .061-.02.13-.069.17a.254.254 0 0 1-.181.08zM44.497-.75c-.06 0-.12-.03-.17-.07-.05-.05-.08-.109-.08-.18s.03-.131.08-.18c.09-.09.25-.09.351 0 .05.049.069.109.069.18s-.02.13-.069.18a.259.259 0 0 1-.181.07zM28.497-.75a.252.252 0 0 1-.18-.08.241.241 0 0 1 .01-.35c.09-.09.25-.09.351 0 .05.049.069.119.069.18s-.02.13-.069.18a.27.27 0 0 1-.181.07zM.747-42.5a.26.26 0 0 1-.17-.07.267.267 0 0 1-.08-.18c0-.07.03-.131.08-.18.08-.09.24-.09.351 0 .04.049.069.109.069.18s-.02.13-.069.18a.245.245 0 0 1-.181.07zM24.497-71c-.06 0-.12-.02-.17-.07a.267.267 0 0 1-.08-.18c0-.07.03-.131.07-.18.11-.09.26-.09.36 0 .04.049.069.109.069.18s-.02.13-.069.17c-.05.06-.11.08-.18.08zM13.247-67a.29.29 0 0 1-.18-.07.309.309 0 0 1-.07-.18c0-.07.03-.131.07-.18.09-.09.26-.09.36 0 .05.049.069.109.069.18 0 .061-.02.13-.069.17-.05.06-.11.08-.18.08zM70.997-36.75a.26.26 0 0 1-.17-.07c-.05-.05-.08-.109-.08-.18s.03-.131.08-.18c.08-.08.25-.09.351 0 .05.049.069.109.069.18s-.02.13-.069.18a.245.245 0 0 1-.181.07z"/></pattern><g fill="none" stroke="#010101" stroke-width=".25"><path d="m243.038 265.101-7.67-.002-.027 7.912M257.759 265.101h-7.555M420.266 273.427v-8.296h-37.412v7.363l-36.62.033v-7.428l-36.936.002v7.819h-36.814v-7.819l-7.475.018M242.933 264.832v8.361M250.28 264.832v8.328M257.763 264.832l.01 8.361M265.12 264.865v8.271M257.714 272.912h7.5M242.776 272.912h7.692"/></g><text transform="translate(318.97 281.7)" fill="#010101" font-family="ArialMT" font-size="8">25 m</text><g stroke="#010101" stroke-width=".25" transform="translate(-210.829 -153.389)"><ellipse fill="none" cx="615.651" cy="386.48" rx="14.523" ry="14.371"/><path fill="#010101" d="M615.769 372.197h2.02v14.164h-2.02zM615.72 400.834l-.069-28.725M601.128 386.48l28.896-.035"/></g><text transform="translate(402.355 212.295)" fill="#010101" font-family="ArialMT" font-size="10">N</text><path fill="none" stroke="#000" stroke-width=".5" stroke-linecap="round" stroke-linejoin="round" stroke-miterlimit="10" d="M.538 185.372.937.279l181.026.093 50.958 7.639 11.688 1.21 33.246 5.849-5.29 12.834 13.326 6.499 6.182-15.447 107.45 14.81 21.315 1.296-.214 151.935-111.066-.966v.121l2.714 23.272-39.423 18.097-72.056 21.001-38.61 5.557-36.238 5.897-37.797 3.717-34.546.997-52.584 3.791-.768-32.307.234-50.421"/><g fill="none" stroke="#ed1f24" stroke-width=".5" stroke-miterlimit="10" stroke-dasharray="6"><path d="m261.171 97.611 57.971 8.803 17.029 2.197 8-76-73.602-11.913M23.507.807l-1.489 3.721 69.595 27.168L104.639.807"/><path d="m228.498 13.993 38.343 5.284-11.075 80.369-38.342-5.283zM154.95 3.766l72.067 9.93-11.075 80.371-72.067-9.93z" stroke-width=".49998"/></g><path fill="#a8aaad" stroke="#a8aaad" stroke-width=".25" stroke-miterlimit="10" d="m236.335 39.382.924.412 1.66.207 1.236.191.739.411.813.164.349.291.658.881.637.371.571.58.524.823.456.946.441.581.81.268.831.139.821.094 1.184-.01.846-.008.748-.329.684-.267.937-.243.332-.233.28-1.057.552-.694-.31-.131-.295-.105-.071-.394.19-.967.939-1.04.731-.684.853-.16 1.702-.651 1.033-.344.902-.287.723-.329.289-.156.265-.464.219-.635.303-.986.361-.919.328-1.027.252-.866.276-.375.691-.106.776-.107.486-.094.215-.643.359-1.302.24-.7.284-1.004.228-1.823-1.416-1.377-1.08-.739-1.078-.849-.19.281-.298-.053-.983-.122-1.932-.386-1.585-.236-2.541-.318-1.495-.107-1.621-.385-1.336-.085-2.646-.35-1.444-.186-2.312-.442-1.049-.103-2.074-.259-.973-.2-.349-.414-.785-.78-.54-.635-.726-.968-.502 1.409-.279.953-.78.905-1.006.956-.855.479-1.311.58-.949.42-.939 1.195-.457 1.146.096.887.32.533.719.619 1.268.769.564.606.558 1.013.563.887.271.728.151 1.014.414 1.648.461 1.888.66 1.392.484 1.467.924.412"/><path fill="#fff" stroke="#000" stroke-width=".25" stroke-linecap="round" stroke-linejoin="round" stroke-miterlimit="10" d="m245.505 36.386-.058.706.403.47.601.112.208-.232-.123-.339-.07-.037-.561-.349zM244.558 38.527l-.188.621.532.468.385.305-.017-.733-.146-.6-.278-.672-.068-.089-.107.09zM240.81 39.446l-.096.475 1.042-.199.798-.429-.469-.543-.254-.927-.135-.316.025.033-.441.805zM238.691 38.531l.373-.416.001-.46.036.008-.297.229zM238.452 40.366l.378.103.4-.121-.131-.369-.321-.14-.05-.008-.234-.01zM260.362 34.08l-.148.479.584.415.394-.304-.009-.251.004-.007-.584-.303zM260.087 35.628l.266.364.273-.398.145-.381-.133-.197-.071-.022-.253.244zM259.521 36.515l.562.169.254-.136-.309-.405-.369-.327.045-.019-.26.046zM254.458 40.812l.59.247.299-.2-.217-.842-.203-.323-.082-.009-.313.222zM247.607 28.057l-.028.646.156.448.293.603.004.65.45-.618.26-.95.367-.925-.169-.013-.751.078zM249.94 28.628l.616.173.431.461.618.128-.164-.728.226-.606-.662-.501-1.572-.314.047.023.27.786z"/><path fill="#fff" stroke="#000" stroke-width=".25" stroke-linecap="round" stroke-linejoin="round" stroke-miterlimit="10" d="m249.523 28.956.789.134.496-.015-.393-.311-.486-.053v-.087l-.676.198zM246.794 27.932l-.606.77.503.823.412 1.276.537.291.41.081.365-.946.428-1.169.258-.79.177-.79-.851.3zM238.552 37.653l.387.389.437.054.442-.602.261-.5-.298-.391-.065.072-.633.457zM236.577 34.062l.536-.491.464-.754-.524-.664.004.008-.706.593zM237.37 31.076l.45.906.552.366.868-.782.585-.627-.387-.45-.906-.545-.449-.462-.002.113-.589.744zM239.181 27.63l.75-.092.574-.132-.531-.747-.377-.639-.309.085-.17.635zM236.437 23.882l1.042.22.991-.237-.459-.839-1.373-1.066-.188.065-.16.907z"/><path fill="#a8aaad" d="m250.759 14.096-1.273-.42-.768-.086-.289-.078-2.092.843.795.697 1.236 1.831 1.61.501.702.169.923.618.808.626.494-.247.883-.972 1.235-1.153-.038-.12-2.222-1.131z"/><path fill="#a8aaad" d="m239.474 12.218 1.006.2 1.218.351 2.131.435 1.684.286 1.019.14 1.76.275 1.654-.525 1.506.113 2.375.993 2.127 1.079.164-1.313.293-1.435-2.07-.735-4.413-1.099-6.034-2.066-4.981.465z"/><path fill="#fff" stroke="#000" stroke-width=".25" stroke-linecap="round" stroke-linejoin="round" stroke-miterlimit="10" d="m251.923 18.007.105.581.372.152.457-.254.423-.654-.269-.624-.238-.116-.682.461z"/><path fill="none" stroke="#010101" stroke-width=".5" stroke-linecap="round" stroke-linejoin="round" stroke-miterlimit="10" d="m37.388.25 7.293.114 5.393-.038h4.747l5.697.038h4.747l2.507-.038.765 1.453-.143.836-.973.913-.309 1.164-.353.798-.156 1.033-.537.694-.335.688-.668.812-.477.709-.237.811-.792-.195-2.231-.895-1.894-.586-.632.088-.898-.303-2.168-.596-2.206-.615-2.741-1.069-1.288-.675-2.355-.496-3.628-.826-4.196-.65-3.061-.749-4.207-1.41-2.375-.736-.226-.235h2.887z"/><path fill="#fff" stroke="#010101" stroke-width=".25" stroke-linecap="round" stroke-linejoin="round" stroke-miterlimit="10" d="m36.123 1.209.141-.566 2.124.273-.14.616zM44.671 1.884l-.094-.37-.261-.309-.332-.211-.986-.066-1.374.132-1.06.04L39.22.998l1.412 1.113.971.842 1.109.803 1.801-.536-.011-.577zM45.448.776l-.378.107.068.518.119.38.319-.148.033-.061.171-.579zM47.673 2.449l-.38.575-.227.267-.475-.255-.488-.258.031-.6.014-.555.074-.596h1.307l.142.708zM48.768 1.615l-.327.213-.311-.312-.166-.482.954-.001.049.205zM50.357 1.628l-.846-.368-.748.547-.433.259.549.931.744.257.371.071.861-1.372z"/><path fill="#fff" stroke="#010101" stroke-width=".25" stroke-linecap="round" stroke-linejoin="round" stroke-miterlimit="10" d="m49.57 4.115-.453.354-.192.117-.423-.112-.538-.104-.103-.239.23-.275.325-.243.222-.224.252-.294.391.046.338.109.283.207-.061.349zM49.355 4.842l-.368-.096.934-.869.24.072zM51.81 5.319l-.119 1.238-.965-.614-.657-.478-.829-.098-.002-.187.899-.938zM51.725 2.433l.366.342.549.118.228.778.148.657-.163.688-.484.233-.479-.72-.183-.349-.544-.551-.49-.588-.248-.399.417-.673.592.144z"/><path fill="#fff" stroke="#010101" stroke-width=".25" stroke-linecap="round" stroke-linejoin="round" stroke-miterlimit="10" d="m49.946 3.315.323.121.306-.559-.239-.096"/><path fill="#fff" stroke="#010101" stroke-width=".25" stroke-linecap="round" stroke-linejoin="round" stroke-miterlimit="10" d="m51.488 3.945.268.324.158.384-.114.317-.535-.386-.797-.652-.274-.44.339-.339.411.38zM53.491 5.892l1.157.241.643.215.088.329-.687.243-.464.098-.562.008-.405.067-.497-.276-.567-.127-.463-.202.062-.335.048-.381.088-.297.388.289z"/><path fill="#fff" stroke="#010101" stroke-width=".25" stroke-linecap="round" stroke-linejoin="round" stroke-miterlimit="10" d="m53.699 5.938-.189-.407-.402-.138-.372-.053-.235.047-.078.392"/><path fill="#fff" stroke="#010101" stroke-width=".25" stroke-linecap="round" stroke-linejoin="round" stroke-miterlimit="10" d="m53.619 4.627-.028.387-.154.308-.157.127-.484-.136.168-.808.398-.059zM55.279 3.725l.121-.751-.088-.501-.57-.051-.86-.158-.275-.313-.35-.105-.461.045-.705.054-.234.03.193.414.518.441.301.463.364.525.312.473.841.248.395.086.49-.416zM54.995 7.528l.117-.374.272-.49"/><path fill="#fff" stroke="#010101" stroke-width=".25" stroke-linecap="round" stroke-linejoin="round" stroke-miterlimit="10" d="m53.622 4.645.239-.18.24.062.429.172.304.174.481.164.077.269-.297.347-.316.502-1.066-.274-.394-.43.29-.765M57.863 7.062l-2.842-.82.527-.649.334-.351.731-.048.74.328 1.274.519-.52.523-.244.498M56.533 7.519l-.182-.544-.68-.039-.414.023-.314.569"/><path fill="#fff" stroke="#010101" stroke-width=".25" stroke-linecap="round" stroke-linejoin="round" stroke-miterlimit="10" d="m56.017 8.375-.004.419.918.09 1.012-.042.188-.305-.213-.418-.08-.132-.25-.412-.868-.038-.886-.037-.003.445z"/><path fill="#fff" stroke="#010101" stroke-width=".25" stroke-linecap="round" stroke-linejoin="round" stroke-miterlimit="10" d="m59.651 7.995-.558-.384-1.039-.515-.734-.181-.719.613 2.61 1.064.433-.391z"/><path fill="#fff" stroke="#010101" stroke-width=".25" stroke-linecap="round" stroke-linejoin="round" stroke-miterlimit="10" d="m59.145 7.639.358-.335-.39-.443-.422-.294-.32-.204-.336.611 1.058.637M55.938 4.791l-.028-.617-.214-.582.267-.336.532.048.564.295.882.733.154 1.469-2.279-.509-.011-.259zM60.437 4.91l.373-.666-.202-.803-.978.049-.835-.067-.852.108-.582-.054-.114.158 2.159.738zM60.625 7.088l.289-.792.741-.823-2.177-.932-1.307 1.31 2.434 1.243"/><path fill="#fff" stroke="#010101" stroke-width=".25" stroke-linecap="round" stroke-linejoin="round" stroke-miterlimit="10" d="m61.809 8.768.195-.231.239-.44.38-.525-.379-.253-.707-.272-.932.047 1.225 1.678"/><path fill="#fff" stroke="#010101" stroke-width=".25" stroke-linecap="round" stroke-linejoin="round" stroke-miterlimit="10" d="m62.917 9.78.257-.466-.383-.3-.601-.115-.36-.127-.313-.047-.275.381M59.742 7.651l.492.201-.276.867-.787-1.074.24-.085z"/><path fill="#fff" stroke="#010101" stroke-width=".25" stroke-linecap="round" stroke-linejoin="round" stroke-miterlimit="10" d="m64.646 9.031-1.083-.305-.794-.371-.554-.19-.385.607.961.242.383.3-.179.406 1.278.384.373-1.073M62.128 9.473l-.288.594-.362.096-.728-.26-.399-.104-.626-.107-.497-.282-.238-.319.001-.288.021-.182M62.084 9.595l.245.628.005.634.912.164.845-.105.016-.338-.007-.405M64.968 10.533l-.527-.365-.23.264-.059.66 1.31.209-.161-.272zM66.752 9.279l-.517.959-.231.586-.391.341-.271-.184-.069-.221-.273-.556.74-.841z"/><path fill="#fff" stroke="#010101" stroke-width=".25" stroke-linecap="round" stroke-linejoin="round" stroke-miterlimit="10" d="m64.892 8.726-.433.51-.157.499.57.017.299.009.163-.166.17-1.208zM64.668 8.963l-.356-.678.265-.575.425-.629.437-.487.363-.1.649.084"/><path fill="#fff" stroke="#010101" stroke-width=".25" stroke-linecap="round" stroke-linejoin="round" stroke-miterlimit="10" d="m65.429 8.899.82-.538.202-.45-.03-.374-.093-.426M66.63 9.29l.395-.818-.008-.431-.234-.361-.208-.412M67.718 5.901l-.513.416-.274.437.021.613.464.307.822.33.367-.003-.098-2.265-.517-.415z"/><path fill="#fff" stroke="#010101" stroke-width=".25" stroke-linecap="round" stroke-linejoin="round" stroke-miterlimit="10" d="m66.211 7.022.252.211.697.266-.197-1.008-.391-.12zM68.046 5.34l-1.277 1.072.617-1.258zM66.705 6.153l-.557.056.045-.385.236-.085.01-.422-.014-.375.484.052zM67.988 3.393l.426.296.234.132-1.752 1.169.787-1.066zM68.484 2.141l.211.268-.324.603-.264.456M66.089 1.452l.1.335.156.354-.145.515.298.341.357.079.208.261.583-.233.672-.516.012-.506-.891-.283-.07-.114-1.303-.241M64.943 3.707l-.756 1.307-.172.056-.358-.209-.347-.173-.316-.293.152-.518-.182-.666.053-.603.729-.628.961-.779 1.359.243-.316.732z"/><path fill="#fff" stroke="#010101" stroke-width=".25" stroke-linecap="round" stroke-linejoin="round" stroke-miterlimit="10" d="m66.478 3.24-.012.319-.242.227-.275.257.325.278.151.208-.203.37.204.164.379-.133.612-1.377-.685-.348z"/></svg>