<svg width="423.25" height="270.578" xml:space="preserve" xmlns="http://www.w3.org/2000/svg"><g fill="none" stroke="red" stroke-width=".5" stroke-miterlimit="10" stroke-dasharray="6"><path d="m416.085 119.785-152.357-15.481 8-80 146.963 18.071M23.45 2.178l-1.489 3.721 69.594 27.169 13.027-30.89M345.062 34.304l-8 77.333"/></g><path fill="none" stroke="#000" stroke-width=".5" stroke-linecap="round" stroke-linejoin="round" stroke-miterlimit="10" d="m37.268 1.397 7.293.113 5.393-.038h4.747l5.697.038h4.747l2.507-.038.764 1.453-.142.837-.974.912-.308 1.164-.353.798-.156 1.033-.537.693-.335.689-.668.812-.477.709-.237.811-.792-.195-2.231-.895-1.894-.587-.632.089-.898-.304-2.169-.595-2.205-.615-2.742-1.07-1.288-.674-2.354-.497-3.628-.826-4.196-.649-3.061-.749-4.206-1.41-2.375-.736-.227-.235h2.886z"/><path fill="#fff" stroke="#000" stroke-width=".25" stroke-linecap="round" stroke-linejoin="round" stroke-miterlimit="10" d="m36.003 2.356.141-.568 2.124.274-.141.616zM44.55 3.03l-.093-.37-.261-.309-.332-.211-.986-.066-1.375.132-1.06.04-1.343-.101 1.412 1.111.97.843 1.109.803 1.803-.536-.013-.578zM45.328 1.921l-.378.108.068.517.12.381.318-.148.032-.061.172-.579zM47.554 3.596l-.381.573-.227.268-.474-.255-.49-.258.033-.6.013-.555.074-.597h1.306l.143.708zM48.648 2.762l-.328.213-.31-.313-.166-.482h.953l.05.205zM50.237 2.774l-.846-.368-.748.547-.433.258.548.932.744.256.372.072.861-1.372z"/><path fill="#fff" stroke="#000" stroke-width=".25" stroke-linecap="round" stroke-linejoin="round" stroke-miterlimit="10" d="m49.45 5.262-.454.352-.19.118-.425-.112-.537-.104-.103-.24.23-.274.324-.243.223-.224.252-.294.39.045.339.11.283.207-.061.349zM49.235 5.987l-.368-.094.933-.87.241.073zM51.69 6.464l-.12 1.238-.965-.614-.656-.477-.829-.098-.002-.188.899-.937zM51.605 3.579l.367.341.548.119.228.778.148.658-.163.687-.485.233-.478-.719-.183-.351-.545-.55-.488-.587-.249-.4.417-.673.592.144z"/><path fill="#fff" stroke="#000" stroke-width=".25" stroke-linecap="round" stroke-linejoin="round" stroke-miterlimit="10" d="m49.826 4.461.322.12.307-.557-.239-.097"/><path fill="#fff" stroke="#000" stroke-width=".25" stroke-linecap="round" stroke-linejoin="round" stroke-miterlimit="10" d="m51.368 5.091.268.324.157.384-.113.317-.535-.385-.797-.653-.274-.44.338-.34.412.382zM53.371 7.038l1.156.241.643.215.089.329-.687.242-.464.098-.562.008-.405.068-.497-.277-.567-.126-.463-.202.061-.335.049-.382.088-.297.388.289z"/><path fill="#fff" stroke="#000" stroke-width=".25" stroke-linecap="round" stroke-linejoin="round" stroke-miterlimit="10" d="m53.579 7.084-.189-.406-.402-.139-.372-.053-.236.047-.076.392"/><path fill="#fff" stroke="#000" stroke-width=".25" stroke-linecap="round" stroke-linejoin="round" stroke-miterlimit="10" d="m53.498 5.773-.026.387-.155.308-.157.127-.484-.136.169-.808.397-.059zM55.158 4.871l.121-.751-.087-.502-.57-.051-.86-.157-.276-.313-.349-.105-.461.045-.704.055-.236.028.195.415.517.441.3.463.365.524.311.474.842.248.394.086.491-.416zM54.874 8.673l.118-.372.272-.49"/><path fill="#fff" stroke="#000" stroke-width=".25" stroke-linecap="round" stroke-linejoin="round" stroke-miterlimit="10" d="m53.501 5.791.239-.18.241.061.429.173.304.174.481.164.077.269-.297.347-.316.502-1.066-.274-.394-.429.29-.767M57.742 8.208l-2.841-.82.527-.649.334-.351.73-.048.74.327 1.275.521-.52.522-.245.498M56.412 8.665l-.182-.544-.678-.039-.415.023-.314.568"/><path fill="#fff" stroke="#000" stroke-width=".25" stroke-linecap="round" stroke-linejoin="round" stroke-miterlimit="10" d="m55.897 9.521-.003.419.918.09 1.011-.043.188-.304-.213-.418-.08-.132-.251-.412-.867-.037-.886-.038-.004.446z"/><path fill="#fff" stroke="#000" stroke-width=".25" stroke-linecap="round" stroke-linejoin="round" stroke-miterlimit="10" d="m59.531 9.141-.558-.384-1.038-.516-.736-.18-.718.612 2.609 1.064.434-.39z"/><path fill="#fff" stroke="#000" stroke-width=".25" stroke-linecap="round" stroke-linejoin="round" stroke-miterlimit="10" d="m59.025 8.784.357-.334-.389-.442-.422-.296-.32-.203-.336.611 1.058.637M55.818 5.938l-.028-.618-.214-.583.266-.335.532.048.565.295.882.734.155 1.468-2.281-.509-.01-.259zM60.316 6.056l.373-.665-.201-.805-.977.05-.836-.067-.853.108-.581-.055-.115.158 2.16.739zM60.505 8.233l.288-.791.742-.823-2.177-.932-1.306 1.31 2.433 1.243M61.689 9.914l.194-.231.24-.44.379-.524-.378-.255-.707-.271-.932.047 1.224 1.677"/><path fill="#fff" stroke="#000" stroke-width=".25" stroke-linecap="round" stroke-linejoin="round" stroke-miterlimit="10" d="m62.796 10.926.258-.466-.384-.3-.6-.115-.361-.128-.312-.046-.276.381M59.621 8.796l.492.202-.276.866-.785-1.074.239-.084z"/><path fill="#fff" stroke="#000" stroke-width=".25" stroke-linecap="round" stroke-linejoin="round" stroke-miterlimit="10" d="m64.525 10.178-1.082-.306-.794-.371-.554-.19-.386.606.961.243.384.3-.18.406 1.278.383.373-1.071M62.007 10.618l-.287.594-.362.097-.729-.26-.398-.105-.626-.107-.497-.28-.238-.32.001-.288.021-.182M61.963 10.741l.245.628.006.634.911.164.846-.105.016-.337-.007-.406M64.848 11.68l-.528-.366-.23.264-.058.659 1.309.21-.16-.272zM66.631 10.425l-.516.959-.231.587-.391.34-.271-.185-.069-.22-.274-.556.741-.841z"/><path fill="#fff" stroke="#000" stroke-width=".25" stroke-linecap="round" stroke-linejoin="round" stroke-miterlimit="10" d="m64.772 9.872-.434.509-.156.499.569.018.3.009.163-.166.17-1.208zM64.547 10.109l-.355-.678.265-.575.425-.629.437-.487.363-.1.649.084"/><path fill="#fff" stroke="#000" stroke-width=".25" stroke-linecap="round" stroke-linejoin="round" stroke-miterlimit="10" d="m65.309 10.044.819-.536.203-.451-.03-.374-.093-.426M66.51 10.436l.395-.818-.008-.431-.235-.361-.207-.412M67.598 7.046l-.514.416-.273.437.021.614.463.307.823.33.367-.003-.098-2.265-.517-.415z"/><path fill="#fff" stroke="#000" stroke-width=".25" stroke-linecap="round" stroke-linejoin="round" stroke-miterlimit="10" d="m66.09 8.168.253.211.696.266-.196-1.008-.391-.12zM67.926 6.486l-1.277 1.073.617-1.259zM66.585 7.298l-.558.058.046-.386.236-.085.01-.423-.014-.374.484.052zM67.868 4.539l.426.296.233.132-1.752 1.169.787-1.067zM68.364 3.287l.211.268-.324.602-.265.457M65.969 2.598l.1.335.156.354-.145.515.298.341.357.08.208.26.582-.233.673-.516.011-.505-.89-.285-.07-.113-1.303-.242M64.823 4.853l-.757 1.306-.171.058-.358-.211-.347-.173-.316-.293.152-.517-.181-.666.051-.603.729-.628.961-.779 1.36.242-.317.733z"/><path fill="#fff" stroke="#000" stroke-width=".25" stroke-linecap="round" stroke-linejoin="round" stroke-miterlimit="10" d="m66.358 4.387-.012.318-.242.227-.275.257.325.278.152.209-.203.369.203.164.379-.133.611-1.377-.684-.348z"/><path fill="none" stroke="#000" stroke-width=".5" stroke-linecap="round" stroke-linejoin="round" stroke-miterlimit="10" d="M.538 186.086.937.994l181.027.092 50.956 7.64 11.688 1.21 33.246 5.848-5.289 12.835 13.326 6.498 6.182-15.447 107.449 14.81 21.316 1.296-.214 151.935-111.067-.966v.121l2.715 23.272-39.424 18.097-72.054 21.001-38.61 5.557-36.239 5.897-37.798 3.717-34.545.997-52.583 3.791-.769-32.307.234-50.422"/><g fill="none" stroke="#000" stroke-width=".25"><path d="m242.903 249.19-7.67-.002-.027 7.912M257.624 249.19h-7.555M420.129 257.516v-8.297h-37.412v7.364l-36.619.033v-7.428l-36.935.002v7.818h-36.815v-7.818l-7.474.018M242.797 248.92v8.362M250.145 248.92v8.329M257.627 248.92l.01 8.362M264.985 248.954v8.271M257.579 257.001h7.5M242.641 257.001h7.692"/></g><text transform="translate(321.993 270)" fill="#000100" font-family="ArialMT" font-size="8">25 m</text><g stroke="#000" stroke-width=".25" transform="translate(-209.605 -162.643)"><ellipse fill="none" cx="611.379" cy="382.271" rx="14.523" ry="14.371"/><path d="M611.496 367.988h2.02v14.164h-2.02zM611.447 396.625l-.068-28.725M596.855 382.271l28.897-.035"/></g><text transform="translate(399.305 198.833)" fill="#000100" font-family="ArialMT" font-size="10">N</text><path fill="none" d="M.25 0h423v270H.25z"/></svg>