<svg xmlns="http://www.w3.org/2000/svg" version="1.1" viewBox="0 0 210 297"><g transform="matrix(.55692 0 0 .55692 98.769 30.901)"><ellipse cx="20.919" cy="281.232" fill-rule="evenodd" stroke-width=".134" rx="3.4" ry="9.175"/><path fill-rule="evenodd" stroke-width=".135" d="M29.206 267.598c-.07 6.972-5.5 9.883-9.726 8.926-3.54-.802-6.417-4.89-4.214-9.975 2.204-5.085 8.57-8.864 12.193-8.44 3.622.423 1.802 4.043 1.747 9.489z"/><ellipse cx="44.94" cy="288.362" fill-rule="evenodd" stroke-width=".261" rx="13.422" ry="5.301" transform="matrix(.99998 .00699 -.03717 .9993 0 0)"/><path fill-rule="evenodd" stroke-width=".297" d="M-.172 31.752c31.884-1.511 55.175 13.601 58.966 42.39 3.792 28.789-25.736 43.924-49.352 52.05-23.616 8.126-24.443-18.877-23.167-47.886.8-18.165-24.474-19.622-14.256-29.378 10.357-9.89 15.737-16.603 27.809-17.176z"/><path fill-rule="evenodd" stroke-width=".265" d="M79.26 253.084c-13.094 4.427-57.856 4.988-86.576-11.249-28.961-16.372-42.238-56.932-42.238-66.186 0-44.256 61.847-140.229 91.206-94.828 38.246 92.24 149.744 135.658 37.608 172.263z"/><path fill-rule="evenodd" stroke-width=".252" d="M44.304 100.65c-3.507 18.945-5.365 25.103-19.388 43.78-16.118 21.47-28.272 22.732-46.66 18.896-23.247-4.85-35.303 6.226-3.952-69.045 11.905-28.979 11.552-55.053 29.561-53.484 19.29.255 27.043 9.569 34.712 19.826 8.12 10.837 7.145 32.368 5.727 40.026z"/><path fill-rule="evenodd" stroke-width=".133" d="M-5.811 39.804c4.888-3.588 16.543-2.299 23.902 1.088 9.914 4.562 20.02 12.61 21.992 23.812 2.425 13.77-37.196 36.887-48.285 31.109-11.09-5.779-11.632-45.716 2.391-56.01z"/><path stroke-linecap="butt" stroke-linejoin="miter" stroke-opacity="1" stroke-width=".266" d="M-164.452 145.452s11.443-14.808 30.975-27.373C-90.043 90.137-16.417 53.103-9.125 71.736l4.632 26.661c-45.19 11.952-57.187 5.405-96.377 18.803-3.798 1.731-19.704 6.756-28.605 11.162-10.825 5.358-34.977 17.09-34.977 17.09z"/><path stroke-linecap="butt" stroke-linejoin="miter" stroke-opacity="1" stroke-width=".266" d="M-164.505 145.195C-188.898 101.557-27.915 22.048-17.344 49.06-25.124 67.442-9.386 70.318-5.4 80.942c-23.687 10.086-88.309 14.41-126.98 37.71-8.075 4.865-32.125 26.543-32.125 26.543z"/><path stroke-linecap="butt" stroke-linejoin="miter" stroke-opacity="1" stroke-width=".18" d="M-151.698 120.205c-10.158-19.767 52.13-56.878 93.55-70.925 7.293-2.473 15.663-4.336 20.942-5.069 8.251-1.144 12.003.657 13.512 4.192l5.08 27.893c-17.195 6.216-76.962 18.55-105.408 33.135-5.94 3.046-27.676 10.774-27.676 10.774z"/><ellipse cx="9.719" cy="61.263" fill-rule="evenodd" stroke-width=".234" opacity=".542" rx="17.184" ry="14.632"/><ellipse cx="11.013" cy="61.15" fill-rule="evenodd" stroke-dasharray="none" stroke-miterlimit="4" stroke-opacity="1" stroke-width="1.246" rx="10.076" ry="8.191"/><ellipse cx="10.816" cy="60.59" fill-rule="evenodd" stroke-width=".433" rx="5.993" ry="5.236"/><ellipse cx="-2.087" cy="52.717" fill-rule="evenodd" stroke-width=".171" opacity=".77" rx="2.552" ry="1.907" transform="rotate(-11.357)"/><path stroke-linecap="butt" stroke-linejoin="miter" stroke-opacity="1" stroke-width=".286" d="M-20.603 42.542c5.757-5.362 5.613-1.354 4.585 5.878-.287 2.016-1.663 1.948-2.393 5.804-.267 1.412-.382-.447 1.21 6.923.924 4.282 3.336 5.337 5.494 6.872 2.062 1.467 4.908 3.056 5.777 4.233 2.826 3.828.566 9.035.979 12.486.38 3.179-7.958 3.157-10.341.244-10.123-12.373-13.256-30.048-19.722-40.415-.838-1.344 2.182-.814 6.21-1.151 2.67-.223 7.297-.032 8.201-.874z"/><path stroke-linecap="butt" stroke-linejoin="miter" stroke-opacity="1" stroke-width=".148" d="M-5.45 82.47c.819 3.625 3.075 13.691 2.32 15.919-1.795 5.294-5.482 2.59-9.38 3.304-2.382.436-17.737 4.082-11.518-2.093 4.375-10.926 14.163-19.142 18.579-17.13z"/><path stroke-linecap="butt" stroke-linejoin="miter" stroke-opacity="1" stroke-width=".266" d="M-142.791 97.682c-18.7 16.453-29.49 33.814-21.786 47.596 0 0-.503.432.072-.083-.583.702-.02.34-.02.34s12.64-11.578 22.08-17.783c8.484-6.713 5.28-4.55 12.486-10.293-2.609-3.2-4.468-4.448-3.193-9.877.988-4.205-.697-4.986-2.562-6.81-1.66-1.62-7.077-3.09-7.077-3.09z" opacity=".912"/><path stroke-linecap="butt" stroke-linejoin="miter" stroke-opacity="1" stroke-width=".416" d="m116.696 210.194 61.14-32.84c-13.442 33.271-39.91 19.784-59.377 44.161z"/><path stroke-linecap="butt" stroke-linejoin="miter" stroke-opacity="1" stroke-width=".416" d="m115.82 210.564 66.836-18.689c-20.385 29.53-43.267 10.586-67.59 30.121z"/><path stroke-linecap="butt" stroke-linejoin="miter" stroke-opacity="1" stroke-width=".416" d="m119.08 213.412 68.06-13.57c-22.564 27.901-43.945 7.276-69.678 24.912z"/><path stroke-linecap="butt" stroke-linejoin="miter" stroke-opacity="1" stroke-width=".416" d="m118.819 216.01 69.301-3.716c-26.316 24.394-44.534.929-72.52 14.71z"/><path stroke-linecap="butt" stroke-linejoin="miter" stroke-opacity="1" stroke-width=".416" d="m119.856 219.586 69.303 3.684c-28.764 21.453-44.38-3.818-73.675 6.906z"/><path stroke-linecap="butt" stroke-linejoin="miter" stroke-opacity="1" stroke-width=".416" d="m115.014 221.05 67.068 17.841c-32.557 15.088-42.648-12.853-73.522-8.375z"/><path stroke-linecap="butt" stroke-linejoin="miter" stroke-opacity="1" stroke-width=".416" d="m121.413 224.734 60.176 34.573c-35.35 6.158-37.877-23.441-68.858-27.097z"/><path fill-opacity="1" fill-rule="evenodd" stroke-width=".062" d="M111.99 229.87c-4.355-.476 4.394-3.545 4.646-9.01.295-6.421-6.222-9.605-1.531-9.128 4.69.477 7.623 4.886 5.928 9.849-1.694 4.962-4.356 8.803-9.043 8.29z"/><ellipse cx="5.427" cy="287.966" fill-rule="evenodd" stroke-width=".269" rx="15.1" ry="4.993"/><ellipse cx="-152.726" cy="234.269" fill-rule="evenodd" stroke-width=".273" rx="11.826" ry="6.577" transform="matrix(.75146 -.65978 .54972 .83535 0 0)"/><path fill-rule="evenodd" stroke-width=".226" d="M26.673 246.558c5.927 8.112 4.206 17.256-.854 19.515-5.059 2.259-11.54-3.222-17.467-11.335-5.928-8.112-6.632-16.52-1.572-18.78 5.059-2.258 13.965 2.487 19.893 10.6z"/><path fill-rule="evenodd" stroke-width=".233" d="M73.193 254.723a17.928 10.558 60.736 0 1-3.213 18.936 17.928 10.558 60.736 0 1-17.69-13.562 17.928 10.558 60.736 0 1 3.213-18.936 17.928 10.558 60.736 0 1 17.69 13.562z"/><path fill-rule="evenodd" stroke-width=".265" d="M-131.878 266.821c-2.12 3.029-24.56 1.069-26.122-2.282-1.563-3.35 11.354-21.803 15.037-21.481 3.683.322 13.205 20.734 11.085 23.763z" transform="matrix(-.15124 -.27475 .60741 -.07956 -186.232 269.426)"/><ellipse cx="67.803" cy="289.727" fill-rule="evenodd" stroke-width=".134" rx="3.4" ry="9.175"/><path fill-rule="evenodd" stroke-width=".135" d="M75.017 275.413c-.07 6.972-5.5 9.884-9.726 8.926-3.54-.802-6.417-4.889-4.214-9.974 2.203-5.085 8.57-8.865 12.193-8.441 3.622.423 1.802 4.043 1.747 9.49z"/><ellipse cx="93.279" cy="298.565" fill-rule="evenodd" stroke-width=".261" rx="13.422" ry="5.301" transform="matrix(.99998 .00699 -.03717 .9993 0 0)"/><ellipse cx="53.027" cy="298.84" fill-rule="evenodd" stroke-width=".269" rx="15.1" ry="4.993"/><ellipse cx="-137.953" cy="262.509" fill-rule="evenodd" stroke-width=".273" rx="11.786" ry="6.599" transform="matrix(.70588 -.70833 .60519 .79608 0 0)"/><path fill-rule="evenodd" stroke-width=".265" d="M-131.878 266.821c-2.12 3.029-24.56 1.069-26.122-2.282-1.563-3.35 11.354-21.803 15.037-21.481 3.683.322 13.205 20.734 11.085 23.763z" transform="matrix(-.388 -.0762 .41998 -.48281 -156.335 417.818)"/><path fill-rule="evenodd" stroke-width=".265" d="M-131.878 266.821c-2.12 3.029-24.56 1.069-26.122-2.282-1.563-3.35 11.354-21.803 15.037-21.481 3.683.322 13.205 20.734 11.085 23.763z" transform="matrix(.21145 .34 -.6576 .05122 244.573 323.62)"/><path fill-rule="evenodd" stroke-width=".265" d="M-131.878 266.821c-2.12 3.029-24.56 1.069-26.122-2.282-1.563-3.35 11.354-21.803 15.037-21.481 3.683.322 13.205 20.734 11.085 23.763z" transform="matrix(-.15124 -.27475 .60741 -.07956 -136.83 280.307)"/><path fill-rule="evenodd" stroke-width=".265" d="M-131.878 266.821c-2.12 3.029-24.56 1.069-26.122-2.282-1.563-3.35 11.354-21.803 15.037-21.481 3.683.322 13.205 20.734 11.085 23.763z" transform="matrix(-.4693 .01485 .33782 -.5647 -98.731 463.376)"/><path fill-rule="evenodd" stroke-width=".265" d="M-131.878 266.821c-2.12 3.029-24.56 1.069-26.122-2.282-1.563-3.35 11.354-21.803 15.037-21.481 3.683.322 13.205 20.734 11.085 23.763z" transform="matrix(.21145 .34 -.6576 .05122 291.188 334.353)"/><path stroke-width=".699" d="m116.555 212.134 44.64-19.004c-11.458 22.315-29.035 11.254-44.127 26.997z"/><path stroke-width=".699" d="m118.348 213.236 46.725-13.065c-14.251 20.645-30.248 7.4-47.251 21.057z"/><path stroke-width=".699" d="m118.687 216.469 47.58-9.486c-15.774 19.505-30.72 5.086-48.71 17.415z"/><path stroke-width=".699" d="m118.505 218.915 48.448-2.597c-18.397 17.053-31.133.649-50.698 10.284z"/><path stroke-width=".699" d="m119.23 221.415 48.449 2.576c-20.108 14.997-31.025-2.67-51.505 4.828z"/><path stroke-width=".699" d="m123.096 223.941 45.9 15.72c-23.442 8.931-29.114-11.047-50.863-9.433z"/><path stroke-width=".699" d="m118.368 224.734 42.068 24.17c-24.713 4.305-26.479-16.388-48.137-18.943z"/><path fill-opacity="1" fill-rule="evenodd" stroke-width=".062" d="M111.99 229.87c-4.355-.476 4.394-3.545 4.646-9.01.295-6.421-6.222-9.605-1.531-9.128 4.69.477 7.623 4.886 5.928 9.849-1.694 4.962-4.356 8.803-9.043 8.29z"/><path stroke-width=".699" d="m116.555 212.134 44.64-19.004c-11.458 22.315-29.035 11.254-44.127 26.997z"/><path stroke-width=".699" d="m118.348 213.236 46.725-13.065c-14.251 20.645-30.248 7.4-47.251 21.057z"/><path stroke-width=".699" d="m118.687 216.469 47.58-9.486c-15.774 19.505-30.72 5.086-48.71 17.415z"/><path stroke-width=".699" d="m118.505 218.915 48.448-2.597c-18.397 17.053-31.133.649-50.698 10.284z"/><path stroke-width=".699" d="m119.23 221.415 48.449 2.576c-20.108 14.997-31.025-2.67-51.505 4.828z"/><path stroke-width=".699" d="m123.096 223.941 45.9 15.72c-23.442 8.931-29.114-11.047-50.863-9.433z"/><path stroke-width=".699" d="m118.368 224.734 42.068 24.17c-24.713 4.305-26.479-16.388-48.137-18.943z"/><path fill-opacity="1" fill-rule="evenodd" stroke-width=".062" d="M-19.007 140.317c1.636-4.064 2.226 5.189 7.419 6.907 6.103 2.02 10.93-3.394 9.203.993-1.727 4.388-6.765 6.02-11.085 3.047-4.32-2.973-7.298-6.574-5.537-10.947z"/><path stroke-width=".699" d="m-13.097 201.577-18.092-45.017c22.077 11.91 10.66 29.258 26.094 44.666zM-38.33 196.766l-3.207-48.41c17.284 18.18 1.041 31.122 10.922 50.563z"/><path stroke-width=".699" d="m2.238 194.515-23.847-42.251c-4.494 24.68 16.185 26.603 18.574 48.28z"/><path fill-opacity="1" fill-rule="evenodd" stroke-width=".062" d="M-19.007 141.007c1.636-4.064 2.226 5.19 7.419 6.908 6.103 2.02 10.93-3.394 9.203.993-1.727 4.387-6.765 6.02-11.085 3.047-4.32-2.973-7.298-6.574-5.537-10.948z"/><path stroke-width=".699" d="m9 192.877-22.551-42.958c-5.243 24.531 15.367 27.084 17.096 48.824z"/><path fill-rule="evenodd" stroke-width=".265" d="M-223.263 10.205a12.069 19.147 0 0 1 0 .061" transform="matrix(1.22359 .7618 -.67197 1.36731 447.105 216.818) rotate(-3.395)"/><path stroke-linecap="butt" stroke-linejoin="miter" stroke-opacity="1" stroke-width=".32" d="M-284.264 70.942c.558-.726 22.852-18.681 43.043-31.388 15.542-9.781 30.09-15.282 30.964-14.623-9.163 32.647-47.842 33.566-71.433 51.385z" transform="matrix(1.22359 .7618 -.67197 1.36731 447.105 216.818)"/><path stroke-linecap="butt" stroke-linejoin="miter" stroke-opacity="1" stroke-width=".312" d="M-283.778 70.809c1.164-1.068 76.24-32.542 77.838-30.665-14.664 30.234-51.031 23.573-76.432 36.44z" transform="matrix(1.22359 .7618 -.67197 1.36731 447.105 216.818)"/><path stroke-linecap="butt" stroke-linejoin="miter" stroke-opacity="1" stroke-width=".308" d="M-282.917 71.924c1.27-.89 77.907-21.3 79.184-19.213-18.322 27.83-52.397 16.03-78.634 25.13z" transform="matrix(1.22359 .7618 -.67197 1.36731 447.105 216.818)"/><path stroke-linecap="butt" stroke-linejoin="miter" stroke-opacity="1" stroke-width=".301" d="M-282.208 75.794c1.278-.796 75.7-15.563 76.74-13.39-19.668 26.415-51.05 12.167-76.701 19.33z" transform="matrix(1.22359 .7618 -.67197 1.36731 447.105 216.818)"/><path stroke-linecap="butt" stroke-linejoin="miter" stroke-opacity="1" stroke-width=".284" d="M-281.72 77.47c1.22-.63 68.74-6.021 69.419-3.732-20.346 23.792-46.543 5.722-70.045 9.64z" transform="matrix(1.22359 .7618 -.67197 1.36731 447.105 216.818)"/><path stroke-linecap="butt" stroke-linejoin="miter" stroke-opacity="1" stroke-width=".256" d="M-281.013 77.747c1.038-.436 55.983 4.573 56.335 6.938-18.463 20.383-38.047-1.472-57.348-1.2z" transform="matrix(1.22359 .7618 -.67197 1.36731 447.105 216.818)"/><path stroke-linecap="butt" stroke-linejoin="miter" stroke-opacity="1" stroke-width=".312" d="M-283.778 70.809c1.164-1.068 76.24-32.542 77.838-30.665-14.664 30.234-51.031 23.573-76.432 36.44z" transform="matrix(1.22359 .7618 -.67197 1.36731 447.105 216.818)"/></g></svg>