<svg width="3582" height="449" viewBox="0 0 3582 449" fill="none" xmlns="http://www.w3.org/2000/svg">
<path d="M188.085 119.887C169.94 108.242 152.472 102.419 135.681 102.419C118.89 102.419 105.349 107.023 95.0582 116.231C84.767 125.439 79.6214 137.084 79.6214 151.167C79.6214 164.979 85.1732 177.03 96.2769 187.321C107.381 197.613 125.255 208.716 149.899 220.632C189.439 239.861 214.49 260.443 225.052 282.38C229.927 292.671 232.364 303.639 232.364 315.284C232.364 340.471 221.667 360.241 200.272 374.594C179.148 388.948 154.233 396.125 125.526 396.125C110.089 396.125 93.9749 394.635 77.184 391.656C60.3931 388.677 48.3416 385.698 41.0294 382.719C38.3212 361.595 33.7172 337.492 27.2175 310.41C32.0923 307.972 35.7484 306.754 38.1858 306.754C40.894 306.754 42.9251 306.889 44.2792 307.16C51.8622 326.117 58.9036 340.471 65.4033 350.22C71.0905 356.178 76.1007 361.053 80.4338 364.845C84.767 368.365 91.8083 372.021 101.558 375.813C111.578 379.604 123.63 381.5 137.712 381.5C151.795 381.5 164.524 376.625 175.898 366.876C187.273 357.126 192.96 344.669 192.96 329.503C192.96 317.316 190.793 308.514 186.46 303.097C182.127 297.681 178.877 293.619 176.711 290.911C174.815 288.202 171.023 285.088 165.336 281.567C159.649 277.776 155.722 275.203 153.556 273.849C151.389 272.495 146.65 269.922 139.337 266.13C132.296 262.339 125.932 258.954 120.245 255.975C114.828 252.725 110.224 250.017 106.433 247.85C102.641 245.683 96.8185 242.298 88.9647 237.694C81.1109 232.819 75.5591 229.028 72.3092 226.32C69.0594 223.341 64.8616 219.414 59.716 214.539C54.5704 209.664 50.9144 205.196 48.7478 201.133C43.3314 189.488 40.6232 178.52 40.6232 168.229C40.6232 143.313 51.0498 123.949 71.903 110.138C92.7562 96.0548 117.943 89.0134 147.462 89.0134C159.649 89.0134 173.19 90.6384 188.085 93.8882C202.98 97.1381 214.49 100.523 222.615 104.044C220.178 113.523 217.876 133.293 215.709 163.354C213.001 164.708 210.157 165.385 207.178 165.385C204.199 165.385 201.626 164.843 199.46 163.76C199.189 160.51 197.564 153.198 194.585 141.824C191.606 130.178 189.439 122.866 188.085 119.887ZM387.818 389.219L333.789 388C306.978 388 285.583 389.083 269.604 391.25C268.25 389.625 267.573 387.323 267.573 384.344L267.98 381.094C284.229 377.302 294.655 373.105 299.259 368.501C304.134 363.897 307.249 356.314 308.603 345.752C311.853 314.607 313.477 281.026 313.477 245.006V197.884C313.477 138.574 311.175 108.648 306.572 108.106C300.343 107.294 290.999 106.888 278.542 106.888C277.729 104.992 277.323 102.825 277.323 100.388C277.323 97.9506 277.729 95.9194 278.542 94.2945L324.039 95.5132C349.226 95.5132 368.319 94.4299 381.318 92.2633C382.401 93.6174 382.943 97.0027 382.943 102.419C373.464 103.773 366.694 107.158 362.631 112.575C358.84 117.72 355.996 124.356 354.101 132.48C351.392 146.563 350.038 178.249 350.038 227.538V302.285C350.038 333.429 350.851 357.533 352.476 374.594C359.788 375.948 371.569 376.625 387.818 376.625C388.63 378.521 389.037 380.688 389.037 383.125L387.818 389.219ZM547.467 375.407C548.279 377.032 548.686 379.334 548.686 382.313C548.686 385.292 548.55 387.187 548.279 388C530.405 388.812 515.375 390.302 503.188 392.468C491.271 394.906 484.636 396.125 483.282 396.125C474.887 396.125 445.774 356.314 395.942 276.692C376.173 245.277 365.204 228.08 363.038 225.101L415.848 175.135C440.493 152.115 457.554 130.855 467.033 111.356C462.158 108.648 451.596 107.023 435.347 106.481C435.076 105.398 434.941 103.909 434.941 102.013L436.566 93.8882C463.919 94.9715 480.439 95.5132 486.126 95.5132C492.084 95.5132 503.188 94.8361 519.437 93.482C521.603 95.3777 522.687 98.763 522.687 103.638C506.437 113.658 492.355 123.949 480.439 134.511L397.567 207.633C448.753 289.15 481.793 338.575 496.688 355.908C506.708 367.553 515.375 373.782 522.687 374.594C527.291 375.136 535.551 375.407 547.467 375.407ZM764.001 24.4226L686.004 74.7954C683.838 74.7954 682.078 74.1183 680.723 72.7642C679.369 71.4101 678.421 69.3789 677.88 66.6707C702.254 43.6509 724.461 21.7144 744.502 0.861195C754.793 7.36091 761.293 15.2147 764.001 24.4226ZM850.934 389.219L803.405 388C782.823 388 764.813 389.083 749.377 391.25C747.752 389.083 746.939 386.781 746.939 384.344L747.752 381.094C758.314 378.657 765.626 375.948 769.688 372.969C774.021 369.719 776.188 366.199 776.188 362.407C776.188 358.616 774.292 351.033 770.501 339.658L746.533 278.724C731.909 277.911 714.441 277.505 694.129 277.505L636.038 278.724L625.882 304.722C612.341 338.304 605.571 362.136 605.571 376.219C611.8 376.49 621.278 376.625 634.007 376.625C634.548 378.521 634.819 380.688 634.819 383.125C634.819 385.562 634.548 387.594 634.007 389.219L590.946 388C573.885 388 558.989 389.083 546.261 391.25C544.636 389.354 543.823 387.052 543.823 384.344L544.636 381.094C558.448 377.302 568.468 371.344 574.697 363.22C581.197 355.095 590.811 336.679 603.539 307.972L703.879 80.4826H710.378L803.812 319.347C805.437 324.492 809.634 334.513 816.405 349.408C823.446 364.032 827.915 372.698 829.81 375.407C837.393 376.219 844.435 376.625 850.934 376.625C851.747 378.521 852.153 380.688 852.153 383.125C852.153 385.562 851.747 387.594 850.934 389.219ZM642.131 262.881L694.129 264.505C712.816 264.505 728.523 264.099 741.252 263.287L694.129 138.98L642.131 262.881ZM1030.52 389.625L961.052 388H934.241C903.638 388 881.024 389.083 866.4 391.25C865.046 389.625 864.369 387.323 864.369 384.344L864.775 381.094C878.858 377.844 888.066 372.834 892.399 366.063C895.919 360.647 898.628 350.356 900.523 335.19C902.69 319.753 903.773 290.098 903.773 246.225V164.166C903.773 127.064 902.013 108.377 898.492 108.106C893.347 107.294 885.222 106.888 874.118 106.888C873.306 104.992 872.9 102.825 872.9 100.388C872.9 97.9506 873.306 95.9194 874.118 94.2945L913.116 95.5132C938.032 95.5132 957.26 94.4299 970.801 92.2633C972.426 94.4299 973.239 96.5964 973.239 98.763L972.426 102.419C961.323 105.398 954.01 109.19 950.49 113.794C946.969 118.127 944.803 124.491 943.99 132.886C940.74 166.197 939.115 202.352 939.115 241.35V318.128C939.115 343.585 939.928 361.459 941.553 371.751C951.302 372.834 962.677 373.376 975.676 373.376C1003.57 373.376 1031.19 369.719 1058.55 362.407C1062.88 356.178 1066.81 347.918 1070.33 337.627C1074.12 327.065 1076.42 320.701 1077.23 318.534C1078.59 318.263 1080.62 318.128 1083.33 318.128C1086.04 318.128 1089.01 319.347 1092.26 321.784C1091.18 327.471 1089.42 339.388 1086.98 357.533C1084.55 375.678 1083.06 385.021 1082.52 385.562C1078.99 388.271 1061.66 389.625 1030.52 389.625ZM1344.01 245.006L1268.04 242.975C1245.29 242.975 1216.32 243.652 1181.11 245.006V319.753C1181.11 356.585 1182.73 375.136 1185.98 375.407C1190.86 376.219 1200.07 376.625 1213.61 376.625C1214.15 378.521 1214.42 380.688 1214.42 383.125C1214.42 385.562 1214.15 387.594 1213.61 389.219L1173.39 388C1147.12 388 1125.45 389.083 1108.39 391.25C1107.04 389.625 1106.36 387.323 1106.36 384.344L1106.77 381.094C1120.85 377.844 1130.06 372.834 1134.39 366.063C1137.91 360.647 1140.21 353.876 1141.3 345.752C1144.55 321.107 1146.17 283.057 1146.17 231.601V163.76C1146.17 126.928 1144.55 108.377 1141.3 108.106C1136.42 107.294 1127.22 106.888 1113.67 106.888C1113.13 104.992 1112.86 102.825 1112.86 100.388C1112.86 97.9506 1113.13 95.9194 1113.67 94.2945C1113.67 94.2945 1127.62 94.7007 1155.52 95.5132C1180.7 95.5132 1200.07 94.4299 1213.61 92.2633C1214.69 94.4299 1215.23 97.8151 1215.23 102.419C1207.38 104.315 1201.28 107.429 1196.95 111.762C1192.62 115.825 1189.91 119.616 1188.83 123.137C1184.76 136.136 1182.19 170.801 1181.11 227.132C1208.19 228.215 1237.17 228.757 1268.04 228.757L1344.01 227.132V163.76C1344.01 126.928 1342.38 108.377 1339.13 108.106C1333.99 107.294 1324.78 106.888 1311.51 106.888C1310.7 104.992 1310.29 102.825 1310.29 100.388C1310.29 97.9506 1310.7 95.9194 1311.51 94.2945L1353.35 95.5132C1378.54 95.5132 1397.77 94.4299 1411.04 92.2633C1412.12 94.7007 1412.66 98.086 1412.66 102.419C1404.81 104.586 1398.71 107.7 1394.38 111.762C1390.05 115.825 1387.2 119.752 1385.85 123.543C1384.77 127.064 1383.95 131.803 1383.41 137.761C1380.16 166.468 1378.54 198.425 1378.54 233.632V319.753C1378.54 356.585 1380.16 375.136 1383.41 375.407C1388.56 376.219 1398.58 376.625 1413.47 376.625C1414.01 378.521 1414.29 380.688 1414.29 383.125C1414.29 385.562 1414.01 387.594 1413.47 389.219L1371.23 388C1342.25 388 1318.69 389.083 1300.54 391.25C1299.19 389.625 1298.51 387.323 1298.51 384.344L1298.92 381.094C1315.17 377.302 1325.59 373.105 1330.2 368.501C1335.07 363.897 1338.05 356.314 1339.13 345.752C1342.11 318.128 1343.74 284.546 1344.01 245.006ZM1749.37 242.975C1749.37 261.933 1746.66 279.401 1741.25 295.379C1736.1 311.087 1729.47 324.086 1721.34 334.377C1713.49 344.398 1704.28 353.47 1693.72 361.595C1683.16 369.449 1673 375.542 1663.25 379.875C1653.77 383.938 1644.16 387.323 1634.41 390.031C1620.06 394.093 1609.22 396.125 1601.91 396.125C1562.37 396.125 1528.65 381.5 1500.76 352.251C1472.86 322.732 1458.92 286.307 1458.92 242.975C1458.92 224.018 1461.49 206.685 1466.64 190.978C1472.05 174.999 1478.69 161.864 1486.54 151.573C1494.67 141.282 1504.01 132.209 1514.57 124.356C1525.13 116.231 1535.29 110.002 1545.04 105.669C1554.79 101.336 1564.4 97.8151 1573.88 95.1069C1587.96 91.0446 1598.93 89.0134 1606.79 89.0134C1646.05 89.0134 1679.64 104.044 1707.53 134.105C1735.43 163.895 1749.37 200.185 1749.37 242.975ZM1614.5 375C1645.11 375 1668.26 364.709 1683.97 344.127C1699.95 323.274 1707.94 296.598 1707.94 264.099C1707.94 238.913 1703.33 214.674 1694.13 191.384C1685.19 168.093 1671.92 148.729 1654.31 133.293C1636.71 117.585 1616.94 109.731 1595 109.731C1564.4 109.731 1540.84 120.429 1524.32 141.824C1508.07 162.948 1499.95 189.217 1499.95 220.632C1499.95 245.819 1504.55 270.193 1513.76 293.754C1523.24 317.045 1536.91 336.408 1554.79 351.845C1572.66 367.282 1592.57 375 1614.5 375ZM1955.65 389.625L1886.18 388H1859.37C1828.77 388 1806.15 389.083 1791.53 391.25C1790.17 389.625 1789.5 387.323 1789.5 384.344L1789.9 381.094C1803.99 377.844 1813.19 372.834 1817.53 366.063C1821.05 360.647 1823.76 350.356 1825.65 335.19C1827.82 319.753 1828.9 290.098 1828.9 246.225V164.166C1828.9 127.064 1827.14 108.377 1823.62 108.106C1818.48 107.294 1810.35 106.888 1799.25 106.888C1798.43 104.992 1798.03 102.825 1798.03 100.388C1798.03 97.9506 1798.43 95.9194 1799.25 94.2945L1838.25 95.5132C1863.16 95.5132 1882.39 94.4299 1895.93 92.2633C1897.56 94.4299 1898.37 96.5964 1898.37 98.763L1897.56 102.419C1886.45 105.398 1879.14 109.19 1875.62 113.794C1872.1 118.127 1869.93 124.491 1869.12 132.886C1865.87 166.197 1864.24 202.352 1864.24 241.35V318.128C1864.24 343.585 1865.06 361.459 1866.68 371.751C1876.43 372.834 1887.81 373.376 1900.8 373.376C1928.7 373.376 1956.32 369.719 1983.68 362.407C1988.01 356.178 1991.94 347.918 1995.46 337.627C1999.25 327.065 2001.55 320.701 2002.36 318.534C2003.72 318.263 2005.75 318.128 2008.46 318.128C2011.16 318.128 2014.14 319.347 2017.39 321.784C2016.31 327.471 2014.55 339.388 2012.11 357.533C2009.68 375.678 2008.19 385.021 2007.64 385.562C2004.12 388.271 1986.79 389.625 1955.65 389.625ZM2197.81 389.219L2131.19 388C2101.94 388 2077.71 389.083 2058.48 391.25C2057.12 389.625 2056.45 387.323 2056.45 384.344L2056.85 381.094C2075.54 378.115 2087.86 374.323 2093.82 369.719C2099.78 364.845 2103.7 356.991 2105.6 346.158C2109.39 326.117 2111.29 292.535 2111.29 245.413C2111.29 198.29 2110.75 165.385 2109.66 146.698C2108.58 128.012 2107.22 116.366 2105.6 111.762C2098.83 110.408 2090.57 109.731 2080.82 109.731C2058.07 109.731 2040.33 112.71 2027.6 118.668L2009.73 163.354C2003.5 163.354 1998.9 162.271 1995.92 160.104L2002.42 97.1381C2002.42 94.159 2004.72 92.6695 2009.32 92.6695L2080.82 95.5132H2180.35L2258.34 92.6695C2263.22 92.6695 2265.65 94.159 2265.65 97.1381C2261.32 120.97 2259.16 142.771 2259.16 162.541C2256.99 163.625 2254.28 164.166 2251.03 164.166C2247.78 164.166 2245.21 163.625 2243.31 162.541C2238.44 135.73 2235.73 121.106 2235.19 118.668C2221.65 112.71 2203.1 109.731 2179.53 109.731C2168.97 109.731 2160.44 110.408 2153.94 111.762C2153.13 114.2 2152.05 125.439 2150.69 145.48C2149.61 165.52 2149.07 191.248 2149.07 222.664V295.379C2149.07 325.44 2151.23 351.574 2155.57 373.782C2168.02 375.678 2182.11 376.625 2197.81 376.625C2198.63 378.792 2199.03 381.229 2199.03 383.938C2199.03 386.375 2198.63 388.135 2197.81 389.219Z" fill="#21221C"/>
<path d="M2673.19 219.428L2642.32 218.705H2632.75C2618.78 218.705 2608.73 219.187 2602.59 220.15C2601.99 219.428 2601.69 218.404 2601.69 217.08L2601.87 215.636C2608.13 214.192 2612.22 211.965 2614.15 208.956C2615.71 206.548 2616.74 203.539 2617.22 199.928C2618.66 188.975 2619.39 174.05 2619.39 155.153C2619.39 115.553 2618.3 95.3915 2616.14 94.6693C2613.85 94.0675 2609.88 93.7666 2604.22 93.7666C2603.98 92.924 2603.86 91.9611 2603.86 90.8778C2603.86 89.7945 2603.98 88.8918 2604.22 88.1696L2631.66 88.7112H2652.43L2695.04 87.4474C2697.08 87.4474 2698.1 88.1094 2698.1 89.4334C2698.1 89.5538 2697.92 90.9982 2697.56 93.7666C2696.36 101.229 2695.52 109.595 2695.04 118.863C2693.59 119.585 2692.27 119.946 2691.06 119.946C2689.98 119.946 2688.96 119.705 2687.99 119.224C2686.55 108.271 2685.47 101.47 2684.74 98.8219C2673.79 96.2942 2663.92 95.0304 2655.13 95.0304C2646.47 95.0304 2640.45 95.2711 2637.08 95.7526C2635.64 103.456 2634.91 120.608 2634.91 147.209C2636.84 147.69 2641.95 147.931 2650.26 147.931C2658.56 147.931 2664.76 147.69 2668.86 147.209C2672.95 146.727 2675.9 145.764 2677.7 144.32C2679.63 142.875 2681.07 139.926 2682.04 135.473C2684.56 135.473 2686.43 135.834 2687.63 136.556C2686.43 143.417 2685.83 148.472 2685.83 151.722L2686.19 167.43C2685.35 168.032 2684.26 168.333 2682.94 168.333L2680.41 167.972L2678.42 156.055C2671.93 154.972 2664.34 154.43 2655.68 154.43C2647.01 154.43 2640.09 154.731 2634.91 155.333V187.651C2634.91 198.965 2635.27 206.91 2636 211.483C2639.73 211.965 2644 212.206 2648.82 212.206C2661.21 212.206 2673.49 210.581 2685.65 207.331C2687.45 204.442 2689.2 200.711 2690.88 196.137C2692.57 191.443 2693.53 188.674 2693.77 187.832C2694.49 187.711 2695.46 187.651 2696.66 187.651C2697.86 187.651 2699.19 188.193 2700.63 189.276C2698.83 197.822 2697.5 206.669 2696.66 215.817C2696.54 217.261 2695.76 218.043 2694.31 218.164C2689.02 219.006 2681.98 219.428 2673.19 219.428ZM2772.56 135.112C2772.2 134.149 2772.02 133.126 2772.02 132.043C2772.02 130.959 2772.2 130.177 2772.56 129.695H2787.19C2791.76 129.695 2796.76 129.274 2802.17 128.432C2803.02 129.395 2803.44 130.899 2803.44 132.945C2800.91 133.908 2798.68 135.112 2796.76 136.556C2794.83 138.001 2791.88 140.769 2787.91 144.861C2783.94 148.954 2781.05 152.083 2779.25 154.25L2765.16 170.86L2776.36 188.554C2784.18 200.951 2788.99 208.234 2790.8 210.4C2792.73 212.446 2794.83 213.469 2797.12 213.469H2804.16C2804.4 214.432 2804.52 215.335 2804.52 216.178C2804.52 216.9 2804.4 217.742 2804.16 218.705C2797.06 218.705 2791.64 218.946 2787.91 219.428C2784.3 220.029 2782.31 220.33 2781.95 220.33C2779.18 220.33 2773.11 212.085 2763.72 195.595L2755.05 180.971L2751.08 186.387C2742.29 198.183 2736.94 207.09 2735.01 213.108C2737.9 213.469 2741.51 213.65 2745.84 213.65C2746.2 214.493 2746.39 215.455 2746.39 216.539C2746.39 217.622 2746.2 218.525 2745.84 219.247C2740.67 218.886 2735.25 218.705 2729.59 218.705C2723.94 218.705 2719.18 219.006 2715.33 219.608C2714.49 218.886 2714.07 217.803 2714.07 216.358L2714.25 215.094C2717.38 214.252 2720.15 212.627 2722.55 210.22C2726.89 205.766 2731.82 199.868 2737.36 192.526L2751.08 174.471L2742.95 160.208C2737.3 150.218 2733.21 143.537 2730.68 140.167C2728.27 136.797 2725.86 135.112 2723.46 135.112H2714.97C2714.73 133.668 2714.61 132.584 2714.61 131.862C2714.61 131.019 2714.67 130.297 2714.79 129.695C2719.84 129.455 2725.08 128.913 2730.5 128.071C2735.91 127.228 2739.04 126.807 2739.89 126.807C2740.49 126.807 2743.56 131.982 2749.09 142.334C2754.63 152.685 2758.84 160.268 2761.73 165.083L2772.56 151.722C2777.5 145.584 2780.93 140.227 2782.86 135.654C2780.93 135.292 2777.5 135.112 2772.56 135.112ZM2853.66 126.807C2865.34 126.807 2874.96 130.297 2882.55 137.278C2882.19 139.325 2880.92 141.491 2878.76 143.778C2876.71 146.065 2874.36 147.509 2871.71 148.111C2867.86 143.537 2864.01 140.047 2860.16 137.64C2856.31 135.232 2851.55 134.029 2845.9 134.029C2840.36 134.029 2835.3 137.7 2830.73 145.042C2826.16 152.264 2823.87 159.787 2823.87 167.61C2823.87 175.314 2824.83 182.235 2826.76 188.373C2828.8 194.512 2832.24 199.688 2837.05 203.9C2841.86 208.113 2847.7 210.22 2854.56 210.22C2861.54 210.22 2870.39 207.933 2881.1 203.359C2882.19 203.961 2882.73 205.164 2882.73 206.97L2865.22 218.886C2864.01 219.608 2861.78 220.33 2858.53 221.052C2855.29 221.895 2852.64 222.316 2850.59 222.316C2836.99 222.316 2826.64 217.863 2819.54 208.956C2812.44 200.049 2808.88 188.855 2808.88 175.374C2808.88 167.43 2810.33 160.389 2813.22 154.25C2816.11 147.991 2819.48 143.237 2823.33 139.987C2827.18 136.616 2831.39 133.848 2835.97 131.681C2843.31 128.432 2849.21 126.807 2853.66 126.807ZM2958.84 152.986L2958.3 197.04C2958.3 205.826 2961.13 210.22 2966.79 210.22L2973.29 210.039C2973.77 210.641 2974.01 211.604 2974.01 212.928L2973.65 214.914C2964.38 216.599 2957.76 219.066 2953.79 222.316C2951.14 221.594 2948.85 219.969 2946.93 217.441C2945.12 214.793 2944.1 212.025 2943.86 209.136C2934.23 215.034 2924.66 219.428 2915.15 222.316C2911.06 222.316 2906.85 220.029 2902.51 215.455C2898.18 210.761 2896.01 204.924 2896.01 197.942C2896.01 194.452 2896.8 191.322 2898.36 188.554C2899.93 185.665 2901.79 183.679 2903.96 182.596C2912.87 178.142 2926.11 174.23 2943.68 170.86V153.708C2943.68 147.088 2942.6 142.153 2940.43 138.903C2938.38 135.654 2935.85 134.029 2932.85 134.029C2929.96 134.029 2926.83 134.57 2923.46 135.654C2920.09 136.616 2917.68 138.542 2916.24 141.431C2914.91 144.32 2914.25 148.412 2914.25 153.708C2914.25 154.19 2913.41 154.731 2911.72 155.333C2910.16 155.815 2908.11 156.055 2905.58 156.055C2903.18 156.055 2901.49 155.514 2900.53 154.43C2899.69 153.227 2899.26 151.482 2899.26 149.195C2899.26 144.861 2902.39 140.167 2908.65 135.112C2910.1 134.149 2914.31 132.524 2921.29 130.237C2928.39 127.95 2932.48 126.807 2933.57 126.807C2942.23 126.807 2948.61 129.334 2952.71 134.39C2956.8 139.445 2958.84 145.644 2958.84 152.986ZM2912.08 197.04C2912.08 199.928 2913.23 203.058 2915.51 206.428C2917.8 209.798 2920.39 211.483 2923.28 211.483C2926.29 211.483 2929.72 210.46 2933.57 208.414C2937.42 206.368 2940.61 204.201 2943.14 201.914C2943.5 194.813 2943.68 186.628 2943.68 177.36C2933.57 178.684 2924.66 181.573 2916.96 186.026C2913.71 187.591 2912.08 191.262 2912.08 197.04ZM2993.18 129.695L3008.34 129.154C3008.71 129.756 3008.89 130.658 3008.89 131.862L3008.34 134.751C3004.61 134.751 3001.96 134.871 3000.4 135.112C3001.48 143.658 3004.31 152.986 3008.89 163.097L3024.77 197.942L3037.23 164.541C3041.56 152.866 3044.27 143.237 3045.36 135.654C3041.75 135.052 3037.89 134.751 3033.8 134.751C3033.56 133.908 3033.44 132.945 3033.44 131.862C3033.44 130.658 3033.56 129.756 3033.8 129.154C3038.62 129.515 3043.85 129.695 3049.51 129.695C3055.29 129.695 3060.34 129.334 3064.67 128.612C3065.52 129.936 3065.94 131.501 3065.94 133.306C3062.93 134.63 3060.76 135.954 3059.44 137.278C3055.35 141.371 3051.56 147.81 3048.06 156.597L3021.34 222.316H3018.64L2991.91 159.486C2986.98 147.57 2983.07 140.047 2980.18 136.917C2978.61 134.992 2976.21 133.547 2972.96 132.584C2972.84 132.223 2972.78 131.561 2972.78 130.598C2972.78 129.635 2973.14 128.733 2973.86 127.89C2982.16 129.094 2988.6 129.695 2993.18 129.695ZM3137.45 152.986L3136.91 197.04C3136.91 205.826 3139.74 210.22 3145.4 210.22L3151.9 210.039C3152.38 210.641 3152.62 211.604 3152.62 212.928L3152.26 214.914C3142.99 216.599 3136.37 219.066 3132.4 222.316C3129.75 221.594 3127.46 219.969 3125.54 217.441C3123.73 214.793 3122.71 212.025 3122.47 209.136C3112.84 215.034 3103.27 219.428 3093.76 222.316C3089.67 222.316 3085.45 220.029 3081.12 215.455C3076.79 210.761 3074.62 204.924 3074.62 197.942C3074.62 194.452 3075.4 191.322 3076.97 188.554C3078.53 185.665 3080.4 183.679 3082.57 182.596C3091.47 178.142 3104.71 174.23 3122.29 170.86V153.708C3122.29 147.088 3121.2 142.153 3119.04 138.903C3116.99 135.654 3114.46 134.029 3111.45 134.029C3108.56 134.029 3105.44 134.57 3102.07 135.654C3098.69 136.616 3096.29 138.542 3094.84 141.431C3093.52 144.32 3092.86 148.412 3092.86 153.708C3092.86 154.19 3092.01 154.731 3090.33 155.333C3088.76 155.815 3086.72 156.055 3084.19 156.055C3081.78 156.055 3080.1 155.514 3079.14 154.43C3078.29 153.227 3077.87 151.482 3077.87 149.195C3077.87 144.861 3081 140.167 3087.26 135.112C3088.7 134.149 3092.92 132.524 3099.9 130.237C3107 127.95 3111.09 126.807 3112.18 126.807C3120.84 126.807 3127.22 129.334 3131.31 134.39C3135.41 139.445 3137.45 145.644 3137.45 152.986ZM3090.69 197.04C3090.69 199.928 3091.83 203.058 3094.12 206.428C3096.41 209.798 3099 211.483 3101.88 211.483C3104.89 211.483 3108.32 210.46 3112.18 208.414C3116.03 206.368 3119.22 204.201 3121.74 201.914C3122.11 194.813 3122.29 186.628 3122.29 177.36C3112.18 178.684 3103.27 181.573 3095.57 186.026C3092.32 187.591 3090.69 191.262 3090.69 197.04ZM3188.94 179.888C3188.94 199.868 3192.37 209.859 3199.23 209.859C3204.28 209.859 3210.84 208.173 3218.91 204.803C3220.71 205.405 3221.62 207.09 3221.62 209.859C3212.83 214.553 3202.72 218.705 3191.29 222.316C3185.63 222.316 3181.29 219.428 3178.29 213.65C3175.4 207.872 3173.95 200.109 3173.95 190.359V148.472C3173.95 141.371 3173.53 137.82 3172.69 137.82L3159.33 138.001C3158.49 137.76 3158.06 137.158 3158.06 136.195C3158.67 134.992 3159.21 132.825 3159.69 129.695H3172.51C3173.47 129.695 3173.95 127.589 3173.95 123.376L3173.77 108.03C3178.23 106.224 3182.8 102.493 3187.49 96.8359C3188.94 96.8359 3190.02 97.197 3190.74 97.9191C3189.66 110.557 3189.12 121.15 3189.12 129.695C3197.91 129.695 3206.57 129.274 3215.12 128.432C3215.96 128.913 3216.38 129.635 3216.38 130.598C3215.66 131.802 3215.06 134.029 3214.58 137.278L3188.94 137.64V179.888ZM3268.8 219.247L3252.55 218.705C3244.13 218.705 3236.18 219.187 3228.72 220.15C3228 219.187 3227.64 218.164 3227.64 217.08L3228 215.636C3233.18 214.432 3236.67 212.567 3238.47 210.039C3239.8 208.113 3240.82 205.826 3241.54 203.178C3242.26 200.41 3242.62 192.586 3242.62 179.707V162.375C3242.62 154.912 3242.26 149.736 3241.54 146.847C3240.94 143.959 3239.98 142.033 3238.65 141.07C3237.33 140.107 3235.58 139.505 3233.42 139.264L3226.74 138.723C3226.37 138.241 3226.19 137.459 3226.19 136.376L3226.74 134.029C3232.99 132.705 3238.05 131.381 3241.9 130.057C3245.87 128.612 3250.51 126.566 3255.8 123.918C3257.13 123.918 3258.03 124.64 3258.51 126.085C3257.07 134.269 3256.35 153.768 3256.35 184.582C3256.35 190.119 3256.53 196.257 3256.89 202.998C3257.37 209.618 3257.97 212.988 3258.69 213.108C3260.5 213.469 3263.87 213.65 3268.8 213.65C3269.16 214.493 3269.35 215.455 3269.35 216.539C3269.35 217.622 3269.16 218.525 3268.8 219.247ZM3251.83 103.336C3247.5 100.326 3244.43 96.3544 3242.62 91.4194C3244.07 89.7343 3245.99 87.989 3248.4 86.1836C3250.93 84.2577 3253.1 82.9337 3254.9 82.2115C3259.48 85.5817 3262.42 89.614 3263.75 94.3082C3260.38 98.6413 3256.41 101.65 3251.83 103.336ZM3376.66 174.652C3376.66 201.373 3361.13 217.261 3330.08 222.316C3317.32 222.316 3306.55 217.803 3297.76 208.775C3289.09 199.627 3284.76 188.253 3284.76 174.652C3284.76 147.69 3300.35 131.742 3331.52 126.807C3344.16 126.807 3354.81 131.441 3363.48 140.709C3372.27 149.977 3376.66 161.291 3376.66 174.652ZM3334.05 214.553C3351.38 214.553 3360.05 203.479 3360.05 181.332C3360.05 168.814 3357.16 157.861 3351.38 148.472C3345.61 139.084 3337.96 134.39 3328.45 134.39C3318.94 134.39 3312.02 137.459 3307.69 143.598C3303.48 149.616 3301.37 158.282 3301.37 169.596C3301.37 180.79 3304.32 191.082 3310.22 200.47C3316.12 209.859 3324.06 214.553 3334.05 214.553ZM3396.13 137.64L3389.09 137.82C3388.61 137.218 3388.37 136.436 3388.37 135.473C3388.37 134.51 3388.49 133.668 3388.73 132.945C3396.92 131.862 3403.6 130.177 3408.77 127.89C3410.46 127.168 3411.48 126.807 3411.84 126.807C3412.93 126.807 3414.25 128.492 3415.81 131.862C3417.38 135.232 3418.7 138.964 3419.79 143.056C3431.94 136.195 3443.8 130.779 3455.35 126.807C3462.7 126.807 3468.35 129.756 3472.33 135.654C3476.3 141.431 3478.28 149.134 3478.28 158.764L3477.92 182.596C3477.92 202.697 3478.83 212.928 3480.63 213.289C3482.44 213.53 3485.81 213.65 3490.74 213.65C3491.22 214.493 3491.46 215.395 3491.46 216.358C3491.46 217.321 3491.22 218.284 3490.74 219.247L3474.13 218.705C3464.14 218.705 3456.2 219.187 3450.3 220.15C3449.7 219.428 3449.4 218.404 3449.4 217.08L3449.58 215.636C3453.07 214.793 3455.78 213.65 3457.7 212.206C3459.63 210.641 3460.83 209.196 3461.31 207.872C3461.91 206.428 3462.4 204.322 3462.76 201.553C3463.12 198.665 3463.3 193.128 3463.3 184.943V169.958C3463.3 161.532 3462.34 154.43 3460.41 148.653C3459.57 146.366 3458.6 144.681 3457.52 143.598C3454.87 140.709 3451.68 139.264 3447.95 139.264C3444.22 139.264 3440.49 139.987 3436.76 141.431C3433.03 142.875 3430.2 144.199 3428.27 145.403C3426.35 146.607 3423.64 148.412 3420.15 150.82C3419.67 160.328 3419.43 173.087 3419.43 189.096C3419.43 204.984 3420.21 213.048 3421.77 213.289C3423.46 213.53 3426.53 213.65 3430.98 213.65C3431.46 214.493 3431.7 215.395 3431.7 216.358C3431.7 217.321 3431.46 218.284 3430.98 219.247L3415.63 218.705C3406.49 218.705 3398.54 219.187 3391.8 220.15C3391.2 219.428 3390.9 218.404 3390.9 217.08L3391.08 215.636C3394.57 214.793 3397.28 213.65 3399.2 212.206C3401.13 210.641 3402.33 209.196 3402.81 207.872C3403.42 206.428 3403.9 203.84 3404.26 200.109C3404.74 196.257 3404.98 188.072 3404.98 175.555C3404.98 163.037 3404.92 156.116 3404.8 154.792C3404.8 153.347 3404.74 151.542 3404.62 149.375C3404.5 147.209 3404.26 145.584 3403.9 144.5C3403.54 143.417 3403 142.274 3402.27 141.07C3401.07 138.783 3399.02 137.64 3396.13 137.64ZM3555.35 138.001C3551.74 134.871 3547.11 133.306 3541.45 133.306C3529.77 133.306 3523.94 138.001 3523.94 147.389C3523.94 150.398 3525.02 153.287 3527.19 156.055C3529.47 158.703 3532.24 160.81 3535.49 162.375L3549.57 169.055C3563.3 175.675 3570.16 184.522 3570.16 195.595C3570.16 203.78 3566.91 210.28 3560.41 215.094C3553.91 219.909 3546.2 222.316 3537.3 222.316C3532.6 222.316 3527.67 221.835 3522.49 220.872C3517.44 220.029 3513.83 219.127 3511.66 218.164C3511.3 212.747 3510.21 205.224 3508.41 195.595C3509.73 194.753 3510.82 194.331 3511.66 194.331C3512.62 194.331 3513.28 194.452 3513.65 194.693C3516.05 201.914 3518.16 206.548 3519.96 208.595C3521.29 209.919 3523.64 211.363 3527.01 212.928C3530.38 214.493 3534.35 215.275 3538.92 215.275C3543.62 215.275 3547.65 214.011 3551.02 211.483C3554.39 208.956 3556.07 205.164 3556.07 200.109C3556.07 196.739 3555.41 194.211 3554.09 192.526C3552.76 190.841 3551.62 189.577 3550.66 188.734C3549.81 187.772 3548.79 186.929 3547.59 186.207C3546.5 185.485 3545.54 184.943 3544.7 184.582C3543.98 184.1 3543.19 183.679 3542.35 183.318C3541.63 182.837 3541.21 182.596 3541.09 182.596L3527.55 176.096C3515.87 170.559 3510.03 162.555 3510.03 152.083C3510.03 143.537 3513.28 137.218 3519.78 133.126C3526.28 128.913 3533.63 126.807 3541.81 126.807C3545.78 126.807 3550.24 127.348 3555.17 128.432C3560.23 129.395 3564.02 130.418 3566.55 131.501C3565.7 134.39 3564.74 141.13 3563.66 151.722C3563.06 152.204 3562.21 152.444 3561.13 152.444C3560.17 152.444 3559.2 152.324 3558.24 152.083C3557.28 146.065 3556.31 141.371 3555.35 138.001ZM2656.04 396.247L2626.97 395.705C2614.93 395.705 2606.27 396.006 2600.97 396.608C2600.25 395.645 2599.89 394.381 2599.89 392.817L2621.55 371.873C2621.91 371.512 2623.42 370.128 2626.07 367.72C2628.71 365.313 2630.88 363.327 2632.57 361.762C2634.25 360.077 2636.42 357.79 2639.07 354.902C2641.71 351.892 2643.88 349.124 2645.57 346.596C2649.54 340.578 2651.52 334.981 2651.52 329.806C2651.52 324.509 2649.6 320.116 2645.75 316.626C2641.89 313.135 2637.5 311.39 2632.57 311.39C2627.63 311.39 2621.79 313.015 2615.05 316.264C2613.61 324.81 2612.77 330.889 2612.53 334.5C2611.56 334.981 2610.6 335.222 2609.64 335.222C2608.79 335.222 2608.07 335.102 2607.47 334.861C2606.99 327.278 2606.27 322.102 2605.3 319.334C2604.46 316.445 2604.04 314.94 2604.04 314.82C2604.04 313.255 2604.94 312.112 2606.75 311.39C2614.09 308.26 2623.96 304.83 2636.36 301.099C2645.02 301.099 2652.37 303.085 2658.38 307.057C2664.4 311.029 2667.41 317.288 2667.41 325.833C2667.41 334.379 2662.12 343.648 2651.52 353.638L2619.39 384.15H2638.52C2649.12 384.15 2656.34 383.789 2660.19 383.067C2664.16 382.224 2667.11 380.72 2669.04 378.553C2669.64 377.831 2670.78 375.604 2672.47 371.873C2672.71 371.753 2673.37 371.693 2674.45 371.693C2675.54 371.693 2676.44 372.054 2677.16 372.776C2676.8 374.942 2676.38 377.289 2675.9 379.817C2675.42 382.224 2675.05 384.03 2674.81 385.234C2674.33 389.085 2674.09 392.034 2674.09 394.08C2671.68 395.525 2665.67 396.247 2656.04 396.247ZM2737.15 301.099C2750.15 301.099 2760.44 305.793 2768.02 315.181C2775.73 324.449 2779.58 336.426 2779.58 351.11C2779.58 365.795 2775.67 377.109 2767.84 385.053C2760.02 392.997 2749.31 397.752 2735.7 399.316C2722.59 399.316 2712.29 394.803 2704.83 385.775C2697.37 376.627 2693.64 364.651 2693.64 349.846C2693.64 334.921 2697.49 323.486 2705.19 315.542C2713.02 307.478 2723.67 302.663 2737.15 301.099ZM2733 316.806C2722.52 316.806 2714.82 319.153 2709.89 323.847C2705.07 328.542 2702.66 335.944 2702.66 346.055C2702.66 356.045 2706.22 364.892 2713.32 372.595C2720.42 380.178 2729.14 383.97 2739.5 383.97C2749.85 383.97 2757.49 381.502 2762.43 376.567C2767.36 371.512 2769.83 364.049 2769.83 354.179C2769.83 344.189 2766.34 335.463 2759.36 328C2752.38 320.537 2743.59 316.806 2733 316.806ZM2843.82 301.099C2856.82 301.099 2867.11 305.793 2874.69 315.181C2882.4 324.449 2886.25 336.426 2886.25 351.11C2886.25 365.795 2882.34 377.109 2874.51 385.053C2866.69 392.997 2855.98 397.752 2842.38 399.316C2829.26 399.316 2818.96 394.803 2811.5 385.775C2804.04 376.627 2800.31 364.651 2800.31 349.846C2800.31 334.921 2804.16 323.486 2811.86 315.542C2819.69 307.478 2830.34 302.663 2843.82 301.099ZM2839.67 316.806C2829.2 316.806 2821.49 319.153 2816.56 323.847C2811.74 328.542 2809.34 335.944 2809.34 346.055C2809.34 356.045 2812.89 364.892 2819.99 372.595C2827.09 380.178 2835.82 383.97 2846.17 383.97C2856.52 383.97 2864.16 381.502 2869.1 376.567C2874.03 371.512 2876.5 364.049 2876.5 354.179C2876.5 344.189 2873.01 335.463 2866.03 328C2859.05 320.537 2850.26 316.806 2839.67 316.806ZM2957.71 396.247L2928.65 395.705C2916.61 395.705 2907.94 396.006 2902.65 396.608C2901.92 395.645 2901.56 394.381 2901.56 392.817L2923.23 371.873C2923.59 371.512 2925.09 370.128 2927.74 367.72C2930.39 365.313 2932.56 363.327 2934.24 361.762C2935.93 360.077 2938.09 357.79 2940.74 354.902C2943.39 351.892 2945.56 349.124 2947.24 346.596C2951.21 340.578 2953.2 334.981 2953.2 329.806C2953.2 324.509 2951.27 320.116 2947.42 316.626C2943.57 313.135 2939.18 311.39 2934.24 311.39C2929.31 311.39 2923.47 313.015 2916.73 316.264C2915.28 324.81 2914.44 330.889 2914.2 334.5C2913.24 334.981 2912.28 335.222 2911.31 335.222C2910.47 335.222 2909.75 335.102 2909.15 334.861C2908.66 327.278 2907.94 322.102 2906.98 319.334C2906.14 316.445 2905.72 314.94 2905.72 314.82C2905.72 313.255 2906.62 312.112 2908.42 311.39C2915.77 308.26 2925.64 304.83 2938.03 301.099C2946.7 301.099 2954.04 303.085 2960.06 307.057C2966.08 311.029 2969.09 317.288 2969.09 325.833C2969.09 334.379 2963.79 343.648 2953.2 353.638L2921.06 384.15H2940.2C2950.79 384.15 2958.01 383.789 2961.87 383.067C2965.84 382.224 2968.79 380.72 2970.71 378.553C2971.31 377.831 2972.46 375.604 2974.14 371.873C2974.38 371.753 2975.05 371.693 2976.13 371.693C2977.21 371.693 2978.12 372.054 2978.84 372.776C2978.48 374.942 2978.05 377.289 2977.57 379.817C2977.09 382.224 2976.73 384.03 2976.49 385.234C2976.01 389.085 2975.77 392.034 2975.77 394.08C2973.36 395.525 2967.34 396.247 2957.71 396.247ZM3022.03 346.055C3029.74 346.055 3037.02 345.513 3043.88 344.43C3044.96 344.911 3045.51 345.814 3045.51 347.138C3044.66 349.545 3043.88 352.434 3043.16 355.804H3017.34C3009.64 355.804 3002.35 356.346 2995.49 357.429C2994.41 356.948 2993.87 356.045 2993.87 354.721C2994.71 352.314 2995.49 349.425 2996.22 346.055H3022.03ZM3114.63 396.247L3085.57 395.705C3073.53 395.705 3064.86 396.006 3059.57 396.608C3058.85 395.645 3058.48 394.381 3058.48 392.817L3080.15 371.873C3080.51 371.512 3082.02 370.128 3084.66 367.72C3087.31 365.313 3089.48 363.327 3091.16 361.762C3092.85 360.077 3095.01 357.79 3097.66 354.902C3100.31 351.892 3102.48 349.124 3104.16 346.596C3108.13 340.578 3110.12 334.981 3110.12 329.806C3110.12 324.509 3108.19 320.116 3104.34 316.626C3100.49 313.135 3096.1 311.39 3091.16 311.39C3086.23 311.39 3080.39 313.015 3073.65 316.264C3072.21 324.81 3071.36 330.889 3071.12 334.5C3070.16 334.981 3069.2 335.222 3068.23 335.222C3067.39 335.222 3066.67 335.102 3066.07 334.861C3065.59 327.278 3064.86 322.102 3063.9 319.334C3063.06 316.445 3062.64 314.94 3062.64 314.82C3062.64 313.255 3063.54 312.112 3065.34 311.39C3072.69 308.26 3082.56 304.83 3094.95 301.099C3103.62 301.099 3110.96 303.085 3116.98 307.057C3123 311.029 3126.01 317.288 3126.01 325.833C3126.01 334.379 3120.71 343.648 3110.12 353.638L3077.98 384.15H3097.12C3107.71 384.15 3114.94 383.789 3118.79 383.067C3122.76 382.224 3125.71 380.72 3127.63 378.553C3128.24 377.831 3129.38 375.604 3131.06 371.873C3131.3 371.753 3131.97 371.693 3133.05 371.693C3134.13 371.693 3135.04 372.054 3135.76 372.776C3135.4 374.942 3134.98 377.289 3134.49 379.817C3134.01 382.224 3133.65 384.03 3133.41 385.234C3132.93 389.085 3132.69 392.034 3132.69 394.08C3130.28 395.525 3124.26 396.247 3114.63 396.247ZM3195.75 301.099C3208.75 301.099 3219.04 305.793 3226.62 315.181C3234.32 324.449 3238.18 336.426 3238.18 351.11C3238.18 365.795 3234.26 377.109 3226.44 385.053C3218.62 392.997 3207.9 397.752 3194.3 399.316C3181.18 399.316 3170.89 394.803 3163.43 385.775C3155.97 376.627 3152.23 364.651 3152.23 349.846C3152.23 334.921 3156.09 323.486 3163.79 315.542C3171.61 307.478 3182.27 302.663 3195.75 301.099ZM3191.59 316.806C3181.12 316.806 3173.42 319.153 3168.48 323.847C3163.67 328.542 3161.26 335.944 3161.26 346.055C3161.26 356.045 3164.81 364.892 3171.91 372.595C3179.02 380.178 3187.74 383.97 3198.09 383.97C3208.45 383.97 3216.09 381.502 3221.02 376.567C3225.96 371.512 3228.43 364.049 3228.43 354.179C3228.43 344.189 3224.94 335.463 3217.95 328C3210.97 320.537 3202.19 316.806 3191.59 316.806ZM3302.42 301.099C3315.42 301.099 3325.71 305.793 3333.29 315.181C3340.99 324.449 3344.85 336.426 3344.85 351.11C3344.85 365.795 3340.93 377.109 3333.11 385.053C3325.29 392.997 3314.57 397.752 3300.97 399.316C3287.85 399.316 3277.56 394.803 3270.1 385.775C3262.64 376.627 3258.91 364.651 3258.91 349.846C3258.91 334.921 3262.76 323.486 3270.46 315.542C3278.28 307.478 3288.94 302.663 3302.42 301.099ZM3298.27 316.806C3287.79 316.806 3280.09 319.153 3275.15 323.847C3270.34 328.542 3267.93 335.944 3267.93 346.055C3267.93 356.045 3271.48 364.892 3278.59 372.595C3285.69 380.178 3294.41 383.97 3304.76 383.97C3315.12 383.97 3322.76 381.502 3327.69 376.567C3332.63 371.512 3335.1 364.049 3335.1 354.179C3335.1 344.189 3331.61 335.463 3324.62 328C3317.64 320.537 3308.86 316.806 3298.27 316.806ZM3445.74 302.723C3446.7 303.446 3447.3 304.589 3447.55 306.154C3437.19 319.755 3426.12 338.111 3414.32 361.221C3400.24 389.386 3388.45 418.394 3378.94 448.245C3378.46 448.485 3377.91 448.606 3377.31 448.606C3376.71 448.606 3376.17 448.485 3375.69 448.245C3372.8 445.356 3369.37 443.49 3365.4 442.648L3363.41 442.106C3374.97 415.626 3388.09 389.386 3402.77 363.387C3411.8 347.74 3421.06 332.574 3430.57 317.889C3419.62 316.926 3406.68 316.445 3391.76 316.445C3376.83 316.445 3368.47 317.889 3366.66 320.778C3364.97 323.908 3363.71 326.496 3362.87 328.542C3362.51 328.662 3361.85 328.722 3360.88 328.722C3360.04 328.722 3359.08 328.361 3357.99 327.639C3360.76 312.232 3362.15 303.867 3362.15 302.543C3371.17 303.385 3385.56 303.807 3405.3 303.807C3425.04 303.807 3438.52 303.446 3445.74 302.723Z" fill="#21221C"/>
</svg>
