<svg width="5469" height="683" viewBox="0 0 5469 683" fill="none" xmlns="http://www.w3.org/2000/svg">
<path d="M287.136 182.691C259.436 164.913 232.769 156.024 207.135 156.024C181.502 156.024 160.829 163.052 145.119 177.11C129.408 191.167 121.552 208.945 121.552 230.444C121.552 251.529 130.028 269.928 146.979 285.638C163.93 301.349 191.218 318.3 228.841 336.492C289.204 365.846 327.447 397.268 343.571 430.757C351.013 446.468 354.734 463.212 354.734 480.99C354.734 519.441 338.403 549.622 305.741 571.535C273.493 593.447 235.456 604.403 191.631 604.403C168.065 604.403 143.465 602.129 117.831 597.581C92.1979 593.034 73.7997 588.486 62.6367 583.938C58.5022 551.689 51.4737 514.893 41.5511 473.548C48.993 469.827 54.5745 467.967 58.2955 467.967C62.43 467.967 65.5308 468.174 67.598 468.587C79.1744 497.528 89.9239 519.441 99.8466 534.325C108.529 543.42 116.178 550.862 122.793 556.651C129.408 562.025 140.157 567.607 155.041 573.395C170.339 579.183 188.737 582.077 210.236 582.077C231.735 582.077 251.167 574.635 268.532 559.751C285.896 544.867 294.578 525.849 294.578 502.696C294.578 484.091 291.271 470.654 284.656 462.385C278.041 454.117 273.079 447.915 269.772 443.781C266.878 439.646 261.09 434.891 252.407 429.517C243.725 423.729 237.73 419.801 234.422 417.734C231.115 415.666 223.88 411.739 212.717 405.95C201.967 400.162 192.251 394.994 183.569 390.446C175.3 385.485 168.271 381.351 162.483 378.043C156.695 374.735 147.806 369.567 135.816 362.539C123.826 355.097 115.351 349.309 110.389 345.174C105.428 340.626 99.0197 334.631 91.1643 327.189C83.3088 319.748 77.7274 312.926 74.4198 306.724C66.1509 288.946 62.0165 272.202 62.0165 256.491C62.0165 218.454 77.9341 188.893 109.769 167.807C141.604 146.308 180.055 135.558 225.12 135.558C243.725 135.558 264.397 138.039 287.136 143C309.876 147.962 327.447 153.13 339.85 158.505C336.13 172.975 332.615 203.156 329.308 249.049C325.173 251.116 320.832 252.15 316.284 252.15C311.736 252.15 307.809 251.323 304.501 249.669C304.088 244.708 301.607 233.545 297.059 216.18C292.511 198.402 289.204 187.239 287.136 182.691ZM592.054 593.86L509.572 592C468.641 592 435.979 593.654 411.586 596.961C409.519 594.481 408.485 590.966 408.485 586.419L409.105 581.457C433.912 575.669 449.83 569.261 456.858 562.232C464.3 555.204 469.055 543.627 471.122 527.503C476.083 479.957 478.564 428.69 478.564 373.702V301.763C478.564 211.219 475.05 165.533 468.021 164.706C458.512 163.466 444.248 162.846 425.23 162.846C423.989 159.952 423.369 156.644 423.369 152.923C423.369 149.202 423.989 146.101 425.23 143.621L494.688 145.481C533.138 145.481 562.286 143.827 582.132 140.52C583.785 142.587 584.612 147.755 584.612 156.024C570.142 158.091 559.806 163.259 553.604 171.528C547.816 179.383 543.475 189.513 540.58 201.916C536.446 223.415 534.379 271.788 534.379 347.035V461.145C534.379 508.691 535.619 545.488 538.1 571.535C549.263 573.602 567.248 574.635 592.054 574.635C593.295 577.529 593.915 580.837 593.915 584.558L592.054 593.86ZM835.779 572.775C837.019 575.256 837.64 578.77 837.64 583.318C837.64 587.866 837.433 590.76 837.019 592C809.732 593.24 786.786 595.514 768.181 598.822C749.99 602.543 739.86 604.403 737.793 604.403C724.976 604.403 680.531 543.627 604.457 422.075C574.276 374.115 557.532 347.862 554.224 343.314L634.846 267.033C672.469 231.891 698.516 199.435 712.986 169.668C705.544 165.533 689.42 163.052 664.614 162.226C664.2 160.572 663.993 158.298 663.993 155.404L666.474 143C708.232 144.654 733.452 145.481 742.134 145.481C751.23 145.481 768.181 144.448 792.988 142.38C796.295 145.274 797.949 150.442 797.949 157.884C773.142 173.182 751.643 188.893 733.452 205.017L606.938 316.647C685.079 441.093 735.519 516.547 758.258 543.007C773.556 560.785 786.786 570.294 797.949 571.535C804.978 572.361 817.588 572.775 835.779 572.775ZM1166.35 36.9522L1047.27 113.853C1043.97 113.853 1041.28 112.819 1039.21 110.752C1037.15 108.685 1035.7 105.584 1034.87 101.449C1072.08 66.3067 1105.98 32.8178 1136.58 0.982617C1152.29 10.9053 1162.21 22.8951 1166.35 36.9522ZM1299.06 593.86L1226.5 592C1195.08 592 1167.59 593.654 1144.02 596.961C1141.54 593.654 1140.3 590.14 1140.3 586.419L1141.54 581.457C1157.66 577.736 1168.83 573.602 1175.03 569.054C1181.64 564.093 1184.95 558.718 1184.95 552.93C1184.95 547.141 1182.06 535.565 1176.27 518.2L1139.68 425.176C1117.35 423.935 1090.69 423.315 1059.68 423.315L970.994 425.176L955.49 464.866C934.818 516.133 924.482 552.516 924.482 574.015C933.991 574.429 948.462 574.635 967.894 574.635C968.72 577.529 969.134 580.837 969.134 584.558C969.134 588.279 968.72 591.38 967.894 593.86L902.156 592C876.109 592 853.37 593.654 833.938 596.961C831.457 594.067 830.217 590.553 830.217 586.419L831.457 581.457C852.543 575.669 867.84 566.573 877.35 554.17C887.272 541.767 901.949 513.652 921.381 469.827L1074.56 122.535H1084.48L1227.12 487.192C1229.6 495.048 1236.01 510.345 1246.35 533.084C1257.1 555.41 1263.92 568.64 1266.81 572.775C1278.39 574.015 1289.14 574.635 1299.06 574.635C1300.3 577.529 1300.92 580.837 1300.92 584.558C1300.92 588.279 1300.3 591.38 1299.06 593.86ZM980.297 400.989L1059.68 403.47C1088.21 403.47 1112.19 402.85 1131.62 401.609L1059.68 211.839L980.297 400.989ZM1573.22 594.481L1467.17 592H1426.24C1379.52 592 1345 593.654 1322.67 596.961C1320.6 594.481 1319.57 590.966 1319.57 586.419L1320.19 581.457C1341.69 576.496 1355.75 568.847 1362.36 558.511C1367.74 550.242 1371.87 534.531 1374.77 511.379C1378.07 487.812 1379.73 442.54 1379.73 375.562V250.289C1379.73 193.647 1377.04 165.12 1371.66 164.706C1363.81 163.466 1351.41 162.846 1334.45 162.846C1333.21 159.952 1332.59 156.644 1332.59 152.923C1332.59 149.202 1333.21 146.101 1334.45 143.621L1393.99 145.481C1432.03 145.481 1461.38 143.827 1482.05 140.52C1484.53 143.827 1485.78 147.135 1485.78 150.442L1484.53 156.024C1467.58 160.572 1456.42 166.36 1451.05 173.389C1445.67 180.004 1442.36 189.72 1441.12 202.536C1436.16 253.39 1433.68 308.585 1433.68 368.12V485.332C1433.68 524.195 1434.92 551.483 1437.4 567.193C1452.29 568.847 1469.65 569.674 1489.5 569.674C1532.08 569.674 1574.25 564.093 1616.01 552.93C1622.62 543.42 1628.62 530.81 1633.99 515.1C1639.78 498.975 1643.3 489.259 1644.54 485.952C1646.6 485.538 1649.71 485.332 1653.84 485.332C1657.97 485.332 1662.52 487.192 1667.48 490.913C1665.83 499.595 1663.14 517.787 1659.42 545.488C1655.7 573.188 1653.43 587.452 1652.6 588.279C1647.22 592.413 1620.76 594.481 1573.22 594.481ZM2051.8 373.702L1935.83 370.601C1901.1 370.601 1856.86 371.635 1803.12 373.702V487.812C1803.12 544.041 1805.6 572.361 1810.56 572.775C1818 574.015 1832.06 574.635 1852.73 574.635C1853.56 577.529 1853.97 580.837 1853.97 584.558C1853.97 588.279 1853.56 591.38 1852.73 593.86L1791.33 592C1751.23 592 1718.15 593.654 1692.11 596.961C1690.04 594.481 1689.01 590.966 1689.01 586.419L1689.63 581.457C1711.12 576.496 1725.18 568.847 1731.8 558.511C1737.17 550.242 1740.69 539.906 1742.34 527.503C1747.3 489.879 1749.78 431.791 1749.78 353.236V249.669C1749.78 193.441 1747.3 165.12 1742.34 164.706C1734.9 163.466 1720.84 162.846 1700.17 162.846C1699.34 159.952 1698.93 156.644 1698.93 152.923C1698.93 149.202 1699.34 146.101 1700.17 143.621C1700.17 143.621 1721.46 144.241 1764.05 145.481C1802.5 145.481 1832.06 143.827 1852.73 140.52C1854.38 143.827 1855.21 148.995 1855.21 156.024C1843.22 158.918 1833.92 163.673 1827.3 170.288C1820.69 176.489 1816.55 182.278 1814.9 187.652C1808.7 207.498 1804.77 260.418 1803.12 346.415C1844.46 348.068 1888.7 348.895 1935.83 348.895L2051.8 346.415V249.669C2051.8 193.441 2049.32 165.12 2044.36 164.706C2036.5 163.466 2022.45 162.846 2002.19 162.846C2000.95 159.952 2000.33 156.644 2000.33 152.923C2000.33 149.202 2000.95 146.101 2002.19 143.621L2066.07 145.481C2104.52 145.481 2133.87 143.827 2154.13 140.52C2155.78 144.241 2156.61 149.409 2156.61 156.024C2144.62 159.331 2135.32 164.086 2128.7 170.288C2122.09 176.489 2117.75 182.484 2115.68 188.273C2114.02 193.647 2112.78 200.883 2111.96 209.978C2107 253.803 2104.52 302.59 2104.52 356.337V487.812C2104.52 544.041 2107 572.361 2111.96 572.775C2119.81 574.015 2135.11 574.635 2157.85 574.635C2158.68 577.529 2159.09 580.837 2159.09 584.558C2159.09 588.279 2158.68 591.38 2157.85 593.86L2093.35 592C2049.11 592 2013.14 593.654 1985.44 596.961C1983.38 594.481 1982.34 590.966 1982.34 586.419L1982.96 581.457C2007.77 575.669 2023.69 569.261 2030.72 562.232C2038.16 555.204 2042.71 543.627 2044.36 527.503C2048.91 485.332 2051.39 434.065 2051.8 373.702ZM2670.64 370.601C2670.64 399.542 2666.51 426.209 2658.24 450.602C2650.39 474.582 2640.26 494.427 2627.85 510.138C2615.86 525.436 2601.81 539.286 2585.68 551.689C2569.56 563.679 2554.05 572.982 2539.17 579.597C2524.7 585.798 2510.02 590.966 2495.14 595.101C2473.22 601.302 2456.69 604.403 2445.52 604.403C2385.16 604.403 2333.69 582.077 2291.1 537.425C2248.52 492.36 2227.23 436.752 2227.23 370.601C2227.23 341.66 2231.15 315.2 2239.01 291.22C2247.28 266.827 2257.41 246.775 2269.4 231.064C2281.8 215.353 2296.06 201.503 2312.19 189.513C2328.31 177.11 2343.82 167.6 2358.7 160.985C2373.58 154.37 2388.26 148.995 2402.73 144.861C2424.23 138.659 2440.98 135.558 2452.97 135.558C2512.92 135.558 2564.18 158.505 2606.77 204.397C2649.35 249.876 2670.64 305.277 2670.64 370.601ZM2464.75 572.155C2511.47 572.155 2546.82 556.444 2570.8 525.022C2595.19 493.187 2607.39 452.463 2607.39 402.85C2607.39 364.399 2600.36 327.396 2586.3 291.84C2572.66 256.284 2552.4 226.723 2525.53 203.156C2498.65 179.177 2468.47 167.187 2434.98 167.187C2388.26 167.187 2352.29 183.518 2327.07 216.18C2302.27 248.429 2289.86 288.533 2289.86 336.492C2289.86 374.942 2296.89 412.152 2310.95 448.122C2325.42 483.678 2346.3 513.239 2373.58 536.805C2400.87 560.372 2431.26 572.155 2464.75 572.155ZM2985.55 594.481L2879.5 592H2838.57C2791.85 592 2757.33 593.654 2735 596.961C2732.93 594.481 2731.9 590.966 2731.9 586.419L2732.52 581.457C2754.02 576.496 2768.08 568.847 2774.69 558.511C2780.07 550.242 2784.2 534.531 2787.09 511.379C2790.4 487.812 2792.06 442.54 2792.06 375.562V250.289C2792.06 193.647 2789.37 165.12 2783.99 164.706C2776.14 163.466 2763.74 162.846 2746.78 162.846C2745.54 159.952 2744.92 156.644 2744.92 152.923C2744.92 149.202 2745.54 146.101 2746.78 143.621L2806.32 145.481C2844.36 145.481 2873.71 143.827 2894.38 140.52C2896.86 143.827 2898.1 147.135 2898.1 150.442L2896.86 156.024C2879.91 160.572 2868.75 166.36 2863.37 173.389C2858 180.004 2854.69 189.72 2853.45 202.536C2848.49 253.39 2846.01 308.585 2846.01 368.12V485.332C2846.01 524.195 2847.25 551.483 2849.73 567.193C2864.62 568.847 2881.98 569.674 2901.83 569.674C2944.41 569.674 2986.58 564.093 3028.34 552.93C3034.95 543.42 3040.95 530.81 3046.32 515.1C3052.11 498.975 3055.63 489.259 3056.87 485.952C3058.93 485.538 3062.03 485.332 3066.17 485.332C3070.3 485.332 3074.85 487.192 3079.81 490.913C3078.16 499.595 3075.47 517.787 3071.75 545.488C3068.03 573.188 3065.76 587.452 3064.93 588.279C3059.55 592.413 3033.09 594.481 2985.55 594.481ZM3355.25 593.86L3253.54 592C3208.89 592 3171.89 593.654 3142.53 596.961C3140.46 594.481 3139.43 590.966 3139.43 586.419L3140.05 581.457C3168.58 576.909 3187.39 571.121 3196.49 564.093C3205.58 556.651 3211.58 544.661 3214.47 528.123C3220.26 497.528 3223.15 446.261 3223.15 374.322C3223.15 302.383 3222.33 252.15 3220.67 223.622C3219.02 195.094 3216.95 177.316 3214.47 170.288C3204.13 168.22 3191.52 167.187 3176.64 167.187C3141.91 167.187 3114.83 171.735 3095.4 180.831L3068.11 249.049C3058.6 249.049 3051.57 247.395 3047.03 244.087L3056.95 147.962C3056.95 143.414 3060.46 141.14 3067.49 141.14L3176.64 145.481H3328.58L3447.65 141.14C3455.09 141.14 3458.82 143.414 3458.82 147.962C3452.2 184.345 3448.89 217.627 3448.89 247.808C3445.59 249.462 3441.45 250.289 3436.49 250.289C3431.53 250.289 3427.6 249.462 3424.71 247.808C3417.26 206.877 3413.13 184.552 3412.3 180.831C3391.63 171.735 3363.31 167.187 3327.34 167.187C3311.22 167.187 3298.19 168.22 3288.27 170.288C3287.03 174.009 3285.38 191.167 3283.31 221.761C3281.66 252.356 3280.83 291.633 3280.83 339.593V450.602C3280.83 496.495 3284.14 536.392 3290.75 570.294C3309.77 573.188 3331.27 574.635 3355.25 574.635C3356.49 577.943 3357.11 581.664 3357.11 585.798C3357.11 589.519 3356.49 592.207 3355.25 593.86Z" fill="white"/>
<path d="M4080.96 332.463L4033.83 331.361H4019.22C3997.9 331.361 3982.56 332.096 3973.19 333.566C3972.27 332.463 3971.81 330.902 3971.81 328.88L3972.08 326.675C3981.64 324.47 3987.89 321.071 3990.83 316.477C3993.22 312.802 3994.78 308.208 3995.51 302.695C3997.72 285.974 3998.82 263.189 3998.82 234.34C3998.82 173.885 3997.17 143.106 3993.86 142.004C3990.37 141.085 3984.3 140.626 3975.67 140.626C3975.3 139.339 3975.12 137.869 3975.12 136.216C3975.12 134.562 3975.3 133.184 3975.67 132.081L4017.56 132.908H4049.26L4114.31 130.979C4117.43 130.979 4118.99 131.989 4118.99 134.011C4118.99 134.194 4118.72 136.399 4118.17 140.626C4116.33 152.018 4115.04 164.789 4114.31 178.938C4112.1 180.041 4110.08 180.592 4108.25 180.592C4106.59 180.592 4105.03 180.224 4103.56 179.489C4101.35 162.768 4099.7 152.386 4098.6 148.343C4081.88 144.484 4066.81 142.555 4053.4 142.555C4040.17 142.555 4030.98 142.923 4025.83 143.658C4023.63 155.418 4022.52 181.603 4022.52 222.212C4025.46 222.947 4033.27 223.314 4045.95 223.314C4058.63 223.314 4068.1 222.947 4074.34 222.212C4080.59 221.477 4085.09 220.007 4087.85 217.802C4090.79 215.597 4092.99 211.095 4094.46 204.296C4098.32 204.296 4101.17 204.847 4103.01 205.95C4101.17 216.424 4100.25 224.141 4100.25 229.103L4100.8 253.082C4099.52 254.001 4097.86 254.46 4095.84 254.46L4091.98 253.909L4088.95 235.718C4079.03 234.064 4067.45 233.237 4054.22 233.237C4040.99 233.237 4030.43 233.696 4022.52 234.615V283.953C4022.52 301.225 4023.08 313.353 4024.18 320.336C4029.87 321.071 4036.4 321.438 4043.75 321.438C4062.67 321.438 4081.42 318.958 4099.98 313.996C4102.73 309.586 4105.4 303.89 4107.97 296.907C4110.54 289.741 4112.01 285.515 4112.38 284.228C4113.48 284.045 4114.95 283.953 4116.79 283.953C4118.63 283.953 4120.65 284.78 4122.85 286.433C4120.1 299.48 4118.08 312.986 4116.79 326.951C4116.61 329.156 4115.41 330.35 4113.21 330.534C4105.12 331.82 4094.37 332.463 4080.96 332.463ZM4232.67 203.745C4232.12 202.275 4231.84 200.713 4231.84 199.059C4231.84 197.405 4232.12 196.211 4232.67 195.476H4254.99C4261.98 195.476 4269.6 194.833 4277.87 193.546C4279.16 195.016 4279.8 197.313 4279.8 200.437C4275.94 201.907 4272.54 203.745 4269.6 205.95C4266.66 208.155 4262.16 212.381 4256.1 218.629C4250.03 224.876 4245.62 229.654 4242.87 232.961L4221.37 258.319L4238.46 285.331C4250.4 304.257 4257.75 315.374 4260.51 318.682C4263.45 321.806 4266.66 323.368 4270.15 323.368H4280.9C4281.27 324.838 4281.45 326.216 4281.45 327.502C4281.45 328.605 4281.27 329.891 4280.9 331.361C4270.06 331.361 4261.79 331.728 4256.1 332.463C4250.58 333.382 4247.55 333.842 4247 333.842C4242.77 333.842 4233.5 321.255 4219.16 296.08L4205.93 273.754L4199.87 282.023C4186.45 300.031 4178.28 313.629 4175.34 322.816C4179.75 323.368 4185.26 323.643 4191.88 323.643C4192.43 324.93 4192.7 326.4 4192.7 328.053C4192.7 329.707 4192.43 331.085 4191.88 332.188C4183.97 331.637 4175.7 331.361 4167.07 331.361C4158.43 331.361 4151.17 331.82 4145.29 332.739C4144.01 331.637 4143.36 329.983 4143.36 327.778L4143.64 325.848C4148.42 324.562 4152.64 322.081 4156.32 318.406C4162.93 311.607 4170.47 302.604 4178.92 291.395L4199.87 263.832L4187.47 242.057C4178.83 226.806 4172.58 216.607 4168.72 211.462C4165.05 206.317 4161.37 203.745 4157.7 203.745H4144.74C4144.38 201.54 4144.19 199.886 4144.19 198.783C4144.19 197.497 4144.28 196.395 4144.47 195.476C4152.18 195.108 4160.18 194.281 4168.45 192.995C4176.72 191.709 4181.49 191.066 4182.78 191.066C4183.7 191.066 4188.38 198.967 4196.84 214.77C4205.29 230.573 4211.72 242.149 4216.13 249.499L4232.67 229.103C4240.2 219.731 4245.44 211.554 4248.38 204.572C4245.44 204.02 4240.2 203.745 4232.67 203.745ZM4356.47 191.066C4374.29 191.066 4389 196.395 4400.57 207.052C4400.02 210.176 4398.09 213.484 4394.78 216.975C4391.66 220.466 4388.08 222.671 4384.03 223.59C4378.15 216.607 4372.27 211.279 4366.39 207.604C4360.51 203.928 4353.26 202.091 4344.62 202.091C4336.17 202.091 4328.45 207.695 4321.47 218.904C4314.48 229.929 4310.99 241.414 4310.99 253.358C4310.99 265.118 4312.46 275.684 4315.4 285.055C4318.53 294.427 4323.76 302.328 4331.11 308.759C4338.46 315.191 4347.38 318.406 4357.85 318.406C4368.51 318.406 4382.01 314.915 4398.37 307.932C4400.02 308.851 4400.85 310.689 4400.85 313.445L4374.11 331.637C4372.27 332.739 4368.87 333.842 4363.91 334.944C4358.95 336.23 4354.91 336.873 4351.79 336.873C4331.02 336.873 4315.22 330.075 4304.38 316.477C4293.54 302.879 4288.11 285.79 4288.11 265.21C4288.11 253.082 4290.32 242.333 4294.73 232.961C4299.14 223.406 4304.29 216.148 4310.17 211.187C4316.05 206.042 4322.48 201.815 4329.46 198.508C4340.67 193.546 4349.67 191.066 4356.47 191.066ZM4517.05 231.032L4516.22 298.285C4516.22 311.699 4520.54 318.406 4529.18 318.406L4539.1 318.131C4539.83 319.049 4540.2 320.519 4540.2 322.541L4539.65 325.573C4525.5 328.145 4515.39 331.912 4509.33 336.873C4505.29 335.771 4501.8 333.29 4498.86 329.431C4496.1 325.389 4494.54 321.163 4494.17 316.753C4479.47 325.756 4464.86 332.463 4450.35 336.873C4444.1 336.873 4437.67 333.382 4431.05 326.4C4424.44 319.233 4421.13 310.321 4421.13 299.664C4421.13 294.335 4422.32 289.557 4424.71 285.331C4427.1 280.921 4429.95 277.889 4433.26 276.235C4446.85 269.436 4467.07 263.464 4493.9 258.319V232.134C4493.9 222.028 4492.24 214.494 4488.93 209.533C4485.81 204.572 4481.95 202.091 4477.36 202.091C4472.95 202.091 4468.17 202.918 4463.03 204.572C4457.88 206.042 4454.2 208.982 4452 213.392C4449.98 217.802 4448.97 224.049 4448.97 232.134C4448.97 232.87 4447.68 233.696 4445.11 234.615C4442.72 235.35 4439.6 235.718 4435.74 235.718C4432.06 235.718 4429.49 234.891 4428.02 233.237C4426.73 231.399 4426.09 228.735 4426.09 225.244C4426.09 218.629 4430.87 211.462 4440.42 203.745C4442.63 202.275 4449.06 199.794 4459.72 196.303C4470.56 192.811 4476.81 191.066 4478.46 191.066C4491.69 191.066 4501.43 194.925 4507.68 202.642C4513.92 210.36 4517.05 219.823 4517.05 231.032ZM4445.66 298.285C4445.66 302.695 4447.41 307.473 4450.9 312.618C4454.39 317.763 4458.34 320.336 4462.75 320.336C4467.34 320.336 4472.58 318.774 4478.46 315.65C4484.34 312.526 4489.21 309.219 4493.07 305.727C4493.62 294.886 4493.9 282.391 4493.9 268.242C4478.46 270.263 4464.86 274.673 4453.1 281.472C4448.14 283.861 4445.66 289.465 4445.66 298.285ZM4569.46 195.476L4592.62 194.649C4593.17 195.568 4593.44 196.946 4593.44 198.783L4592.62 203.193C4586.92 203.193 4582.88 203.377 4580.49 203.745C4582.14 216.791 4586.46 231.032 4593.44 246.467L4617.7 299.664L4636.72 248.672C4643.33 230.848 4647.47 216.148 4649.12 204.572C4643.61 203.653 4637.73 203.193 4631.48 203.193C4631.11 201.907 4630.93 200.437 4630.93 198.783C4630.93 196.946 4631.11 195.568 4631.48 194.649C4638.83 195.2 4646.82 195.476 4655.46 195.476C4664.28 195.476 4672 194.925 4678.61 193.822C4679.9 195.843 4680.54 198.232 4680.54 200.988C4675.95 203.01 4672.64 205.031 4670.62 207.052C4664.37 213.3 4658.58 223.131 4653.25 236.545L4612.46 336.873H4608.33L4567.53 240.955C4560 222.763 4554.03 211.279 4549.62 206.501C4547.23 203.561 4543.55 201.356 4538.59 199.886C4538.41 199.335 4538.32 198.324 4538.32 196.854C4538.32 195.384 4538.87 194.006 4539.97 192.72C4552.65 194.557 4562.48 195.476 4569.46 195.476ZM4789.72 231.032L4788.89 298.285C4788.89 311.699 4793.21 318.406 4801.84 318.406L4811.77 318.131C4812.5 319.049 4812.87 320.519 4812.87 322.541L4812.32 325.573C4798.17 328.145 4788.06 331.912 4782 336.873C4777.96 335.771 4774.46 333.29 4771.52 329.431C4768.77 325.389 4767.21 321.163 4766.84 316.753C4752.14 325.756 4737.53 332.463 4723.01 336.873C4716.77 336.873 4710.34 333.382 4703.72 326.4C4697.11 319.233 4693.8 310.321 4693.8 299.664C4693.8 294.335 4694.99 289.557 4697.38 285.331C4699.77 280.921 4702.62 277.889 4705.93 276.235C4719.52 269.436 4739.74 263.464 4766.56 258.319V232.134C4766.56 222.028 4764.91 214.494 4761.6 209.533C4758.48 204.572 4754.62 202.091 4750.03 202.091C4745.62 202.091 4740.84 202.918 4735.69 204.572C4730.55 206.042 4726.87 208.982 4724.67 213.392C4722.65 217.802 4721.64 224.049 4721.64 232.134C4721.64 232.87 4720.35 233.696 4717.78 234.615C4715.39 235.35 4712.26 235.718 4708.41 235.718C4704.73 235.718 4702.16 234.891 4700.69 233.237C4699.4 231.399 4698.76 228.735 4698.76 225.244C4698.76 218.629 4703.54 211.462 4713.09 203.745C4715.3 202.275 4721.73 199.794 4732.39 196.303C4743.23 192.811 4749.47 191.066 4751.13 191.066C4764.36 191.066 4774.1 194.925 4780.35 202.642C4786.59 210.36 4789.72 219.823 4789.72 231.032ZM4718.33 298.285C4718.33 302.695 4720.07 307.473 4723.57 312.618C4727.06 317.763 4731.01 320.336 4735.42 320.336C4740.01 320.336 4745.25 318.774 4751.13 315.65C4757.01 312.526 4761.88 309.219 4765.74 305.727C4766.29 294.886 4766.56 282.391 4766.56 268.242C4751.13 270.263 4737.53 274.673 4725.77 281.472C4720.81 283.861 4718.33 289.465 4718.33 298.285ZM4868.32 272.101C4868.32 302.604 4873.55 317.855 4884.03 317.855C4891.74 317.855 4901.76 315.283 4914.07 310.137C4916.83 311.056 4918.2 313.629 4918.2 317.855C4904.79 325.021 4889.36 331.361 4871.9 336.873C4863.26 336.873 4856.65 332.463 4852.05 323.643C4847.64 314.823 4845.44 302.971 4845.44 288.087V224.141C4845.44 213.3 4844.8 207.879 4843.51 207.879L4823.11 208.155C4821.83 207.787 4821.18 206.869 4821.18 205.398C4822.1 203.561 4822.93 200.253 4823.66 195.476H4843.23C4844.7 195.476 4845.44 192.26 4845.44 185.829L4845.16 162.4C4851.96 159.644 4858.94 153.948 4866.11 145.311C4868.32 145.311 4869.97 145.863 4871.07 146.965C4869.42 166.259 4868.59 182.429 4868.59 195.476C4882.01 195.476 4895.24 194.833 4908.28 193.546C4909.57 194.281 4910.21 195.384 4910.21 196.854C4909.11 198.692 4908.19 202.091 4907.46 207.052L4868.32 207.604V272.101ZM4990.24 332.188L4965.43 331.361C4952.57 331.361 4940.44 332.096 4929.05 333.566C4927.95 332.096 4927.4 330.534 4927.4 328.88L4927.95 326.675C4935.85 324.838 4941.18 321.99 4943.94 318.131C4945.96 315.191 4947.52 311.699 4948.62 307.657C4949.72 303.431 4950.27 291.487 4950.27 271.825V245.365C4950.27 233.972 4949.72 226.071 4948.62 221.661C4947.7 217.251 4946.23 214.31 4944.21 212.84C4942.19 211.37 4939.52 210.452 4936.22 210.084L4926.02 209.257C4925.47 208.522 4925.19 207.328 4925.19 205.674L4926.02 202.091C4935.57 200.07 4943.29 198.048 4949.17 196.027C4955.24 193.822 4962.31 190.698 4970.4 186.656C4972.42 186.656 4973.79 187.758 4974.53 189.963C4972.32 202.458 4971.22 232.226 4971.22 279.267C4971.22 287.72 4971.5 297.091 4972.05 307.381C4972.78 317.488 4973.7 322.633 4974.81 322.816C4977.56 323.368 4982.71 323.643 4990.24 323.643C4990.79 324.93 4991.07 326.4 4991.07 328.053C4991.07 329.707 4990.79 331.085 4990.24 332.188ZM4964.33 155.234C4957.72 150.64 4953.03 144.576 4950.27 137.043C4952.48 134.47 4955.42 131.806 4959.09 129.049C4962.95 126.109 4966.26 124.088 4969.02 122.985C4976 128.131 4980.5 134.286 4982.52 141.453C4977.38 148.068 4971.31 152.661 4964.33 155.234ZM5154.9 264.107C5154.9 304.901 5131.19 329.156 5083.78 336.873C5064.31 336.873 5047.86 329.983 5034.45 316.201C5021.22 302.236 5014.6 284.871 5014.6 264.107C5014.6 222.947 5038.4 198.6 5085.99 191.066C5105.28 191.066 5121.55 198.14 5134.78 212.289C5148.19 226.438 5154.9 243.711 5154.9 264.107ZM5089.85 325.021C5116.31 325.021 5129.54 308.116 5129.54 274.306C5129.54 255.195 5125.13 238.474 5116.31 224.141C5107.49 209.809 5095.82 202.642 5081.3 202.642C5066.79 202.642 5056.22 207.328 5049.61 216.699C5043.18 225.887 5039.96 239.117 5039.96 256.39C5039.96 273.479 5044.46 289.19 5053.47 303.522C5062.47 317.855 5074.6 325.021 5089.85 325.021ZM5184.63 207.604L5173.88 207.879C5173.14 206.96 5172.78 205.766 5172.78 204.296C5172.78 202.826 5172.96 201.54 5173.33 200.437C5185.82 198.783 5196.02 196.211 5203.92 192.72C5206.49 191.617 5208.06 191.066 5208.61 191.066C5210.26 191.066 5212.28 193.638 5214.67 198.783C5217.06 203.928 5219.08 209.625 5220.74 215.872C5239.29 205.398 5257.39 197.13 5275.03 191.066C5286.24 191.066 5294.88 195.568 5300.94 204.572C5307.01 213.392 5310.04 225.152 5310.04 239.852L5309.49 276.235C5309.49 306.922 5310.87 322.541 5313.62 323.092C5316.38 323.46 5321.52 323.643 5329.06 323.643C5329.79 324.93 5330.16 326.308 5330.16 327.778C5330.16 329.248 5329.79 330.718 5329.06 332.188L5303.7 331.361C5288.45 331.361 5276.32 332.096 5267.32 333.566C5266.4 332.463 5265.94 330.902 5265.94 328.88L5266.21 326.675C5271.54 325.389 5275.68 323.643 5278.62 321.438C5281.56 319.049 5283.4 316.844 5284.13 314.823C5285.05 312.618 5285.78 309.402 5286.34 305.176C5286.89 300.766 5287.16 292.313 5287.16 279.818V256.941C5287.16 244.078 5285.69 233.237 5282.75 224.417C5281.47 220.926 5280 218.353 5278.34 216.699C5274.3 212.289 5269.43 210.084 5263.73 210.084C5258.04 210.084 5252.34 211.187 5246.64 213.392C5240.95 215.597 5236.63 217.618 5233.69 219.456C5230.75 221.293 5226.62 224.049 5221.29 227.724C5220.55 242.241 5220.18 261.719 5220.18 286.158C5220.18 310.413 5221.38 322.725 5223.77 323.092C5226.34 323.46 5231.03 323.643 5237.82 323.643C5238.56 324.93 5238.93 326.308 5238.93 327.778C5238.93 329.248 5238.56 330.718 5237.82 332.188L5214.4 331.361C5200.43 331.361 5188.3 332.096 5178.01 333.566C5177.09 332.463 5176.63 330.902 5176.63 328.88L5176.91 326.675C5182.24 325.389 5186.37 323.643 5189.31 321.438C5192.25 319.049 5194.09 316.844 5194.83 314.823C5195.75 312.618 5196.48 308.667 5197.03 302.971C5197.77 297.091 5198.13 284.596 5198.13 265.486C5198.13 246.375 5198.04 235.81 5197.86 233.788C5197.86 231.583 5197.77 228.827 5197.58 225.519C5197.4 222.212 5197.03 219.731 5196.48 218.077C5195.93 216.424 5195.1 214.678 5194 212.84C5192.16 209.349 5189.04 207.604 5184.63 207.604ZM5427.69 208.155C5422.18 203.377 5415.11 200.988 5406.47 200.988C5388.65 200.988 5379.73 208.155 5379.73 222.487C5379.73 227.081 5381.39 231.491 5384.7 235.718C5388.19 239.76 5392.41 242.976 5397.37 245.365L5418.87 255.563C5439.82 265.669 5450.3 279.175 5450.3 296.08C5450.3 308.576 5445.33 318.498 5435.41 325.848C5425.49 333.198 5413.73 336.873 5400.13 336.873C5392.96 336.873 5385.43 336.138 5377.53 334.668C5369.81 333.382 5364.3 332.004 5360.99 330.534C5360.44 322.265 5358.79 310.781 5356.03 296.08C5358.05 294.794 5359.71 294.151 5360.99 294.151C5362.46 294.151 5363.47 294.335 5364.02 294.702C5367.7 305.727 5370.91 312.802 5373.67 315.926C5375.69 317.947 5379.28 320.152 5384.42 322.541C5389.57 324.93 5395.63 326.124 5402.61 326.124C5409.78 326.124 5415.93 324.195 5421.08 320.336C5426.22 316.477 5428.8 310.689 5428.8 302.971C5428.8 297.826 5427.79 293.967 5425.76 291.395C5423.74 288.822 5422 286.893 5420.53 285.607C5419.24 284.136 5417.68 282.85 5415.84 281.748C5414.19 280.645 5412.72 279.818 5411.43 279.267C5410.33 278.532 5409.13 277.889 5407.85 277.338C5406.75 276.603 5406.1 276.235 5405.92 276.235L5385.25 266.312C5367.42 257.86 5358.51 245.64 5358.51 229.654C5358.51 216.607 5363.47 206.96 5373.4 200.713C5383.32 194.281 5394.53 191.066 5407.02 191.066C5413.09 191.066 5419.88 191.893 5427.42 193.546C5435.14 195.016 5440.92 196.578 5444.78 198.232C5443.5 202.642 5442.03 212.932 5440.37 229.103C5439.45 229.838 5438.17 230.205 5436.51 230.205C5435.04 230.205 5433.57 230.021 5432.1 229.654C5430.63 220.466 5429.16 213.3 5427.69 208.155ZM4054.77 602.188L4010.4 601.361C3992.02 601.361 3978.79 601.82 3970.71 602.739C3969.6 601.269 3969.05 599.34 3969.05 596.951L4002.13 564.978C4002.68 564.427 4004.98 562.313 4009.02 558.638C4013.06 554.963 4016.37 551.931 4018.94 549.543C4021.51 546.97 4024.82 543.479 4028.86 539.069C4032.91 534.475 4036.21 530.249 4038.79 526.39C4044.85 517.202 4047.88 508.658 4047.88 500.756C4047.88 492.671 4044.94 485.964 4039.06 480.635C4033.18 475.307 4026.48 472.642 4018.94 472.642C4011.41 472.642 4002.5 475.123 3992.21 480.084C3990 493.131 3988.71 502.41 3988.35 507.923C3986.88 508.658 3985.41 509.025 3983.94 509.025C3982.65 509.025 3981.55 508.841 3980.63 508.474C3979.89 496.898 3978.79 488.996 3977.32 484.77C3976.04 480.36 3975.39 478.063 3975.39 477.879C3975.39 475.49 3976.77 473.745 3979.53 472.642C3990.74 467.865 4005.8 462.628 4024.73 456.931C4037.96 456.931 4049.17 459.963 4058.36 466.027C4067.54 472.091 4072.14 481.646 4072.14 494.693C4072.14 507.739 4064.05 521.888 4047.88 537.139L3998.82 583.721H4028.04C4044.21 583.721 4055.23 583.169 4061.11 582.067C4067.18 580.781 4071.68 578.484 4074.62 575.176C4075.54 574.074 4077.28 570.674 4079.86 564.978C4080.22 564.794 4081.23 564.702 4082.89 564.702C4084.54 564.702 4085.92 565.254 4087.02 566.356C4086.47 569.664 4085.83 573.247 4085.09 577.106C4084.36 580.781 4083.81 583.537 4083.44 585.374C4082.7 591.255 4082.34 595.756 4082.34 598.88C4078.66 601.085 4069.47 602.188 4054.77 602.188ZM4178.6 456.931C4198.45 456.931 4214.16 464.098 4225.73 478.43C4237.49 492.579 4243.37 510.863 4243.37 533.281C4243.37 555.698 4237.4 572.971 4225.46 585.099C4213.51 597.226 4197.16 604.485 4176.4 606.873C4156.37 606.873 4140.66 599.983 4129.26 586.201C4117.87 572.236 4112.18 553.953 4112.18 531.351C4112.18 508.566 4118.06 491.109 4129.82 478.982C4141.76 466.67 4158.02 459.32 4178.6 456.931ZM4172.26 480.911C4156.28 480.911 4144.52 484.494 4136.98 491.661C4129.63 498.827 4125.96 510.128 4125.96 525.563C4125.96 540.814 4131.38 554.32 4142.22 566.08C4153.06 577.657 4166.38 583.445 4182.19 583.445C4197.99 583.445 4209.66 579.678 4217.19 572.144C4224.72 564.427 4228.49 553.034 4228.49 537.966C4228.49 522.715 4223.16 509.393 4212.5 498C4201.85 486.607 4188.43 480.911 4172.26 480.911ZM4341.45 456.931C4361.29 456.931 4377.01 464.098 4388.58 478.43C4400.34 492.579 4406.22 510.863 4406.22 533.281C4406.22 555.698 4400.25 572.971 4388.31 585.099C4376.36 597.226 4360.01 604.485 4339.24 606.873C4319.21 606.873 4303.5 599.983 4292.11 586.201C4280.72 572.236 4275.02 553.953 4275.02 531.351C4275.02 508.566 4280.9 491.109 4292.66 478.982C4304.61 466.67 4320.87 459.32 4341.45 456.931ZM4335.11 480.911C4319.12 480.911 4307.36 484.494 4299.83 491.661C4292.48 498.827 4288.8 510.128 4288.8 525.563C4288.8 540.814 4294.22 554.32 4305.07 566.08C4315.91 577.657 4329.23 583.445 4345.03 583.445C4360.83 583.445 4372.5 579.678 4380.04 572.144C4387.57 564.427 4391.34 553.034 4391.34 537.966C4391.34 522.715 4386.01 509.393 4375.35 498C4364.69 486.607 4351.28 480.911 4335.11 480.911ZM4515.32 602.188L4470.95 601.361C4452.57 601.361 4439.34 601.82 4431.25 602.739C4430.15 601.269 4429.6 599.34 4429.6 596.951L4462.68 564.978C4463.23 564.427 4465.52 562.313 4469.57 558.638C4473.61 554.963 4476.92 551.931 4479.49 549.543C4482.06 546.97 4485.37 543.479 4489.41 539.069C4493.45 534.475 4496.76 530.249 4499.33 526.39C4505.4 517.202 4508.43 508.658 4508.43 500.756C4508.43 492.671 4505.49 485.964 4499.61 480.635C4493.73 475.307 4487.02 472.642 4479.49 472.642C4471.96 472.642 4463.04 475.123 4452.75 480.084C4450.55 493.131 4449.26 502.41 4448.89 507.923C4447.42 508.658 4445.95 509.025 4444.48 509.025C4443.2 509.025 4442.1 508.841 4441.18 508.474C4440.44 496.898 4439.34 488.996 4437.87 484.77C4436.58 480.36 4435.94 478.063 4435.94 477.879C4435.94 475.49 4437.32 473.745 4440.07 472.642C4451.28 467.865 4466.35 462.628 4485.28 456.931C4498.51 456.931 4509.72 459.963 4518.9 466.027C4528.09 472.091 4532.69 481.646 4532.69 494.693C4532.69 507.739 4524.6 521.888 4508.43 537.139L4459.37 583.721H4488.59C4504.76 583.721 4515.78 583.169 4521.66 582.067C4527.72 580.781 4532.23 578.484 4535.17 575.176C4536.09 574.074 4537.83 570.674 4540.4 564.978C4540.77 564.794 4541.78 564.702 4543.44 564.702C4545.09 564.702 4546.47 565.254 4547.57 566.356C4547.02 569.664 4546.38 573.247 4545.64 577.106C4544.91 580.781 4544.35 583.537 4543.99 585.374C4543.25 591.255 4542.88 595.756 4542.88 598.88C4539.21 601.085 4530.02 602.188 4515.32 602.188ZM4613.52 525.563C4625.28 525.563 4636.39 524.736 4646.87 523.082C4648.52 523.817 4649.35 525.195 4649.35 527.217C4648.06 530.892 4646.87 535.302 4645.76 540.447H4606.35C4594.59 540.447 4583.47 541.274 4573 542.928C4571.35 542.193 4570.52 540.814 4570.52 538.793C4571.8 535.118 4573 530.708 4574.1 525.563H4613.52ZM4754.88 602.188L4710.51 601.361C4692.13 601.361 4678.9 601.82 4670.81 602.739C4669.71 601.269 4669.16 599.34 4669.16 596.951L4702.24 564.978C4702.79 564.427 4705.08 562.313 4709.13 558.638C4713.17 554.963 4716.48 551.931 4719.05 549.543C4721.62 546.97 4724.93 543.479 4728.97 539.069C4733.02 534.475 4736.32 530.249 4738.9 526.39C4744.96 517.202 4747.99 508.658 4747.99 500.756C4747.99 492.671 4745.05 485.964 4739.17 480.635C4733.29 475.307 4726.58 472.642 4719.05 472.642C4711.52 472.642 4702.6 475.123 4692.31 480.084C4690.11 493.131 4688.82 502.41 4688.46 507.923C4686.98 508.658 4685.51 509.025 4684.04 509.025C4682.76 509.025 4681.66 508.841 4680.74 508.474C4680 496.898 4678.9 488.996 4677.43 484.77C4676.14 480.36 4675.5 478.063 4675.5 477.879C4675.5 475.49 4676.88 473.745 4679.63 472.642C4690.84 467.865 4705.91 462.628 4724.84 456.931C4738.07 456.931 4749.28 459.963 4758.46 466.027C4767.65 472.091 4772.25 481.646 4772.25 494.693C4772.25 507.739 4764.16 521.888 4747.99 537.139L4698.93 583.721H4728.15C4744.32 583.721 4755.34 583.169 4761.22 582.067C4767.28 580.781 4771.79 578.484 4774.73 575.176C4775.65 574.074 4777.39 570.674 4779.96 564.978C4780.33 564.794 4781.34 564.702 4783 564.702C4784.65 564.702 4786.03 565.254 4787.13 566.356C4786.58 569.664 4785.94 573.247 4785.2 577.106C4784.47 580.781 4783.91 583.537 4783.55 585.374C4782.81 591.255 4782.44 595.756 4782.44 598.88C4778.77 601.085 4769.58 602.188 4754.88 602.188ZM4878.71 456.931C4898.56 456.931 4914.27 464.098 4925.84 478.43C4937.6 492.579 4943.48 510.863 4943.48 533.281C4943.48 555.698 4937.51 572.971 4925.57 585.099C4913.62 597.226 4897.27 604.485 4876.51 606.873C4856.48 606.873 4840.77 599.983 4829.37 586.201C4817.98 572.236 4812.28 553.953 4812.28 531.351C4812.28 508.566 4818.16 491.109 4829.92 478.982C4841.87 466.67 4858.13 459.32 4878.71 456.931ZM4872.37 480.911C4856.38 480.911 4844.62 484.494 4837.09 491.661C4829.74 498.827 4826.06 510.128 4826.06 525.563C4826.06 540.814 4831.49 554.32 4842.33 566.08C4853.17 577.657 4866.49 583.445 4882.29 583.445C4898.1 583.445 4909.76 579.678 4917.3 572.144C4924.83 564.427 4928.6 553.034 4928.6 537.966C4928.6 522.715 4923.27 509.393 4912.61 498C4901.95 486.607 4888.54 480.911 4872.37 480.911ZM5041.56 456.931C5061.4 456.931 5077.11 464.098 5088.69 478.43C5100.45 492.579 5106.33 510.863 5106.33 533.281C5106.33 555.698 5100.36 572.971 5088.41 585.099C5076.47 597.226 5060.12 604.485 5039.35 606.873C5019.32 606.873 5003.61 599.983 4992.22 586.201C4980.83 572.236 4975.13 553.953 4975.13 531.351C4975.13 508.566 4981.01 491.109 4992.77 478.982C5004.71 466.67 5020.98 459.32 5041.56 456.931ZM5035.22 480.911C5019.23 480.911 5007.47 484.494 4999.94 491.661C4992.59 498.827 4988.91 510.128 4988.91 525.563C4988.91 540.814 4994.33 554.32 5005.17 566.08C5016.02 577.657 5029.34 583.445 5045.14 583.445C5060.94 583.445 5072.61 579.678 5080.15 572.144C5087.68 564.427 5091.45 553.034 5091.45 537.966C5091.45 522.715 5086.12 509.393 5075.46 498C5064.8 486.607 5051.39 480.911 5035.22 480.911ZM5260.36 459.412C5261.83 460.515 5262.75 462.26 5263.11 464.649C5247.31 485.413 5230.41 513.435 5212.4 548.716C5190.9 591.714 5172.89 635.998 5158.37 681.569C5157.64 681.936 5156.81 682.12 5155.89 682.12C5154.97 682.12 5154.15 681.936 5153.41 681.569C5149 677.159 5143.77 674.311 5137.7 673.024L5134.67 672.198C5152.31 631.772 5172.34 591.714 5194.76 552.023C5208.54 528.135 5222.69 504.983 5237.2 482.565C5220.48 481.095 5200.73 480.36 5177.94 480.36C5155.16 480.36 5142.39 482.565 5139.63 486.975C5137.06 491.752 5135.13 495.703 5133.84 498.827C5133.29 499.011 5132.28 499.103 5130.81 499.103C5129.53 499.103 5128.06 498.551 5126.4 497.449C5130.63 473.928 5132.74 461.158 5132.74 459.136C5146.52 460.423 5168.48 461.066 5198.62 461.066C5228.75 461.066 5249.33 460.515 5260.36 459.412Z" fill="white"/>
</svg>
